<svg width="111" height="40" viewBox="0 0 111 40" fill="none" xmlns="http://www.w3.org/2000/svg">
<rect width="111" height="40" rx="20" fill="#543C52" style="fill:#543C52;fill:color(display-p3 0.3294 0.2353 0.3216);fill-opacity:1;"/>
<path d="M18.66 16.642V25H17.05V15.2H24.302V25H22.692V16.642H18.66ZM27.8296 17.216C27.6149 17.4307 27.3442 17.538 27.0176 17.538C26.6909 17.538 26.4202 17.4307 26.2056 17.216C25.9909 16.992 25.8836 16.7213 25.8836 16.404C25.8836 16.0867 25.9909 15.8207 26.2056 15.606C26.4202 15.382 26.6909 15.27 27.0176 15.27C27.3442 15.27 27.6149 15.382 27.8296 15.606C28.0442 15.8207 28.1516 16.0867 28.1516 16.404C28.1516 16.7213 28.0442 16.992 27.8296 17.216ZM26.2476 25V18.476H27.7736V25H26.2476ZM35.4459 23.558H36.2019V26.68H34.6759V25H30.5599V26.68H28.9499V23.558H29.6219C29.9859 23.3247 30.1679 22.8393 30.1679 22.102V18.476H35.4459V23.558ZM31.2459 23.74H33.9199V19.736H31.6939V22.032C31.6939 22.6947 31.5446 23.264 31.2459 23.74ZM42.0358 18.476V19.89H40.1458V25H38.6198V19.89H36.7578V18.476H42.0358ZM43.3452 18.476H46.3412C46.7798 18.476 47.1485 18.532 47.4472 18.644C47.7552 18.756 47.9792 18.91 48.1192 19.106C48.2592 19.2927 48.3572 19.4747 48.4132 19.652C48.4692 19.82 48.4972 20.002 48.4972 20.198C48.4972 20.5807 48.3478 20.9073 48.0492 21.178C47.7505 21.4487 47.3958 21.598 46.9852 21.626C47.4332 21.6447 47.8158 21.794 48.1332 22.074C48.4598 22.3447 48.6232 22.718 48.6232 23.194C48.6232 23.3807 48.5858 23.5673 48.5112 23.754C48.4458 23.9407 48.3338 24.1367 48.1752 24.342C48.0165 24.538 47.7692 24.6967 47.4332 24.818C47.1065 24.9393 46.7098 25 46.2432 25H43.3452V18.476ZM46.2152 21.15C46.4392 21.15 46.6212 21.0753 46.7612 20.926C46.9012 20.7673 46.9712 20.576 46.9712 20.352C46.9712 20.1187 46.9012 19.9273 46.7612 19.778C46.6212 19.6193 46.4392 19.54 46.2152 19.54H44.8292V21.15H46.2152ZM44.8292 22.214V23.936H46.2712C46.5045 23.936 46.7005 23.852 46.8592 23.684C47.0178 23.516 47.0972 23.3153 47.0972 23.082C47.0972 22.8487 47.0178 22.648 46.8592 22.48C46.7005 22.3027 46.5045 22.214 46.2712 22.214H44.8292ZM55.9914 21.402C55.9914 21.57 55.9774 21.85 55.9494 22.242H51.1054C51.1241 22.7553 51.2921 23.152 51.6094 23.432C51.9268 23.7027 52.3654 23.838 52.9254 23.838C53.6441 23.838 54.1294 23.5907 54.3814 23.096H55.9214C55.8188 23.7027 55.4874 24.202 54.9274 24.594C54.3768 24.9767 53.7094 25.168 52.9254 25.168C51.8988 25.168 51.0868 24.86 50.4894 24.244C49.8921 23.628 49.5934 22.7927 49.5934 21.738C49.5934 20.6927 49.8874 19.862 50.4754 19.246C51.0728 18.6207 51.8708 18.308 52.8694 18.308C53.8028 18.308 54.5541 18.5973 55.1234 19.176C55.7021 19.7453 55.9914 20.4873 55.9914 21.402ZM51.1054 21.08H54.4934C54.4841 20.576 54.3348 20.1887 54.0454 19.918C53.7654 19.6473 53.3641 19.512 52.8414 19.512C52.3094 19.512 51.8894 19.6567 51.5814 19.946C51.2734 20.2353 51.1148 20.6133 51.1054 21.08ZM61.0922 18.308C62.0256 18.308 62.7769 18.6253 63.3462 19.26C63.9156 19.8853 64.2002 20.7113 64.2002 21.738C64.2002 22.746 63.9016 23.572 63.3042 24.216C62.7069 24.8507 61.9369 25.168 60.9942 25.168C60.5649 25.168 60.1589 25.0747 59.7762 24.888C59.3936 24.692 59.1042 24.4353 58.9082 24.118V27.94H57.3822V18.476H58.9082V19.358C59.1042 19.0407 59.4029 18.7887 59.8042 18.602C60.2056 18.406 60.6349 18.308 61.0922 18.308ZM60.7702 23.81C61.3302 23.81 61.7876 23.6187 62.1422 23.236C62.4969 22.844 62.6742 22.3447 62.6742 21.738C62.6742 21.1313 62.4969 20.6367 62.1422 20.254C61.7876 19.862 61.3302 19.666 60.7702 19.666C60.1916 19.666 59.7249 19.8573 59.3702 20.24C59.0156 20.6227 58.8382 21.122 58.8382 21.738C58.8382 22.354 59.0156 22.8533 59.3702 23.236C59.7249 23.6187 60.1916 23.81 60.7702 23.81ZM71.3794 23.558H72.1354V26.68H70.6094V25H66.4934V26.68H64.8834V23.558H65.5554C65.9194 23.3247 66.1014 22.8393 66.1014 22.102V18.476H71.3794V23.558ZM67.1794 23.74H69.8534V19.736H67.6274V22.032C67.6274 22.6947 67.4781 23.264 67.1794 23.74ZM77.9488 20.8L75.0508 24.454V25H73.5248V18.476H75.0508V22.746L77.9488 19.064V18.476H79.4748V25H77.9488V20.8ZM86.0748 18.476V19.89H84.1848V25H82.6588V19.89H80.7968V18.476H86.0748ZM91.8081 20.8L88.9101 24.454V25H87.3841V18.476H88.9101V22.746L91.8081 19.064V18.476H93.3341V25H91.8081V20.8Z" fill="white" style="fill:white;fill-opacity:1;"/>
</svg>
