<svg width="79" height="40" viewBox="0 0 79 40" fill="none" xmlns="http://www.w3.org/2000/svg">
<rect width="79" height="40" rx="20" fill="#543C52" style="fill:#543C52;fill:color(display-p3 0.3294 0.2353 0.3216);fill-opacity:1;"/>
<path d="M23.98 23.558H24.736V26.68H23.21V25H17.89V26.68H16.28V23.558H16.826C17.1433 23.558 17.3813 23.3807 17.54 23.026C17.708 22.662 17.792 22.032 17.792 21.136V15.2H23.98V23.558ZM18.912 23.558H22.356V16.642H19.444V21.108C19.444 22.1067 19.2667 22.9233 18.912 23.558ZM31.5162 24.202C30.9002 24.846 30.0648 25.168 29.0102 25.168C27.9555 25.168 27.1155 24.846 26.4902 24.202C25.8742 23.5487 25.5662 22.7273 25.5662 21.738C25.5662 20.7487 25.8742 19.932 26.4902 19.288C27.1155 18.6347 27.9555 18.308 29.0102 18.308C30.0648 18.308 30.9002 18.6347 31.5162 19.288C32.1415 19.932 32.4542 20.7487 32.4542 21.738C32.4542 22.7273 32.1415 23.5487 31.5162 24.202ZM27.5962 23.236C27.9415 23.6187 28.4128 23.81 29.0102 23.81C29.6075 23.81 30.0742 23.6187 30.4102 23.236C30.7555 22.8533 30.9282 22.354 30.9282 21.738C30.9282 21.122 30.7555 20.6227 30.4102 20.24C30.0742 19.8573 29.6075 19.666 29.0102 19.666C28.4128 19.666 27.9415 19.8573 27.5962 20.24C27.2602 20.6227 27.0922 21.122 27.0922 21.738C27.0922 22.354 27.2602 22.8533 27.5962 23.236ZM39.356 23.558H40.112V26.68H38.586V25H34.47V26.68H32.86V23.558H33.532C33.896 23.3247 34.078 22.8393 34.078 22.102V18.476H39.356V23.558ZM35.156 23.74H37.83V19.736H35.604V22.032C35.604 22.6947 35.4547 23.264 35.156 23.74ZM44.1491 25.168C43.1317 25.168 42.3431 24.846 41.7831 24.202C41.2231 23.558 40.9431 22.7367 40.9431 21.738C40.9431 20.7487 41.2371 19.932 41.8251 19.288C42.4131 18.6347 43.2017 18.308 44.1911 18.308C44.6297 18.308 45.0311 18.4013 45.3951 18.588C45.7591 18.7747 46.0391 19.0313 46.2351 19.358V18.476H47.7611V25H46.2351V24.118C46.0484 24.4353 45.7544 24.692 45.3531 24.888C44.9611 25.0747 44.5597 25.168 44.1491 25.168ZM44.3731 23.81C44.9984 23.81 45.4744 23.614 45.8011 23.222C46.1371 22.83 46.3051 22.3353 46.3051 21.738C46.3051 21.1407 46.1371 20.646 45.8011 20.254C45.4744 19.862 44.9984 19.666 44.3731 19.666C43.7851 19.666 43.3184 19.862 42.9731 20.254C42.6371 20.6367 42.4691 21.1313 42.4691 21.738C42.4691 22.3447 42.6371 22.844 42.9731 23.236C43.3184 23.6187 43.7851 23.81 44.3731 23.81ZM54.3522 18.476V19.89H52.4622V25H50.9362V19.89H49.0742V18.476H54.3522ZM60.0856 20.8L57.1876 24.454V25H55.6616V18.476H57.1876V22.746L60.0856 19.064V18.476H61.6116V25H60.0856V20.8Z" fill="white" style="fill:white;fill-opacity:1;"/>
</svg>
