<svg width="73" height="40" viewBox="0 0 73 40" fill="none" xmlns="http://www.w3.org/2000/svg">
<rect x="0.5" y="0.5" width="72" height="39" rx="19.5" stroke="#543C52" style="stroke:#543C52;stroke:color(display-p3 0.3294 0.2353 0.3216);stroke-opacity:1;"/>
<path d="M17.05 25V15.2H18.66V19.414H22.706V15.2H24.316V25H22.706V20.856H18.66V25H17.05ZM28.9772 25.168C27.9599 25.168 27.1712 24.846 26.6112 24.202C26.0512 23.558 25.7712 22.7367 25.7712 21.738C25.7712 20.7487 26.0652 19.932 26.6532 19.288C27.2412 18.6347 28.0299 18.308 29.0192 18.308C29.4579 18.308 29.8592 18.4013 30.2232 18.588C30.5872 18.7747 30.8672 19.0313 31.0632 19.358V18.476H32.5892V25H31.0632V24.118C30.8766 24.4353 30.5826 24.692 30.1812 24.888C29.7892 25.0747 29.3879 25.168 28.9772 25.168ZM29.2012 23.81C29.8266 23.81 30.3026 23.614 30.6292 23.222C30.9652 22.83 31.1332 22.3353 31.1332 21.738C31.1332 21.1407 30.9652 20.646 30.6292 20.254C30.3026 19.862 29.8266 19.666 29.2012 19.666C28.6132 19.666 28.1466 19.862 27.8012 20.254C27.4652 20.6367 27.2972 21.1313 27.2972 21.738C27.2972 22.3447 27.4652 22.844 27.8012 23.236C28.1466 23.6187 28.6132 23.81 29.2012 23.81ZM35.5544 22.984C35.5544 23.2733 35.6711 23.502 35.9044 23.67C36.1471 23.838 36.4924 23.922 36.9404 23.922C37.7431 23.922 38.1444 23.6327 38.1444 23.054C38.1444 22.83 38.0511 22.648 37.8644 22.508C37.6871 22.3587 37.4304 22.284 37.0944 22.284H36.1284V21.164H37.0104C37.2997 21.164 37.5331 21.094 37.7104 20.954C37.8971 20.8047 37.9904 20.5993 37.9904 20.338C37.9904 20.1047 37.8831 19.9087 37.6684 19.75C37.4631 19.5913 37.1924 19.512 36.8564 19.512C36.4457 19.512 36.1424 19.6007 35.9464 19.778C35.7504 19.946 35.6524 20.17 35.6524 20.45H34.1404C34.1404 19.806 34.3877 19.288 34.8824 18.896C35.3771 18.504 36.0304 18.308 36.8424 18.308C37.6357 18.308 38.2704 18.476 38.7464 18.812C39.2317 19.148 39.4744 19.582 39.4744 20.114C39.4744 20.5527 39.3437 20.9027 39.0824 21.164C38.8304 21.416 38.4804 21.57 38.0324 21.626C38.4991 21.682 38.8817 21.85 39.1804 22.13C39.4791 22.4007 39.6284 22.7693 39.6284 23.236C39.6284 23.8427 39.3577 24.3187 38.8164 24.664C38.2844 25 37.6217 25.168 36.8284 25.168C35.9604 25.168 35.2791 24.972 34.7844 24.58C34.2897 24.1787 34.0424 23.6467 34.0424 22.984H35.5544ZM43.7936 25.168C42.7763 25.168 41.9876 24.846 41.4276 24.202C40.8676 23.558 40.5876 22.7367 40.5876 21.738C40.5876 20.7487 40.8816 19.932 41.4696 19.288C42.0576 18.6347 42.8463 18.308 43.8356 18.308C44.2743 18.308 44.6756 18.4013 45.0396 18.588C45.4036 18.7747 45.6836 19.0313 45.8796 19.358V18.476H47.4056V25H45.8796V24.118C45.6929 24.4353 45.3989 24.692 44.9976 24.888C44.6056 25.0747 44.2043 25.168 43.7936 25.168ZM44.0176 23.81C44.6429 23.81 45.1189 23.614 45.4456 23.222C45.7816 22.83 45.9496 22.3353 45.9496 21.738C45.9496 21.1407 45.7816 20.646 45.4456 20.254C45.1189 19.862 44.6429 19.666 44.0176 19.666C43.4296 19.666 42.9629 19.862 42.6176 20.254C42.2816 20.6367 42.1136 21.1313 42.1136 21.738C42.1136 22.3447 42.2816 22.844 42.6176 23.236C42.9629 23.6187 43.4296 23.81 44.0176 23.81ZM55.0748 23.558H55.8308V26.68H54.3048V25H50.1888V26.68H48.5788V23.558H49.2508C49.6148 23.3247 49.7968 22.8393 49.7968 22.102V18.476H55.0748V23.558ZM50.8748 23.74H53.5488V19.736H51.3228V22.032C51.3228 22.6947 51.1734 23.264 50.8748 23.74Z" fill="#543C52" style="fill:#543C52;fill:color(display-p3 0.3294 0.2353 0.3216);fill-opacity:1;"/>
</svg>
