<svg width="102" height="40" viewBox="0 0 102 40" fill="none" xmlns="http://www.w3.org/2000/svg">
<rect x="0.5" y="0.5" width="101" height="39" rx="19.5" stroke="#543C52" style="stroke:#543C52;stroke:color(display-p3 0.3294 0.2353 0.3216);stroke-opacity:1;"/>
<path d="M19.124 12.2275H24.124C24.3621 12.2275 24.5905 12.3219 24.7588 12.4902C24.9271 12.6585 25.0215 12.887 25.0215 13.125C25.0215 13.363 24.9271 13.5915 24.7588 13.7598C24.5905 13.9281 24.3621 14.0225 24.124 14.0225H20.0215V25.9775H24.124C24.3621 25.9775 24.5905 26.0719 24.7588 26.2402C24.9271 26.4085 25.0215 26.637 25.0215 26.875C25.0215 27.113 24.9271 27.3415 24.7588 27.5098C24.5905 27.6781 24.3621 27.7725 24.124 27.7725H19.124C18.886 27.7725 18.6576 27.6781 18.4893 27.5098C18.3209 27.3415 18.2266 27.113 18.2266 26.875V13.125C18.2266 12.887 18.3209 12.6585 18.4893 12.4902C18.6576 12.3219 18.886 12.2275 19.124 12.2275ZM29.748 15.9766C29.9865 15.9766 30.2152 16.0716 30.3838 16.2402L33.5088 19.3652C33.5923 19.4486 33.6589 19.5473 33.7041 19.6562C33.7493 19.7654 33.7725 19.8829 33.7725 20.001C33.7724 20.1189 33.7494 20.2358 33.7041 20.3447C33.6588 20.4537 33.5924 20.5534 33.5088 20.6367H33.5078L30.3828 23.7617C30.2142 23.9302 29.9854 24.0254 29.7471 24.0254C29.5087 24.0253 29.2799 23.9302 29.1113 23.7617C28.9428 23.5932 28.8487 23.3643 28.8486 23.126C28.8486 22.8877 28.9429 22.6588 29.1113 22.4902L30.6367 20.9658L30.7051 20.8975H24.124C23.886 20.8975 23.6576 20.8031 23.4893 20.6348C23.3209 20.4665 23.2266 20.238 23.2266 20C23.2266 19.762 23.3209 19.5335 23.4893 19.3652C23.6576 19.1969 23.886 19.1025 24.124 19.1025H30.7051L30.6367 19.0342L29.1123 17.5117C28.9437 17.3431 28.8487 17.1144 28.8486 16.876C28.8486 16.6376 28.9438 16.4088 29.1123 16.2402C29.2809 16.0717 29.5097 15.9766 29.748 15.9766Z" fill="#543C52" stroke="#543C52" style="fill:#543C52;fill:color(display-p3 0.3294 0.2353 0.3216);fill-opacity:1;stroke:#543C52;stroke:color(display-p3 0.3294 0.2353 0.3216);stroke-opacity:1;" stroke-width="0.08"/>
<path d="M49.614 19.96C50.1833 20.016 50.6593 20.2493 51.042 20.66C51.434 21.0613 51.63 21.598 51.63 22.27C51.63 23.1193 51.35 23.7867 50.79 24.272C50.2393 24.7573 49.4787 25 48.508 25H45.05V15.2H48.326C49.306 15.2 50.076 15.4287 50.636 15.886C51.196 16.334 51.476 16.9547 51.476 17.748C51.476 18.98 50.8553 19.7173 49.614 19.96ZM48.256 16.614H46.66V19.302H48.256C48.76 19.302 49.152 19.1853 49.432 18.952C49.7213 18.7093 49.866 18.378 49.866 17.958C49.866 17.5287 49.726 17.1973 49.446 16.964C49.166 16.7307 48.7693 16.614 48.256 16.614ZM48.48 23.586C48.9653 23.586 49.3433 23.4553 49.614 23.194C49.8847 22.9327 50.02 22.5687 50.02 22.102C50.02 21.6913 49.88 21.36 49.6 21.108C49.32 20.8467 48.9513 20.716 48.494 20.716H46.66V23.586H48.48ZM55.4375 25.168C54.7001 25.168 54.1121 24.9487 53.6735 24.51C53.2348 24.0713 53.0155 23.4273 53.0155 22.578V18.476H54.5415V22.2C54.5415 22.7507 54.6441 23.166 54.8495 23.446C55.0548 23.726 55.3955 23.866 55.8715 23.866C56.4221 23.866 56.8235 23.712 57.0755 23.404C57.3275 23.0867 57.4535 22.6713 57.4535 22.158V18.476H58.9795V25H57.4535V24.09C57.0521 24.8087 56.3801 25.168 55.4375 25.168ZM63.8031 23.712C64.1111 23.712 64.3678 23.6933 64.5731 23.656V25C64.2558 25.056 63.8778 25.084 63.4391 25.084C63.1871 25.084 62.9678 25.0653 62.7811 25.028C62.5944 24.9907 62.3751 24.9067 62.1231 24.776C61.8711 24.636 61.6751 24.398 61.5351 24.062C61.3951 23.726 61.3251 23.3013 61.3251 22.788V19.75H60.2191V18.476H61.3251V16.502H62.8511V18.476H64.3491V19.75H62.8511V22.438C62.8511 22.9607 62.9258 23.306 63.0751 23.474C63.2244 23.6327 63.4671 23.712 63.8031 23.712ZM68.8461 23.712C69.1541 23.712 69.4107 23.6933 69.6161 23.656V25C69.2987 25.056 68.9207 25.084 68.4821 25.084C68.2301 25.084 68.0107 25.0653 67.8241 25.028C67.6374 24.9907 67.4181 24.9067 67.1661 24.776C66.9141 24.636 66.7181 24.398 66.5781 24.062C66.4381 23.726 66.3681 23.3013 66.3681 22.788V19.75H65.2621V18.476H66.3681V16.502H67.8941V18.476H69.3921V19.75H67.8941V22.438C67.8941 22.9607 67.9687 23.306 68.1181 23.474C68.2674 23.6327 68.5101 23.712 68.8461 23.712ZM76.3267 24.202C75.7107 24.846 74.8753 25.168 73.8207 25.168C72.766 25.168 71.926 24.846 71.3007 24.202C70.6847 23.5487 70.3767 22.7273 70.3767 21.738C70.3767 20.7487 70.6847 19.932 71.3007 19.288C71.926 18.6347 72.766 18.308 73.8207 18.308C74.8753 18.308 75.7107 18.6347 76.3267 19.288C76.952 19.932 77.2647 20.7487 77.2647 21.738C77.2647 22.7273 76.952 23.5487 76.3267 24.202ZM72.4067 23.236C72.752 23.6187 73.2233 23.81 73.8207 23.81C74.418 23.81 74.8847 23.6187 75.2207 23.236C75.566 22.8533 75.7387 22.354 75.7387 21.738C75.7387 21.122 75.566 20.6227 75.2207 20.24C74.8847 19.8573 74.418 19.666 73.8207 19.666C73.2233 19.666 72.752 19.8573 72.4067 20.24C72.0707 20.6227 71.9027 21.122 71.9027 21.738C71.9027 22.354 72.0707 22.8533 72.4067 23.236ZM78.644 25V18.476H80.17V19.386C80.59 18.6673 81.2993 18.308 82.298 18.308C83.8847 18.308 84.678 19.1713 84.678 20.898V25H83.152V21.598C83.152 20.8887 83.0447 20.38 82.83 20.072C82.6153 19.764 82.2467 19.61 81.724 19.61C81.2293 19.61 80.8467 19.7687 80.576 20.086C80.3053 20.394 80.17 20.8373 80.17 21.416V25H78.644Z" fill="#543C52" style="fill:#543C52;fill:color(display-p3 0.3294 0.2353 0.3216);fill-opacity:1;"/>
</svg>
