<svg width="130" height="40" viewBox="0 0 130 40" fill="none" xmlns="http://www.w3.org/2000/svg">
<rect width="130" height="40" rx="20" fill="#543C52" style="fill:#543C52;fill:color(display-p3 0.3294 0.2353 0.3216);fill-opacity:1;"/>
<path d="M18.66 16.642V25H17.05V15.2H24.302V25H22.692V16.642H18.66ZM30.6856 18.476H32.2116V25.028C32.2116 26.0267 31.9269 26.8013 31.3576 27.352C30.8069 27.856 30.0696 28.108 29.1456 28.108C28.1842 28.108 27.4376 27.884 26.9056 27.436C26.4389 27.0253 26.1962 26.4607 26.1776 25.742H27.7176C27.7549 26.1153 27.8762 26.3907 28.0816 26.568C28.2962 26.7547 28.6416 26.848 29.1176 26.848C29.6029 26.848 29.9856 26.6893 30.2656 26.372C30.5456 26.064 30.6856 25.5787 30.6856 24.916V24.09C30.2656 24.8087 29.5656 25.168 28.5856 25.168C27.8109 25.168 27.2136 24.9207 26.7936 24.426C26.3829 23.922 26.1776 23.264 26.1776 22.452V18.476H27.7036V22.13C27.7036 23.2593 28.1749 23.824 29.1176 23.824C29.6309 23.824 30.0182 23.642 30.2796 23.278C30.5502 22.914 30.6856 22.438 30.6856 21.85V18.476ZM37.3553 25.182C36.1606 25.182 35.2599 24.7573 34.6533 23.908C34.0466 23.0493 33.7433 21.9293 33.7433 20.548C33.7433 18.7467 34.1493 17.4073 34.9613 16.53C35.7733 15.6433 37.0193 15.2 38.6993 15.2H40.0293V16.67H38.2933C37.2853 16.67 36.5339 16.9313 36.0393 17.454C35.5539 17.9673 35.2693 18.77 35.1853 19.862C35.3533 19.3673 35.6659 18.9847 36.1233 18.714C36.5806 18.4433 37.0613 18.308 37.5653 18.308C38.5453 18.308 39.3106 18.6393 39.8613 19.302C40.4213 19.9553 40.7013 20.7673 40.7013 21.738C40.7013 22.69 40.3839 23.502 39.7493 24.174C39.1239 24.846 38.3259 25.182 37.3553 25.182ZM37.2713 23.824C37.8593 23.824 38.3213 23.628 38.6573 23.236C39.0026 22.8347 39.1753 22.34 39.1753 21.752C39.1753 21.164 39.0026 20.674 38.6573 20.282C38.3213 19.8807 37.8593 19.68 37.2713 19.68C36.6553 19.68 36.1793 19.8713 35.8433 20.254C35.5073 20.6367 35.3393 21.136 35.3393 21.752C35.3393 22.368 35.5073 22.8673 35.8433 23.25C36.1793 23.6327 36.6553 23.824 37.2713 23.824ZM41.3926 23.628H41.6446C42.3259 23.628 42.6666 23.1567 42.6666 22.214V18.476H47.7766V25H46.2506V19.89H44.1926V22.144C44.1926 23.0493 43.9966 23.7633 43.6046 24.286C43.2126 24.8087 42.6619 25.07 41.9526 25.07H41.3926V23.628ZM51.2299 17.216C51.0152 17.4307 50.7446 17.538 50.4179 17.538C50.0912 17.538 49.8206 17.4307 49.6059 17.216C49.3912 16.992 49.2839 16.7213 49.2839 16.404C49.2839 16.0867 49.3912 15.8207 49.6059 15.606C49.8206 15.382 50.0912 15.27 50.4179 15.27C50.7446 15.27 51.0152 15.382 51.2299 15.606C51.4446 15.8207 51.5519 16.0867 51.5519 16.404C51.5519 16.7213 51.4446 16.992 51.2299 17.216ZM49.6479 25V18.476H51.1739V25H49.6479ZM58.8742 25H56.9982L54.5762 22.018V25H53.0502V18.476H54.5762V21.206H54.7162C54.9962 21.206 55.2436 21.0613 55.4582 20.772L56.6062 19.204C56.8396 18.8867 57.0542 18.6767 57.2502 18.574C57.4556 18.462 57.7309 18.406 58.0762 18.406H58.5942V19.778H58.3702C58.0716 19.778 57.8289 19.9087 57.6422 20.17L57.1102 20.912C56.9236 21.1827 56.7602 21.36 56.6202 21.444C56.4802 21.5187 56.3076 21.556 56.1022 21.556H56.0042L58.8742 25ZM62.2857 25.168C61.2684 25.168 60.4797 24.846 59.9197 24.202C59.3597 23.558 59.0797 22.7367 59.0797 21.738C59.0797 20.7487 59.3737 19.932 59.9617 19.288C60.5497 18.6347 61.3384 18.308 62.3277 18.308C62.7664 18.308 63.1677 18.4013 63.5317 18.588C63.8957 18.7747 64.1757 19.0313 64.3717 19.358V18.476H65.8977V25H64.3717V24.118C64.1851 24.4353 63.8911 24.692 63.4897 24.888C63.0977 25.0747 62.6964 25.168 62.2857 25.168ZM62.5097 23.81C63.1351 23.81 63.6111 23.614 63.9377 23.222C64.2737 22.83 64.4417 22.3353 64.4417 21.738C64.4417 21.1407 64.2737 20.646 63.9377 20.254C63.6111 19.862 63.1351 19.666 62.5097 19.666C61.9217 19.666 61.4551 19.862 61.1097 20.254C60.7737 20.6367 60.6057 21.1313 60.6057 21.738C60.6057 22.3447 60.7737 22.844 61.1097 23.236C61.4551 23.6187 61.9217 23.81 62.5097 23.81ZM73.5949 23.558H74.3509V26.68H72.8249V25H67.7709V18.476H69.2969V23.726H72.0689V18.476H73.5949V23.558ZM77.3216 17.216C77.107 17.4307 76.8363 17.538 76.5096 17.538C76.183 17.538 75.9123 17.4307 75.6976 17.216C75.483 16.992 75.3756 16.7213 75.3756 16.404C75.3756 16.0867 75.483 15.8207 75.6976 15.606C75.9123 15.382 76.183 15.27 76.5096 15.27C76.8363 15.27 77.107 15.382 77.3216 15.606C77.5363 15.8207 77.6436 16.0867 77.6436 16.404C77.6436 16.7213 77.5363 16.992 77.3216 17.216ZM75.7396 25V18.476H77.2656V25H75.7396ZM78.834 25L80.248 22.83C79.8093 22.6807 79.4546 22.41 79.184 22.018C78.9226 21.626 78.792 21.1967 78.792 20.73C78.792 20.0953 79.0066 19.5633 79.436 19.134C79.8653 18.6953 80.4206 18.476 81.102 18.476H84.616V25H83.118V22.998H81.802L80.598 25H78.834ZM81.438 21.738H83.118V19.708H81.438C81.1113 19.708 80.8453 19.8107 80.64 20.016C80.444 20.212 80.346 20.45 80.346 20.73C80.346 21.01 80.444 21.248 80.64 21.444C80.8453 21.64 81.1113 21.738 81.438 21.738Z" fill="white" style="fill:white;fill-opacity:1;"/>
<path d="M111.331 18.6302L98.2009 11.138C97.9241 10.983 97.6066 10.9158 97.2907 10.9456C96.9748 10.9754 96.6755 11.1006 96.4325 11.3047C96.1895 11.5087 96.0144 11.7819 95.9305 12.0879C95.8465 12.3939 95.8578 12.7182 95.9626 13.0177L98.3205 19.999L95.9626 26.9802C95.8798 27.2157 95.8545 27.4677 95.889 27.715C95.9235 27.9623 96.0168 28.1977 96.161 28.4015C96.3053 28.6053 96.4962 28.7716 96.7179 28.8864C96.9396 29.0012 97.1856 29.0613 97.4353 29.0615C97.7038 29.0609 97.9677 28.9915 98.2017 28.8599L98.2087 28.8552L111.334 21.3497C111.574 21.2135 111.775 21.0159 111.914 20.777C112.053 20.5381 112.127 20.2665 112.127 19.99C112.127 19.7134 112.053 19.4419 111.914 19.203C111.775 18.9641 111.574 18.7664 111.334 18.6302H111.331ZM97.997 26.8162L99.983 20.9365H104.31C104.559 20.9365 104.797 20.8377 104.973 20.6619C105.149 20.4861 105.248 20.2476 105.248 19.999C105.248 19.7503 105.149 19.5119 104.973 19.3361C104.797 19.1602 104.559 19.0615 104.31 19.0615H99.983L97.9962 13.1802L109.931 19.9904L97.997 26.8162Z" fill="white" style="fill:white;fill-opacity:1;"/>
</svg>
