<svg width="190" height="40" viewBox="0 0 190 40" fill="none" xmlns="http://www.w3.org/2000/svg">
<rect width="190" height="40" rx="20" fill="#543C52" style="fill:#543C52;fill:color(display-p3 0.3294 0.2353 0.3216);fill-opacity:1;"/>
<path d="M18.66 16.642V25H17.05V15.2H24.302V25H22.692V16.642H18.66ZM32.1556 21.402C32.1556 21.57 32.1416 21.85 32.1136 22.242H27.2696C27.2882 22.7553 27.4562 23.152 27.7736 23.432C28.0909 23.7027 28.5296 23.838 29.0896 23.838C29.8082 23.838 30.2936 23.5907 30.5456 23.096H32.0856C31.9829 23.7027 31.6516 24.202 31.0916 24.594C30.5409 24.9767 29.8736 25.168 29.0896 25.168C28.0629 25.168 27.2509 24.86 26.6536 24.244C26.0562 23.628 25.7576 22.7927 25.7576 21.738C25.7576 20.6927 26.0516 19.862 26.6396 19.246C27.2369 18.6207 28.0349 18.308 29.0336 18.308C29.9669 18.308 30.7182 18.5973 31.2876 19.176C31.8662 19.7453 32.1556 20.4873 32.1556 21.402ZM27.2696 21.08H30.6576C30.6482 20.576 30.4989 20.1887 30.2096 19.918C29.9296 19.6473 29.5282 19.512 29.0056 19.512C28.4736 19.512 28.0536 19.6567 27.7456 19.946C27.4376 20.2353 27.2789 20.6133 27.2696 21.08ZM37.2564 18.308C38.1897 18.308 38.941 18.6253 39.5104 19.26C40.0797 19.8853 40.3644 20.7113 40.3644 21.738C40.3644 22.746 40.0657 23.572 39.4684 24.216C38.871 24.8507 38.101 25.168 37.1584 25.168C36.729 25.168 36.323 25.0747 35.9404 24.888C35.5577 24.692 35.2684 24.4353 35.0724 24.118V27.94H33.5464V18.476H35.0724V19.358C35.2684 19.0407 35.567 18.7887 35.9684 18.602C36.3697 18.406 36.799 18.308 37.2564 18.308ZM36.9344 23.81C37.4944 23.81 37.9517 23.6187 38.3064 23.236C38.661 22.844 38.8384 22.3447 38.8384 21.738C38.8384 21.1313 38.661 20.6367 38.3064 20.254C37.9517 19.862 37.4944 19.666 36.9344 19.666C36.3557 19.666 35.889 19.8573 35.5344 20.24C35.1797 20.6227 35.0024 21.122 35.0024 21.738C35.0024 22.354 35.1797 22.8533 35.5344 23.236C35.889 23.6187 36.3557 23.81 36.9344 23.81ZM47.6555 21.402C47.6555 21.57 47.6415 21.85 47.6135 22.242H42.7695C42.7882 22.7553 42.9562 23.152 43.2735 23.432C43.5909 23.7027 44.0295 23.838 44.5895 23.838C45.3082 23.838 45.7935 23.5907 46.0455 23.096H47.5855C47.4829 23.7027 47.1515 24.202 46.5915 24.594C46.0409 24.9767 45.3735 25.168 44.5895 25.168C43.5629 25.168 42.7509 24.86 42.1535 24.244C41.5562 23.628 41.2575 22.7927 41.2575 21.738C41.2575 20.6927 41.5515 19.862 42.1395 19.246C42.7369 18.6207 43.5349 18.308 44.5335 18.308C45.4669 18.308 46.2182 18.5973 46.7875 19.176C47.3662 19.7453 47.6555 20.4873 47.6555 21.402ZM42.7695 21.08H46.1575C46.1482 20.576 45.9989 20.1887 45.7095 19.918C45.4295 19.6473 45.0282 19.512 44.5055 19.512C43.9735 19.512 43.5535 19.6567 43.2455 19.946C42.9375 20.2353 42.7789 20.6133 42.7695 21.08ZM53.7503 17.524C53.3023 17.888 52.705 18.07 51.9583 18.07C51.2117 18.07 50.6097 17.888 50.1523 17.524C49.7043 17.1507 49.457 16.6467 49.4103 16.012H50.6983C50.7357 16.6467 51.1557 16.964 51.9583 16.964C52.761 16.964 53.181 16.6467 53.2183 16.012H54.5063C54.4597 16.6467 54.2077 17.1507 53.7503 17.524ZM53.4703 20.8L50.5723 24.454V25H49.0463V18.476H50.5723V22.746L53.4703 19.064V18.476H54.9963V25H53.4703V20.8ZM61.5964 18.476V19.89H59.7064V25H58.1804V19.89H56.3184V18.476H61.5964ZM67.3297 20.8L64.4317 24.454V25H62.9057V18.476H64.4317V22.746L67.3297 19.064V18.476H68.8557V25H67.3297V20.8ZM79.9497 23.558H80.7057V26.68H79.1797V25H75.0637V26.68H73.4537V23.558H74.1257C74.4897 23.3247 74.6717 22.8393 74.6717 22.102V18.476H79.9497V23.558ZM75.7497 23.74H78.4237V19.736H76.1977V22.032C76.1977 22.6947 76.0484 23.264 75.7497 23.74ZM87.2817 24.202C86.6657 24.846 85.8303 25.168 84.7757 25.168C83.721 25.168 82.881 24.846 82.2557 24.202C81.6397 23.5487 81.3317 22.7273 81.3317 21.738C81.3317 20.7487 81.6397 19.932 82.2557 19.288C82.881 18.6347 83.721 18.308 84.7757 18.308C85.8303 18.308 86.6657 18.6347 87.2817 19.288C87.907 19.932 88.2197 20.7487 88.2197 21.738C88.2197 22.7273 87.907 23.5487 87.2817 24.202ZM83.3617 23.236C83.707 23.6187 84.1783 23.81 84.7757 23.81C85.373 23.81 85.8397 23.6187 86.1757 23.236C86.521 22.8533 86.6937 22.354 86.6937 21.738C86.6937 21.122 86.521 20.6227 86.1757 20.24C85.8397 19.8573 85.373 19.666 84.7757 19.666C84.1783 19.666 83.707 19.8573 83.3617 20.24C83.0257 20.6227 82.8577 21.122 82.8577 21.738C82.8577 22.354 83.0257 22.8533 83.3617 23.236ZM98.475 24.202C97.859 24.846 97.0236 25.168 95.969 25.168C94.9143 25.168 94.0743 24.846 93.449 24.202C92.833 23.5487 92.525 22.7273 92.525 21.738C92.525 20.7487 92.833 19.932 93.449 19.288C94.0743 18.6347 94.9143 18.308 95.969 18.308C97.0236 18.308 97.859 18.6347 98.475 19.288C99.1003 19.932 99.413 20.7487 99.413 21.738C99.413 22.7273 99.1003 23.5487 98.475 24.202ZM94.555 23.236C94.9003 23.6187 95.3716 23.81 95.969 23.81C96.5663 23.81 97.033 23.6187 97.369 23.236C97.7143 22.8533 97.887 22.354 97.887 21.738C97.887 21.122 97.7143 20.6227 97.369 20.24C97.033 19.8573 96.5663 19.666 95.969 19.666C95.3716 19.666 94.9003 19.8573 94.555 20.24C94.219 20.6227 94.051 21.122 94.051 21.738C94.051 22.354 94.219 22.8533 94.555 23.236ZM108.391 21.738C108.391 22.634 108.088 23.418 107.481 24.09C106.874 24.762 106.109 25.1167 105.185 25.154V27.94H103.645V25.154C102.721 25.1167 101.956 24.762 101.349 24.09C100.742 23.418 100.439 22.634 100.439 21.738C100.439 20.8513 100.742 20.072 101.349 19.4C101.956 18.7187 102.721 18.3593 103.645 18.322V15.2H105.185V18.322C106.109 18.3593 106.874 18.7187 107.481 19.4C108.088 20.072 108.391 20.8513 108.391 21.738ZM101.965 21.738C101.965 22.3167 102.124 22.816 102.441 23.236C102.758 23.656 103.192 23.8707 103.743 23.88V19.596C103.192 19.6053 102.758 19.82 102.441 20.24C102.124 20.6507 101.965 21.15 101.965 21.738ZM105.087 23.88C105.638 23.8707 106.072 23.656 106.389 23.236C106.706 22.816 106.865 22.3167 106.865 21.738C106.865 21.15 106.706 20.6507 106.389 20.24C106.072 19.82 105.638 19.6053 105.087 19.596V23.88ZM115.369 24.202C114.753 24.846 113.918 25.168 112.863 25.168C111.809 25.168 110.969 24.846 110.343 24.202C109.727 23.5487 109.419 22.7273 109.419 21.738C109.419 20.7487 109.727 19.932 110.343 19.288C110.969 18.6347 111.809 18.308 112.863 18.308C113.918 18.308 114.753 18.6347 115.369 19.288C115.995 19.932 116.307 20.7487 116.307 21.738C116.307 22.7273 115.995 23.5487 115.369 24.202ZM111.449 23.236C111.795 23.6187 112.266 23.81 112.863 23.81C113.461 23.81 113.927 23.6187 114.263 23.236C114.609 22.8533 114.781 22.354 114.781 21.738C114.781 21.122 114.609 20.6227 114.263 20.24C113.927 19.8573 113.461 19.666 112.863 19.666C112.266 19.666 111.795 19.8573 111.449 20.24C111.113 20.6227 110.945 21.122 110.945 21.738C110.945 22.354 111.113 22.8533 111.449 23.236ZM121.397 18.308C122.33 18.308 123.081 18.6253 123.651 19.26C124.22 19.8853 124.505 20.7113 124.505 21.738C124.505 22.746 124.206 23.572 123.609 24.216C123.011 24.8507 122.241 25.168 121.299 25.168C120.869 25.168 120.463 25.0747 120.081 24.888C119.698 24.692 119.409 24.4353 119.213 24.118V27.94H117.687V18.476H119.213V19.358C119.409 19.0407 119.707 18.7887 120.109 18.602C120.51 18.406 120.939 18.308 121.397 18.308ZM121.075 23.81C121.635 23.81 122.092 23.6187 122.447 23.236C122.801 22.844 122.979 22.3447 122.979 21.738C122.979 21.1313 122.801 20.6367 122.447 20.254C122.092 19.862 121.635 19.666 121.075 19.666C120.496 19.666 120.029 19.8573 119.675 20.24C119.32 20.6227 119.143 21.122 119.143 21.738C119.143 22.354 119.32 22.8533 119.675 23.236C120.029 23.6187 120.496 23.81 121.075 23.81ZM125.888 25V18.476H128.17L129.962 22.942L131.754 18.476H134.036V25H132.58V19.974L130.48 25H129.444L127.344 19.974V25H125.888ZM135.347 23.628H135.599C136.281 23.628 136.621 23.1567 136.621 22.214V18.476H141.731V25H140.205V19.89H138.147V22.144C138.147 23.0493 137.951 23.7633 137.559 24.286C137.167 24.8087 136.617 25.07 135.907 25.07H135.347V23.628ZM149.511 21.402C149.511 21.57 149.497 21.85 149.469 22.242H144.625C144.643 22.7553 144.811 23.152 145.129 23.432C145.446 23.7027 145.885 23.838 146.445 23.838C147.163 23.838 147.649 23.5907 147.901 23.096H149.441C149.338 23.7027 149.007 24.202 148.447 24.594C147.896 24.9767 147.229 25.168 146.445 25.168C145.418 25.168 144.606 24.86 144.009 24.244C143.411 23.628 143.113 22.7927 143.113 21.738C143.113 20.6927 143.407 19.862 143.995 19.246C144.592 18.6207 145.39 18.308 146.389 18.308C147.322 18.308 148.073 18.5973 148.643 19.176C149.221 19.7453 149.511 20.4873 149.511 21.402ZM144.625 21.08H148.013C148.003 20.576 147.854 20.1887 147.565 19.918C147.285 19.6473 146.883 19.512 146.361 19.512C145.829 19.512 145.409 19.6567 145.101 19.946C144.793 20.2353 144.634 20.6133 144.625 21.08ZM150.902 25V18.476H152.428V21.052H155.41V18.476H156.936V25H155.41V22.326H152.428V25H150.902ZM158.816 25V18.476H160.342V21.052H163.324V18.476H164.85V25H163.324V22.326H160.342V25H158.816ZM166.422 25L167.836 22.83C167.397 22.6807 167.042 22.41 166.772 22.018C166.51 21.626 166.38 21.1967 166.38 20.73C166.38 20.0953 166.594 19.5633 167.024 19.134C167.453 18.6953 168.008 18.476 168.69 18.476H172.204V25H170.706V22.998H169.39L168.186 25H166.422ZM169.026 21.738H170.706V19.708H169.026C168.699 19.708 168.433 19.8107 168.228 20.016C168.032 20.212 167.934 20.45 167.934 20.73C167.934 21.01 168.032 21.248 168.228 21.444C168.433 21.64 168.699 21.738 169.026 21.738Z" fill="white" style="fill:white;fill-opacity:1;"/>
</svg>
