<svg width="102" height="40" viewBox="0 0 102 40" fill="none" xmlns="http://www.w3.org/2000/svg">
<rect x="0.5" y="0.5" width="101" height="39" rx="19.5" stroke="#543C52" style="stroke:#543C52;stroke:color(display-p3 0.3294 0.2353 0.3216);stroke-opacity:1;"/>
<path d="M21.586 25.238C20.018 25.238 18.7767 24.762 17.862 23.81C16.9473 22.858 16.49 21.6213 16.49 20.1C16.49 18.5787 16.9473 17.342 17.862 16.39C18.7767 15.438 20.018 14.962 21.586 14.962C22.902 14.962 23.9847 15.298 24.834 15.97C25.6833 16.6327 26.1827 17.496 26.332 18.56H24.568C24.4093 17.888 24.0733 17.3607 23.56 16.978C23.056 16.5953 22.4027 16.404 21.6 16.404C20.5267 16.404 19.6867 16.74 19.08 17.412C18.4827 18.0747 18.184 18.9707 18.184 20.1C18.184 21.2293 18.4827 22.13 19.08 22.802C19.6867 23.4647 20.5267 23.796 21.6 23.796C22.4027 23.796 23.056 23.6047 23.56 23.222C24.0733 22.8393 24.4093 22.312 24.568 21.64H26.332C26.1827 22.704 25.6833 23.572 24.834 24.244C23.9847 24.9067 22.902 25.238 21.586 25.238ZM33.4798 25H31.6038L29.1818 22.018V25H27.6558V18.476H29.1818V21.206H29.3218C29.6018 21.206 29.8491 21.0613 30.0638 20.772L31.2118 19.204C31.4451 18.8867 31.6598 18.6767 31.8558 18.574C32.0611 18.462 32.3364 18.406 32.6818 18.406H33.1998V19.778H32.9758C32.6771 19.778 32.4344 19.9087 32.2478 20.17L31.7158 20.912C31.5291 21.1827 31.3658 21.36 31.2258 21.444C31.0858 21.5187 30.9131 21.556 30.7078 21.556H30.6098L33.4798 25ZM36.8913 25.168C35.8739 25.168 35.0853 24.846 34.5253 24.202C33.9653 23.558 33.6853 22.7367 33.6853 21.738C33.6853 20.7487 33.9793 19.932 34.5673 19.288C35.1553 18.6347 35.9439 18.308 36.9333 18.308C37.3719 18.308 37.7733 18.4013 38.1373 18.588C38.5013 18.7747 38.7813 19.0313 38.9773 19.358V18.476H40.5033V25H38.9773V24.118C38.7906 24.4353 38.4966 24.692 38.0953 24.888C37.7033 25.0747 37.3019 25.168 36.8913 25.168ZM37.1153 23.81C37.7406 23.81 38.2166 23.614 38.5433 23.222C38.8793 22.83 39.0473 22.3353 39.0473 21.738C39.0473 21.1407 38.8793 20.646 38.5433 20.254C38.2166 19.862 37.7406 19.666 37.1153 19.666C36.5273 19.666 36.0606 19.862 35.7153 20.254C35.3793 20.6367 35.2113 21.1313 35.2113 21.738C35.2113 22.3447 35.3793 22.844 35.7153 23.236C36.0606 23.6187 36.5273 23.81 37.1153 23.81ZM45.1344 25.168C44.1358 25.168 43.3424 24.8553 42.7544 24.23C42.1758 23.5953 41.8864 22.7647 41.8864 21.738C41.8864 20.7113 42.1758 19.8853 42.7544 19.26C43.3424 18.6253 44.1358 18.308 45.1344 18.308C46.0304 18.308 46.7491 18.5367 47.2904 18.994C47.8411 19.442 48.1538 20.044 48.2284 20.8H46.7024C46.5344 20.044 46.0118 19.666 45.1344 19.666C44.5931 19.666 44.1684 19.848 43.8604 20.212C43.5618 20.5667 43.4124 21.0753 43.4124 21.738C43.4124 22.4007 43.5618 22.914 43.8604 23.278C44.1684 23.6327 44.5931 23.81 45.1344 23.81C46.0024 23.81 46.5251 23.4553 46.7024 22.746H48.2284C48.1538 23.4833 47.8411 24.0713 47.2904 24.51C46.7491 24.9487 46.0304 25.168 45.1344 25.168ZM54.0586 18.476H55.5846V25.028C55.5846 26.0267 55.2999 26.8013 54.7306 27.352C54.1799 27.856 53.4426 28.108 52.5186 28.108C51.5572 28.108 50.8106 27.884 50.2786 27.436C49.8119 27.0253 49.5692 26.4607 49.5506 25.742H51.0906C51.1279 26.1153 51.2492 26.3907 51.4546 26.568C51.6692 26.7547 52.0146 26.848 52.4906 26.848C52.9759 26.848 53.3586 26.6893 53.6386 26.372C53.9186 26.064 54.0586 25.5787 54.0586 24.916V24.09C53.6386 24.8087 52.9386 25.168 51.9586 25.168C51.1839 25.168 50.5866 24.9207 50.1666 24.426C49.7559 23.922 49.5506 23.264 49.5506 22.452V18.476H51.0766V22.13C51.0766 23.2593 51.5479 23.824 52.4906 23.824C53.0039 23.824 53.3912 23.642 53.6526 23.278C53.9232 22.914 54.0586 22.438 54.0586 21.85V18.476ZM57.4663 18.476H60.4623C60.9009 18.476 61.2696 18.532 61.5683 18.644C61.8763 18.756 62.1003 18.91 62.2403 19.106C62.3803 19.2927 62.4783 19.4747 62.5343 19.652C62.5903 19.82 62.6183 20.002 62.6183 20.198C62.6183 20.5807 62.4689 20.9073 62.1703 21.178C61.8716 21.4487 61.5169 21.598 61.1063 21.626C61.5543 21.6447 61.9369 21.794 62.2543 22.074C62.5809 22.3447 62.7443 22.718 62.7443 23.194C62.7443 23.3807 62.7069 23.5673 62.6323 23.754C62.5669 23.9407 62.4549 24.1367 62.2963 24.342C62.1376 24.538 61.8903 24.6967 61.5543 24.818C61.2276 24.9393 60.8309 25 60.3643 25H57.4663V18.476ZM60.3363 21.15C60.5603 21.15 60.7423 21.0753 60.8823 20.926C61.0223 20.7673 61.0923 20.576 61.0923 20.352C61.0923 20.1187 61.0223 19.9273 60.8823 19.778C60.7423 19.6193 60.5603 19.54 60.3363 19.54H58.9503V21.15H60.3363ZM58.9503 22.214V23.936H60.3923C60.6256 23.936 60.8216 23.852 60.9803 23.684C61.1389 23.516 61.2183 23.3153 61.2183 23.082C61.2183 22.8487 61.1389 22.648 60.9803 22.48C60.8216 22.3027 60.6256 22.214 60.3923 22.214H58.9503ZM66.9205 25.168C65.9032 25.168 65.1145 24.846 64.5545 24.202C63.9945 23.558 63.7145 22.7367 63.7145 21.738C63.7145 20.7487 64.0085 19.932 64.5965 19.288C65.1845 18.6347 65.9732 18.308 66.9625 18.308C67.4012 18.308 67.8025 18.4013 68.1665 18.588C68.5305 18.7747 68.8105 19.0313 69.0065 19.358V18.476H70.5325V25H69.0065V24.118C68.8198 24.4353 68.5258 24.692 68.1245 24.888C67.7325 25.0747 67.3312 25.168 66.9205 25.168ZM67.1445 23.81C67.7698 23.81 68.2458 23.614 68.5725 23.222C68.9085 22.83 69.0765 22.3353 69.0765 21.738C69.0765 21.1407 68.9085 20.646 68.5725 20.254C68.2458 19.862 67.7698 19.666 67.1445 19.666C66.5565 19.666 66.0898 19.862 65.7445 20.254C65.4085 20.6367 65.2405 21.1313 65.2405 21.738C65.2405 22.3447 65.4085 22.844 65.7445 23.236C66.0898 23.6187 66.5565 23.81 67.1445 23.81ZM77.1237 18.476V19.89H75.2337V25H73.7077V19.89H71.8457V18.476H77.1237ZM82.857 20.8L79.959 24.454V25H78.433V18.476H79.959V22.746L82.857 19.064V18.476H84.383V25H82.857V20.8Z" fill="#543C52" style="fill:#543C52;fill:color(display-p3 0.3294 0.2353 0.3216);fill-opacity:1;"/>
</svg>
