<svg width="134" height="40" viewBox="0 0 134 40" fill="none" xmlns="http://www.w3.org/2000/svg">
<rect width="134" height="40" rx="20" fill="#543C52" style="fill:#543C52;fill:color(display-p3 0.3294 0.2353 0.3216);fill-opacity:1;"/>
<path d="M21.586 25.238C20.018 25.238 18.7767 24.762 17.862 23.81C16.9473 22.858 16.49 21.6213 16.49 20.1C16.49 18.5787 16.9473 17.342 17.862 16.39C18.7767 15.438 20.018 14.962 21.586 14.962C22.902 14.962 23.9847 15.298 24.834 15.97C25.6833 16.6327 26.1827 17.496 26.332 18.56H24.568C24.4093 17.888 24.0733 17.3607 23.56 16.978C23.056 16.5953 22.4027 16.404 21.6 16.404C20.5267 16.404 19.6867 16.74 19.08 17.412C18.4827 18.0747 18.184 18.9707 18.184 20.1C18.184 21.2293 18.4827 22.13 19.08 22.802C19.6867 23.4647 20.5267 23.796 21.6 23.796C22.4027 23.796 23.056 23.6047 23.56 23.222C24.0733 22.8393 24.4093 22.312 24.568 21.64H26.332C26.1827 22.704 25.6833 23.572 24.834 24.244C23.9847 24.9067 22.902 25.238 21.586 25.238ZM32.3738 18.476V19.89H30.4838V25H28.9578V19.89H27.0958V18.476H32.3738ZM33.6831 18.476H36.6791C37.1178 18.476 37.4864 18.532 37.7851 18.644C38.0931 18.756 38.3171 18.91 38.4571 19.106C38.5971 19.2927 38.6951 19.4747 38.7511 19.652C38.8071 19.82 38.8351 20.002 38.8351 20.198C38.8351 20.5807 38.6858 20.9073 38.3871 21.178C38.0884 21.4487 37.7338 21.598 37.3231 21.626C37.7711 21.6447 38.1538 21.794 38.4711 22.074C38.7978 22.3447 38.9611 22.718 38.9611 23.194C38.9611 23.3807 38.9238 23.5673 38.8491 23.754C38.7838 23.9407 38.6718 24.1367 38.5131 24.342C38.3544 24.538 38.1071 24.6967 37.7711 24.818C37.4444 24.9393 37.0478 25 36.5811 25H33.6831V18.476ZM36.5531 21.15C36.7771 21.15 36.9591 21.0753 37.0991 20.926C37.2391 20.7673 37.3091 20.576 37.3091 20.352C37.3091 20.1187 37.2391 19.9273 37.0991 19.778C36.9591 19.6193 36.7771 19.54 36.5531 19.54H35.1671V21.15H36.5531ZM35.1671 22.214V23.936H36.6091C36.8424 23.936 37.0384 23.852 37.1971 23.684C37.3558 23.516 37.4351 23.3153 37.4351 23.082C37.4351 22.8487 37.3558 22.648 37.1971 22.48C37.0384 22.3027 36.8424 22.214 36.6091 22.214H35.1671ZM45.8814 24.202C45.2654 24.846 44.43 25.168 43.3754 25.168C42.3207 25.168 41.4807 24.846 40.8554 24.202C40.2394 23.5487 39.9314 22.7273 39.9314 21.738C39.9314 20.7487 40.2394 19.932 40.8554 19.288C41.4807 18.6347 42.3207 18.308 43.3754 18.308C44.43 18.308 45.2654 18.6347 45.8814 19.288C46.5067 19.932 46.8194 20.7487 46.8194 21.738C46.8194 22.7273 46.5067 23.5487 45.8814 24.202ZM41.9614 23.236C42.3067 23.6187 42.778 23.81 43.3754 23.81C43.9727 23.81 44.4394 23.6187 44.7754 23.236C45.1207 22.8533 45.2934 22.354 45.2934 21.738C45.2934 21.122 45.1207 20.6227 44.7754 20.24C44.4394 19.8573 43.9727 19.666 43.3754 19.666C42.778 19.666 42.3067 19.8573 41.9614 20.24C41.6254 20.6227 41.4574 21.122 41.4574 21.738C41.4574 22.354 41.6254 22.8533 41.9614 23.236ZM51.9087 18.308C52.842 18.308 53.5934 18.6253 54.1627 19.26C54.732 19.8853 55.0167 20.7113 55.0167 21.738C55.0167 22.746 54.718 23.572 54.1207 24.216C53.5234 24.8507 52.7534 25.168 51.8107 25.168C51.3814 25.168 50.9754 25.0747 50.5927 24.888C50.21 24.692 49.9207 24.4353 49.7247 24.118V27.94H48.1987V18.476H49.7247V19.358C49.9207 19.0407 50.2194 18.7887 50.6207 18.602C51.022 18.406 51.4514 18.308 51.9087 18.308ZM51.5867 23.81C52.1467 23.81 52.604 23.6187 52.9587 23.236C53.3134 22.844 53.4907 22.3447 53.4907 21.738C53.4907 21.1313 53.3134 20.6367 52.9587 20.254C52.604 19.862 52.1467 19.666 51.5867 19.666C51.008 19.666 50.5414 19.8573 50.1867 20.24C49.832 20.6227 49.6547 21.122 49.6547 21.738C49.6547 22.354 49.832 22.8533 50.1867 23.236C50.5414 23.6187 51.008 23.81 51.5867 23.81ZM60.8238 20.8L57.9258 24.454V25H56.3998V18.476H57.9258V22.746L60.8238 19.064V18.476H62.3498V25H60.8238V20.8ZM68.9499 18.476V19.89H67.0599V25H65.5339V19.89H63.6719V18.476H68.9499ZM74.6832 20.8L71.7852 24.454V25H70.2592V18.476H71.7852V22.746L74.6832 19.064V18.476H76.2092V25H74.6832V20.8ZM85.5112 18.476V19.89H83.0332V25H81.5072V18.476H85.5112ZM90.3969 18.308C91.3302 18.308 92.0815 18.6253 92.6509 19.26C93.2202 19.8853 93.5049 20.7113 93.5049 21.738C93.5049 22.746 93.2062 23.572 92.6089 24.216C92.0115 24.8507 91.2415 25.168 90.2989 25.168C89.8695 25.168 89.4635 25.0747 89.0809 24.888C88.6982 24.692 88.4089 24.4353 88.2129 24.118V27.94H86.6869V18.476H88.2129V19.358C88.4089 19.0407 88.7075 18.7887 89.1089 18.602C89.5102 18.406 89.9395 18.308 90.3969 18.308ZM90.0749 23.81C90.6349 23.81 91.0922 23.6187 91.4469 23.236C91.8015 22.844 91.9789 22.3447 91.9789 21.738C91.9789 21.1313 91.8015 20.6367 91.4469 20.254C91.0922 19.862 90.6349 19.666 90.0749 19.666C89.4962 19.666 89.0295 19.8573 88.6749 20.24C88.3202 20.6227 88.1429 21.122 88.1429 21.738C88.1429 22.354 88.3202 22.8533 88.6749 23.236C89.0295 23.6187 89.4962 23.81 90.0749 23.81ZM99.326 18.476H100.852V25.028C100.852 26.0267 100.567 26.8013 99.998 27.352C99.4474 27.856 98.71 28.108 97.786 28.108C96.8247 28.108 96.078 27.884 95.546 27.436C95.0794 27.0253 94.8367 26.4607 94.818 25.742H96.358C96.3954 26.1153 96.5167 26.3907 96.722 26.568C96.9367 26.7547 97.282 26.848 97.758 26.848C98.2434 26.848 98.626 26.6893 98.906 26.372C99.186 26.064 99.326 25.5787 99.326 24.916V24.09C98.906 24.8087 98.206 25.168 97.226 25.168C96.4514 25.168 95.854 24.9207 95.434 24.426C95.0234 23.922 94.818 23.264 94.818 22.452V18.476H96.344V22.13C96.344 23.2593 96.8154 23.824 97.758 23.824C98.2714 23.824 98.6587 23.642 98.92 23.278C99.1907 22.914 99.326 22.438 99.326 21.85V18.476ZM108.628 25H107.102V19.75H104.26V25H102.734V18.476H108.628V25ZM114.935 18.476H116.461V25.028C116.461 26.0267 116.177 26.8013 115.607 27.352C115.057 27.856 114.319 28.108 113.395 28.108C112.434 28.108 111.687 27.884 111.155 27.436C110.689 27.0253 110.446 26.4607 110.427 25.742H111.967C112.005 26.1153 112.126 26.3907 112.331 26.568C112.546 26.7547 112.891 26.848 113.367 26.848C113.853 26.848 114.235 26.6893 114.515 26.372C114.795 26.064 114.935 25.5787 114.935 24.916V24.09C114.515 24.8087 113.815 25.168 112.835 25.168C112.061 25.168 111.463 24.9207 111.043 24.426C110.633 23.922 110.427 23.264 110.427 22.452V18.476H111.953V22.13C111.953 23.2593 112.425 23.824 113.367 23.824C113.881 23.824 114.268 23.642 114.529 23.278C114.8 22.914 114.935 22.438 114.935 21.85V18.476Z" fill="white" style="fill:white;fill-opacity:1;"/>
</svg>
