<svg width="94" height="40" viewBox="0 0 94 40" fill="none" xmlns="http://www.w3.org/2000/svg">
<rect x="0.5" y="0.5" width="93" height="39" rx="19.5" stroke="#543C52" style="stroke:#543C52;stroke:color(display-p3 0.3294 0.2353 0.3216);stroke-opacity:1;"/>
<path d="M21.614 19.96C22.1833 20.016 22.6593 20.2493 23.042 20.66C23.434 21.0613 23.63 21.598 23.63 22.27C23.63 23.1193 23.35 23.7867 22.79 24.272C22.2393 24.7573 21.4787 25 20.508 25H17.05V15.2H20.326C21.306 15.2 22.076 15.4287 22.636 15.886C23.196 16.334 23.476 16.9547 23.476 17.748C23.476 18.98 22.8553 19.7173 21.614 19.96ZM20.256 16.614H18.66V19.302H20.256C20.76 19.302 21.152 19.1853 21.432 18.952C21.7213 18.7093 21.866 18.378 21.866 17.958C21.866 17.5287 21.726 17.1973 21.446 16.964C21.166 16.7307 20.7693 16.614 20.256 16.614ZM20.48 23.586C20.9653 23.586 21.3433 23.4553 21.614 23.194C21.8847 22.9327 22.02 22.5687 22.02 22.102C22.02 21.6913 21.88 21.36 21.6 21.108C21.32 20.8467 20.9513 20.716 20.494 20.716H18.66V23.586H20.48ZM29.5095 20.8L26.6115 24.454V25H25.0855V18.476H26.6115V22.746L29.5095 19.064V18.476H31.0355V25H29.5095V20.8ZM38.7135 23.558H39.4695V26.68H37.9435V25H33.8275V26.68H32.2175V23.558H32.8895C33.2535 23.3247 33.4355 22.8393 33.4355 22.102V18.476H38.7135V23.558ZM34.5135 23.74H37.1875V19.736H34.9615V22.032C34.9615 22.6947 34.8121 23.264 34.5135 23.74ZM43.5065 25.168C42.4892 25.168 41.7005 24.846 41.1405 24.202C40.5805 23.558 40.3005 22.7367 40.3005 21.738C40.3005 20.7487 40.5945 19.932 41.1825 19.288C41.7705 18.6347 42.5592 18.308 43.5485 18.308C43.9872 18.308 44.3885 18.4013 44.7525 18.588C45.1165 18.7747 45.3965 19.0313 45.5925 19.358V18.476H47.1185V25H45.5925V24.118C45.4058 24.4353 45.1118 24.692 44.7105 24.888C44.3185 25.0747 43.9172 25.168 43.5065 25.168ZM43.7305 23.81C44.3558 23.81 44.8318 23.614 45.1585 23.222C45.4945 22.83 45.6625 22.3353 45.6625 21.738C45.6625 21.1407 45.4945 20.646 45.1585 20.254C44.8318 19.862 44.3558 19.666 43.7305 19.666C43.1425 19.666 42.6758 19.862 42.3305 20.254C41.9945 20.6367 41.8265 21.1313 41.8265 21.738C41.8265 22.3447 41.9945 22.844 42.3305 23.236C42.6758 23.6187 43.1425 23.81 43.7305 23.81ZM48.4317 23.628H48.6837C49.365 23.628 49.7057 23.1567 49.7057 22.214V18.476H54.8157V25H53.2897V19.89H51.2317V22.144C51.2317 23.0493 51.0357 23.7633 50.6437 24.286C50.2517 24.8087 49.701 25.07 48.9917 25.07H48.4317V23.628ZM61.111 20.8L58.213 24.454V25H56.687V18.476H58.213V22.746L61.111 19.064V18.476H62.637V25H61.111V20.8ZM69.237 18.476V19.89H67.347V25H65.821V19.89H63.959V18.476H69.237ZM74.9703 20.8L72.0723 24.454V25H70.5463V18.476H72.0723V22.746L74.9703 19.064V18.476H76.4963V25H74.9703V20.8Z" fill="#543C52" style="fill:#543C52;fill:color(display-p3 0.3294 0.2353 0.3216);fill-opacity:1;"/>
</svg>
