<svg width="53" height="14" viewBox="0 0 53 14" fill="none" xmlns="http://www.w3.org/2000/svg">
<path d="M8.7993 9.55195H9.6633V13.12H7.9193V11.2H1.8393V13.12H-0.000703484V9.55195H0.623297C0.985963 9.55195 1.25796 9.34928 1.4393 8.94395C1.6313 8.52795 1.7273 7.80795 1.7273 6.78395V-4.95911e-05H8.7993V9.55195ZM3.0073 9.55195H6.9433V1.64795H3.6153V6.75195C3.6153 7.89328 3.41263 8.82662 3.0073 9.55195ZM17.348 10.288C16.644 11.024 15.6894 11.392 14.484 11.392C13.2787 11.392 12.3187 11.024 11.604 10.288C10.9 9.54128 10.548 8.60262 10.548 7.47195C10.548 6.34128 10.9 5.40795 11.604 4.67195C12.3187 3.92528 13.2787 3.55195 14.484 3.55195C15.6894 3.55195 16.644 3.92528 17.348 4.67195C18.0627 5.40795 18.42 6.34128 18.42 7.47195C18.42 8.60262 18.0627 9.54128 17.348 10.288ZM12.868 9.18395C13.2627 9.62128 13.8014 9.83995 14.484 9.83995C15.1667 9.83995 15.7 9.62128 16.084 9.18395C16.4787 8.74662 16.676 8.17595 16.676 7.47195C16.676 6.76795 16.4787 6.19728 16.084 5.75995C15.7 5.32262 15.1667 5.10395 14.484 5.10395C13.8014 5.10395 13.2627 5.32262 12.868 5.75995C12.484 6.19728 12.292 6.76795 12.292 7.47195C12.292 8.17595 12.484 8.74662 12.868 9.18395ZM26.6684 11.2H24.9244V5.19995H21.6764V11.2H19.9324V3.74395H26.6684V11.2ZM33.7972 6.39995L30.4852 10.576V11.2H28.7412V3.74395H30.4852V8.62395L33.7972 4.41595V3.74395H35.5412V11.2H33.7972V6.39995ZM40.78 11.392C39.6387 11.392 38.732 11.0346 38.06 10.32C37.3987 9.59462 37.068 8.64528 37.068 7.47195C37.068 6.29862 37.3987 5.35462 38.06 4.63995C38.732 3.91462 39.6387 3.55195 40.78 3.55195C41.804 3.55195 42.6254 3.81328 43.244 4.33595C43.8734 4.84795 44.2307 5.53595 44.316 6.39995H42.572C42.38 5.53595 41.7827 5.10395 40.78 5.10395C40.1614 5.10395 39.676 5.31195 39.324 5.72795C38.9827 6.13328 38.812 6.71462 38.812 7.47195C38.812 8.22928 38.9827 8.81595 39.324 9.23195C39.676 9.63728 40.1614 9.83995 40.78 9.83995C41.772 9.83995 42.3694 9.43462 42.572 8.62395H44.316C44.2307 9.46662 43.8734 10.1386 43.244 10.64C42.6254 11.1413 41.804 11.392 40.78 11.392ZM50.899 6.39995L47.587 10.576V11.2H45.843V3.74395H47.587V8.62395L50.899 4.41595V3.74395H52.643V11.2H50.899V6.39995Z" fill="#81818D" style="fill:#81818D;fill:color(display-p3 0.5059 0.5059 0.5529);fill-opacity:1;"/>
</svg>
