<svg width="39" height="15" viewBox="0 0 39 15" fill="none" xmlns="http://www.w3.org/2000/svg">
<path d="M8.79938 9.55195H9.66337V13.12H7.91938V11.2H1.83937V13.12H-0.000625283V9.55195H0.623375C0.986041 9.55195 1.25804 9.34928 1.43937 8.94395C1.63137 8.52795 1.72737 7.80795 1.72737 6.78395V-4.95911e-05H8.79938V9.55195ZM3.00737 9.55195H6.94338V1.64795H3.61537V6.75195C3.61537 7.89328 3.41271 8.82662 3.00737 9.55195ZM15.3481 3.55195C16.4148 3.55195 17.2735 3.91462 17.9241 4.63995C18.5748 5.35462 18.9001 6.29862 18.9001 7.47195C18.9001 8.62395 18.5588 9.56795 17.8761 10.304C17.1935 11.0293 16.3135 11.392 15.2361 11.392C14.7455 11.392 14.2815 11.2853 13.8441 11.072C13.4068 10.848 13.0761 10.5546 12.8521 10.192V14.56H11.1081V3.74395H12.8521V4.75195C13.0761 4.38928 13.4175 4.10128 13.8761 3.88795C14.3348 3.66395 14.8255 3.55195 15.3481 3.55195ZM14.9801 9.83995C15.6201 9.83995 16.1428 9.62128 16.5481 9.18395C16.9535 8.73595 17.1561 8.16528 17.1561 7.47195C17.1561 6.77862 16.9535 6.21328 16.5481 5.77595C16.1428 5.32795 15.6201 5.10395 14.9801 5.10395C14.3188 5.10395 13.7855 5.32262 13.3801 5.75995C12.9748 6.19728 12.7721 6.76795 12.7721 7.47195C12.7721 8.17595 12.9748 8.74662 13.3801 9.18395C13.7855 9.62128 14.3188 9.83995 14.9801 9.83995ZM25.4889 3.74395H27.2329V11.232C27.2329 12.3733 26.9075 13.2586 26.2569 13.888C25.6275 14.464 24.7849 14.752 23.7289 14.752C22.6302 14.752 21.7769 14.496 21.1689 13.984C20.6355 13.5146 20.3582 12.8693 20.3369 12.048H22.0969C22.1395 12.4746 22.2782 12.7893 22.5129 12.992C22.7582 13.2053 23.1529 13.312 23.6969 13.312C24.2515 13.312 24.6889 13.1306 25.0089 12.768C25.3289 12.416 25.4889 11.8613 25.4889 11.104V10.16C25.0089 10.9813 24.2089 11.392 23.0889 11.392C22.2035 11.392 21.5209 11.1093 21.0409 10.544C20.5715 9.96795 20.3369 9.21595 20.3369 8.28795V3.74395H22.0809V7.91995C22.0809 9.21062 22.6195 9.85595 23.6969 9.85595C24.2835 9.85595 24.7262 9.64795 25.0249 9.23195C25.3342 8.81595 25.4889 8.27195 25.4889 7.59995V3.74395ZM30.5674 8.89595C30.5674 9.22662 30.7007 9.48795 30.9674 9.67995C31.2447 9.87195 31.6394 9.96795 32.1514 9.96795C33.0687 9.96795 33.5274 9.63728 33.5274 8.97595C33.5274 8.71995 33.4207 8.51195 33.2074 8.35195C33.0047 8.18128 32.7114 8.09595 32.3274 8.09595H31.2234V6.81595H32.2314C32.562 6.81595 32.8287 6.73595 33.0314 6.57595C33.2447 6.40528 33.3514 6.17062 33.3514 5.87195C33.3514 5.60528 33.2287 5.38128 32.9834 5.19995C32.7487 5.01862 32.4394 4.92795 32.0554 4.92795C31.586 4.92795 31.2394 5.02928 31.0154 5.23195C30.7914 5.42395 30.6794 5.67995 30.6794 5.99995H28.9514C28.9514 5.26395 29.234 4.67195 29.7994 4.22395C30.3647 3.77595 31.1114 3.55195 32.0394 3.55195C32.946 3.55195 33.6714 3.74395 34.2154 4.12795C34.77 4.51195 35.0474 5.00795 35.0474 5.61595C35.0474 6.11728 34.898 6.51728 34.5994 6.81595C34.3114 7.10395 33.9114 7.27995 33.3994 7.34395C33.9327 7.40795 34.37 7.59995 34.7114 7.91995C35.0527 8.22928 35.2234 8.65062 35.2234 9.18395C35.2234 9.87728 34.914 10.4213 34.2954 10.816C33.6874 11.2 32.93 11.392 32.0234 11.392C31.0314 11.392 30.2527 11.168 29.6874 10.72C29.122 10.2613 28.8394 9.65328 28.8394 8.89595H30.5674ZM38.6236 2.30395C38.3783 2.54928 38.069 2.67195 37.6956 2.67195C37.3223 2.67195 37.013 2.54928 36.7676 2.30395C36.5223 2.04795 36.3996 1.73862 36.3996 1.37595C36.3996 1.01328 36.5223 0.709284 36.7676 0.463951C37.013 0.207951 37.3223 0.0799503 37.6956 0.0799503C38.069 0.0799503 38.3783 0.207951 38.6236 0.463951C38.869 0.709284 38.9916 1.01328 38.9916 1.37595C38.9916 1.73862 38.869 2.04795 38.6236 2.30395ZM36.8156 11.2V3.74395H38.5596V11.2H36.8156Z" fill="#81818D" style="fill:#81818D;fill:color(display-p3 0.5059 0.5059 0.5529);fill-opacity:1;"/>
</svg>
