<svg width="154" height="28" viewBox="0 0 154 28" fill="none" xmlns="http://www.w3.org/2000/svg">
<circle cx="2.34996" cy="2.34996" r="2.34996" transform="matrix(-1 0 0 1 20.3066 11.6501)" stroke="#070A1C" style="stroke:#070A1C;stroke:color(display-p3 0.0275 0.0392 0.1098);stroke-opacity:1;" stroke-width="1.8"/>
<path d="M17.9565 6.16699V5.26699H17.9565L17.9565 6.16699ZM21.4819 8.46777L21.0319 9.24718L21.0319 9.2472L21.4819 8.46777ZM23.4399 13.2168L22.5399 13.2168V13.2168H23.4399ZM21.4819 19.5322L21.0319 18.7528L21.0319 18.7528L21.4819 19.5322ZM17.9565 21.833L17.9565 22.733H17.9565V21.833ZM14.4321 19.5322L14.8822 18.7528L14.8821 18.7528L14.4321 19.5322ZM11.6899 14H12.5899L12.5899 13.9999L11.6899 14ZM14.4321 8.46777L14.8821 9.2472L14.8822 9.24716L14.4321 8.46777ZM15.513 7.08081L14.6475 6.834L15.513 7.08081ZM10.9409 12.2812L10.3279 12.9402L10.9409 12.2812ZM12.8399 19.2564L12.6785 18.371L12.8399 19.2564ZM16.1436 21.6219L15.9359 22.4976L16.1436 21.6219ZM20.3994 20.9191L19.5341 20.6716L20.3994 20.9191ZM19.7684 21.6219L19.976 22.4976L19.7684 21.6219ZM23.0734 19.2565L23.2347 18.3711L23.0734 19.2565ZM24.7683 10.1303L25.5501 9.68441L24.7683 10.1303ZM10.9407 15.718L10.3279 15.0588L10.9407 15.718ZM23.0734 8.74274L22.9115 7.85743L23.0734 8.74274ZM23.9815 8.99593L23.2898 9.57172L23.9815 8.99593ZM11.9316 8.99627L11.2395 8.42104L11.9316 8.99627ZM12.8399 8.7429L12.6779 9.62821L12.8399 8.7429ZM24.7557 15.3248L24.3597 16.133L24.7557 15.3248ZM25.4008 16.4427L26.2559 16.7234L25.4008 16.4427ZM20.3994 7.0809L21.2647 6.83333L20.3994 7.0809ZM17.9565 6.16699V7.06699C18.5094 7.06699 19.0464 7.13192 19.5607 7.25385L19.7683 6.37813L19.976 5.5024C19.3272 5.34858 18.6508 5.26699 17.9565 5.26699V6.16699ZM20.3994 7.0809L19.5341 7.32847C19.7572 8.10825 20.2724 8.80862 21.0319 9.24718L21.4819 8.46777L21.932 7.68837C21.5934 7.49289 21.3648 7.18314 21.2647 6.83333L20.3994 7.0809ZM21.4819 8.46777L21.0319 9.2472C21.7258 9.6478 22.5066 9.76133 23.2353 9.62806L23.0734 8.74274L22.9115 7.85743C22.5849 7.91715 22.2404 7.86644 21.9319 7.68835L21.4819 8.46777ZM23.9815 8.99593L23.2898 9.57172C23.5504 9.88483 23.7839 10.2208 23.9865 10.5761L24.7683 10.1303L25.5501 9.68441C25.2946 9.23635 25.0007 8.81355 24.6732 8.42013L23.9815 8.99593ZM24.3584 11.3556L23.8102 10.6419C23.04 11.2335 22.54 12.1661 22.5399 13.2168L23.4399 13.2168L24.3399 13.2168C24.34 12.75 24.5601 12.3355 24.9067 12.0694L24.3584 11.3556ZM23.4399 13.2168H22.5399C22.5399 14.5004 23.2843 15.6061 24.3597 16.133L24.7557 15.3248L25.1516 14.5166C24.6686 14.2799 24.3399 13.7864 24.3399 13.2168H23.4399ZM25.4008 16.4427L24.5457 16.1619C24.2713 16.9978 23.8413 17.7641 23.2895 18.4275L23.9814 19.003L24.6732 19.5786C25.3669 18.7448 25.9093 17.7792 26.2559 16.7234L25.4008 16.4427ZM23.0734 19.2565L23.2347 18.3711C22.5058 18.2383 21.7253 18.3525 21.0319 18.7528L21.4819 19.5322L21.9319 20.3116C22.2407 20.1334 22.5856 20.0824 22.912 20.1419L23.0734 19.2565ZM21.4819 19.5322L21.0319 18.7528C20.2723 19.1914 19.7572 19.8918 19.5341 20.6716L20.3994 20.9191L21.2647 21.1667C21.3648 20.8168 21.5934 20.5071 21.9319 20.3116L21.4819 19.5322ZM19.7684 21.6219L19.5608 20.7462C19.0465 20.8681 18.5095 20.933 17.9565 20.933V21.833V22.733C18.6509 22.733 19.3272 22.6514 19.976 22.4976L19.7684 21.6219ZM17.9565 21.833L17.9566 20.933C17.403 20.933 16.8657 20.8682 16.3512 20.7462L16.1436 21.6219L15.9359 22.4976C16.5853 22.6516 17.2619 22.733 17.9565 22.733L17.9565 21.833ZM15.513 20.9192L16.3785 20.6724C16.1562 19.893 15.6425 19.1919 14.8822 18.7528L14.4321 19.5322L13.9821 20.3116C14.3198 20.5066 14.5476 20.8158 14.6475 21.166L15.513 20.9192ZM14.4321 19.5322L14.8821 18.7528C14.1887 18.3524 13.4077 18.238 12.6785 18.371L12.8399 19.2564L13.0013 20.1418C13.3279 20.0822 13.6731 20.1332 13.9821 20.3116L14.4321 19.5322ZM11.9317 19.0028L12.6239 18.4275C12.1256 17.8279 11.7272 17.1437 11.4528 16.3996L10.6084 16.711L9.76396 17.0224C10.1102 17.9612 10.6124 18.8234 11.2395 19.578L11.9317 19.0028ZM10.9407 15.718L11.5536 16.3771C12.1894 15.7859 12.5899 14.9399 12.5899 14H11.6899H10.7899C10.7899 14.4182 10.6136 14.7932 10.3279 15.0588L10.9407 15.718ZM11.6899 14L12.5899 13.9999C12.5899 13.0604 12.1898 12.2139 11.554 11.6223L10.9409 12.2812L10.3279 12.9402C10.6134 13.2058 10.7899 13.5814 10.7899 14.0001L11.6899 14ZM10.6085 11.2878L11.4529 11.5992C11.7274 10.8552 12.1257 10.1709 12.6238 9.57151L11.9316 8.99627L11.2395 8.42104C10.6124 9.17555 10.1104 10.0378 9.76415 10.9763L10.6085 11.2878ZM12.8399 8.7429L12.6779 9.62821C13.407 9.76159 14.1881 9.64787 14.8821 9.2472L14.4321 8.46777L13.9821 7.68835C13.6734 7.86657 13.3285 7.91736 13.0018 7.8576L12.8399 8.7429ZM14.4321 8.46777L14.8822 9.24716C15.6425 8.80814 16.1562 8.10708 16.3785 7.32763L15.513 7.08081L14.6475 6.834C14.5477 7.18416 14.3198 7.49335 13.9821 7.68839L14.4321 8.46777ZM16.1436 6.37811L16.3512 7.25383C16.8657 7.13185 17.403 7.06702 17.9566 7.06699L17.9565 6.16699L17.9565 5.26699C17.2619 5.26702 16.5853 5.34842 15.936 5.50239L16.1436 6.37811ZM15.513 7.08081L16.3785 7.32763C16.3872 7.29705 16.3977 7.27095 16.408 7.25042C16.4184 7.22976 16.4267 7.21872 16.4298 7.21504C16.4327 7.2116 16.4282 7.21788 16.4138 7.22733C16.3984 7.23746 16.3767 7.24778 16.3512 7.25383L16.1436 6.37811L15.936 5.50239C15.1558 5.68737 14.7833 6.35797 14.6475 6.834L15.513 7.08081ZM10.9409 12.2812L11.554 11.6223C11.5274 11.5976 11.5057 11.5724 11.4895 11.5493C11.4731 11.526 11.4657 11.5098 11.4632 11.5031C11.4608 11.4967 11.4646 11.5041 11.4654 11.5239C11.4661 11.5454 11.4628 11.5725 11.4529 11.5992L10.6085 11.2878L9.76415 10.9763C9.44995 11.828 9.9308 12.5707 10.3279 12.9402L10.9409 12.2812ZM12.8399 19.2564L12.6785 18.371C12.6472 18.3767 12.6193 18.3788 12.5963 18.3786C12.5732 18.3784 12.5596 18.3759 12.5549 18.3747C12.5504 18.3737 12.558 18.3749 12.5727 18.3835C12.5885 18.3927 12.6072 18.4075 12.6239 18.4275L11.9317 19.0028L11.2395 19.578C11.7508 20.1932 12.515 20.2304 13.0013 20.1418L12.8399 19.2564ZM16.1436 21.6219L16.3512 20.7462C16.3767 20.7522 16.3984 20.7625 16.4138 20.7727C16.4282 20.7821 16.4327 20.7884 16.4298 20.785C16.4267 20.7813 16.4184 20.7702 16.408 20.7496C16.3976 20.7291 16.3872 20.703 16.3785 20.6724L15.513 20.9192L14.6475 21.166C14.7833 21.6421 15.1558 22.3126 15.9359 22.4976L16.1436 21.6219ZM20.3994 20.9191L19.5341 20.6716C19.5253 20.7023 19.5148 20.7285 19.5044 20.7491C19.4939 20.7699 19.4856 20.781 19.4824 20.7848C19.4795 20.7883 19.4839 20.782 19.4982 20.7726C19.5136 20.7625 19.5353 20.7522 19.5608 20.7462L19.7684 21.6219L19.976 22.4976C20.7561 22.3126 21.1287 21.6421 21.2647 21.1667L20.3994 20.9191ZM23.9814 19.003L23.2895 18.4275C23.3061 18.4075 23.3248 18.3928 23.3405 18.3836C23.3552 18.375 23.3627 18.3738 23.3582 18.3749C23.3535 18.376 23.3399 18.3786 23.3168 18.3788C23.2939 18.379 23.2659 18.3768 23.2347 18.3711L23.0734 19.2565L22.912 20.1419C23.3985 20.2306 24.1621 20.1931 24.6732 19.5786L23.9814 19.003ZM24.7683 10.1303L23.9865 10.5761C23.9697 10.5467 23.9607 10.5112 23.9599 10.4809C23.9593 10.4548 23.9649 10.4481 23.9589 10.4635C23.9528 10.4792 23.9384 10.5075 23.9104 10.5431C23.8828 10.5784 23.8481 10.6127 23.8102 10.6419L24.3584 11.3556L24.9067 12.0694C25.2068 11.8389 25.4827 11.511 25.6362 11.1167C25.7949 10.7092 25.8345 10.1831 25.5501 9.68441L24.7683 10.1303ZM10.6084 16.711L11.4528 16.3996C11.4626 16.4264 11.466 16.4535 11.4652 16.475C11.4645 16.4948 11.4606 16.5022 11.463 16.4959C11.4655 16.4892 11.4729 16.4731 11.4892 16.4499C11.5054 16.4269 11.5271 16.4017 11.5536 16.3771L10.9407 15.718L10.3279 15.0588C9.93055 15.4283 9.44991 16.1709 9.76396 17.0224L10.6084 16.711ZM23.0734 8.74274L23.2353 9.62806C23.2664 9.62236 23.2943 9.62017 23.3172 9.62036C23.3403 9.62055 23.3538 9.6231 23.3585 9.62424C23.3629 9.62531 23.3554 9.62411 23.3408 9.61552C23.3251 9.60633 23.3064 9.59168 23.2898 9.57172L23.9815 8.99593L24.6732 8.42013C24.1619 7.80588 23.3983 7.76839 22.9115 7.85743L23.0734 8.74274ZM11.9316 8.99627L12.6238 9.57151C12.6071 9.59157 12.5884 9.60631 12.5726 9.61556C12.5578 9.62421 12.5503 9.62543 12.5546 9.62437C12.5593 9.62324 12.5729 9.62069 12.5959 9.6205C12.6188 9.62031 12.6467 9.62251 12.6779 9.62821L12.8399 8.7429L13.0018 7.8576C12.5152 7.76857 11.7508 7.80575 11.2395 8.42104L11.9316 8.99627ZM24.7557 15.3248L24.3597 16.133C24.4029 16.1542 24.4438 16.181 24.478 16.2101C24.5125 16.2395 24.5322 16.2643 24.5413 16.2784C24.5502 16.2922 24.5433 16.2867 24.5387 16.2608C24.5333 16.2308 24.5351 16.1941 24.5457 16.1619L25.4008 16.4427L26.2559 16.7234C26.4349 16.1783 26.2912 15.6712 26.0546 15.3038C25.8257 14.9484 25.4906 14.6826 25.1516 14.5166L24.7557 15.3248ZM19.7683 6.37813L19.5607 7.25385C19.5352 7.24781 19.5136 7.23749 19.4982 7.2274C19.4839 7.21797 19.4794 7.21174 19.4824 7.21526C19.4855 7.21901 19.4939 7.23015 19.5044 7.25091C19.5148 7.27155 19.5253 7.29776 19.5341 7.32847L20.3994 7.0809L21.2647 6.83333C21.1286 6.35794 20.7561 5.68736 19.976 5.5024L19.7683 6.37813Z" fill="#070A1C" style="fill:#070A1C;fill:color(display-p3 0.0275 0.0392 0.1098);fill-opacity:1;"/>
<path d="M37.5488 19V7.8H39.3888V12.616H44.0128V7.8H45.8528V19H44.0128V14.264H39.3888V19H37.5488ZM51.1159 19.192C49.9532 19.192 49.0519 18.824 48.4119 18.088C47.7719 17.352 47.4519 16.4133 47.4519 15.272C47.4519 14.1413 47.7879 13.208 48.4599 12.472C49.1319 11.7253 50.0332 11.352 51.1639 11.352C51.6652 11.352 52.1239 11.4587 52.5399 11.672C52.9559 11.8853 53.2759 12.1787 53.4999 12.552V11.544H55.2439V19H53.4999V17.992C53.2865 18.3547 52.9505 18.648 52.4919 18.872C52.0439 19.0853 51.5852 19.192 51.1159 19.192ZM51.3719 17.64C52.0865 17.64 52.6305 17.416 53.0039 16.968C53.3879 16.52 53.5799 15.9547 53.5799 15.272C53.5799 14.5893 53.3879 14.024 53.0039 13.576C52.6305 13.128 52.0865 12.904 51.3719 12.904C50.6999 12.904 50.1665 13.128 49.7719 13.576C49.3879 14.0133 49.1959 14.5787 49.1959 15.272C49.1959 15.9653 49.3879 16.536 49.7719 16.984C50.1665 17.4213 50.6999 17.64 51.3719 17.64ZM56.6806 17.432H56.9686C57.7473 17.432 58.1366 16.8933 58.1366 15.816V11.544H63.9766V19H62.2326V13.16H59.8806V15.736C59.8806 16.7707 59.6566 17.5867 59.2086 18.184C58.7606 18.7813 58.1313 19.08 57.3206 19.08H56.6806V17.432ZM69.1553 19.192C67.9926 19.192 67.0913 18.824 66.4513 18.088C65.8113 17.352 65.4913 16.4133 65.4913 15.272C65.4913 14.1413 65.8273 13.208 66.4993 12.472C67.1713 11.7253 68.0726 11.352 69.2033 11.352C69.7046 11.352 70.1633 11.4587 70.5793 11.672C70.9953 11.8853 71.3153 12.1787 71.5393 12.552V11.544H73.2833V19H71.5393V17.992C71.3259 18.3547 70.9899 18.648 70.5313 18.872C70.0833 19.0853 69.6246 19.192 69.1553 19.192ZM69.4113 17.64C70.1259 17.64 70.6699 17.416 71.0433 16.968C71.4273 16.52 71.6193 15.9547 71.6193 15.272C71.6193 14.5893 71.4273 14.024 71.0433 13.576C70.6699 13.128 70.1259 12.904 69.4113 12.904C68.7393 12.904 68.2059 13.128 67.8113 13.576C67.4273 14.0133 67.2353 14.5787 67.2353 15.272C67.2353 15.9653 67.4273 16.536 67.8113 16.984C68.2059 17.4213 68.7393 17.64 69.4113 17.64ZM81.328 17.544H83.808V11.544H85.552V19H75.36V11.544H77.104V17.544H79.584V11.544H81.328V17.544ZM93.0295 11.544V13.16H90.8695V19H89.1255V13.16H86.9975V11.544H93.0295ZM99.5339 11.544H101.278V19.032C101.278 20.1733 100.953 21.0587 100.302 21.688C99.6725 22.264 98.8299 22.552 97.7739 22.552C96.6752 22.552 95.8219 22.296 95.2139 21.784C94.6805 21.3147 94.4032 20.6693 94.3819 19.848H96.1419C96.1845 20.2747 96.3232 20.5893 96.5579 20.792C96.8032 21.0053 97.1979 21.112 97.7419 21.112C98.2965 21.112 98.7339 20.9307 99.0539 20.568C99.3739 20.216 99.5339 19.6613 99.5339 18.904V17.96C99.0539 18.7813 98.2539 19.192 97.1339 19.192C96.2485 19.192 95.5659 18.9093 95.0859 18.344C94.6165 17.768 94.3819 17.016 94.3819 16.088V11.544H96.1259V15.72C96.1259 17.0107 96.6645 17.656 97.7419 17.656C98.3285 17.656 98.7712 17.448 99.0699 17.032C99.3792 16.616 99.5339 16.072 99.5339 15.4V11.544ZM103.364 11.544H106.788C107.29 11.544 107.711 11.608 108.052 11.736C108.404 11.864 108.66 12.04 108.82 12.264C108.98 12.4773 109.092 12.6853 109.156 12.888C109.22 13.08 109.252 13.288 109.252 13.512C109.252 13.9493 109.082 14.3227 108.74 14.632C108.399 14.9413 107.994 15.112 107.524 15.144C108.036 15.1653 108.474 15.336 108.836 15.656C109.21 15.9653 109.396 16.392 109.396 16.936C109.396 17.1493 109.354 17.3627 109.268 17.576C109.194 17.7893 109.066 18.0133 108.884 18.248C108.703 18.472 108.42 18.6533 108.036 18.792C107.663 18.9307 107.21 19 106.676 19H103.364V11.544ZM106.644 14.6C106.9 14.6 107.108 14.5147 107.268 14.344C107.428 14.1627 107.508 13.944 107.508 13.688C107.508 13.4213 107.428 13.2027 107.268 13.032C107.108 12.8507 106.9 12.76 106.644 12.76H105.06V14.6H106.644ZM105.06 15.816V17.784H106.708C106.975 17.784 107.199 17.688 107.38 17.496C107.562 17.304 107.652 17.0747 107.652 16.808C107.652 16.5413 107.562 16.312 107.38 16.12C107.199 15.9173 106.975 15.816 106.708 15.816H105.06ZM114.105 19.192C112.943 19.192 112.041 18.824 111.401 18.088C110.761 17.352 110.441 16.4133 110.441 15.272C110.441 14.1413 110.777 13.208 111.449 12.472C112.121 11.7253 113.023 11.352 114.153 11.352C114.655 11.352 115.113 11.4587 115.529 11.672C115.945 11.8853 116.265 12.1787 116.489 12.552V11.544H118.233V19H116.489V17.992C116.276 18.3547 115.94 18.648 115.481 18.872C115.033 19.0853 114.575 19.192 114.105 19.192ZM114.361 17.64C115.076 17.64 115.62 17.416 115.993 16.968C116.377 16.52 116.569 15.9547 116.569 15.272C116.569 14.5893 116.377 14.024 115.993 13.576C115.62 13.128 115.076 12.904 114.361 12.904C113.689 12.904 113.156 13.128 112.761 13.576C112.377 14.0133 112.185 14.5787 112.185 15.272C112.185 15.9653 112.377 16.536 112.761 16.984C113.156 17.4213 113.689 17.64 114.361 17.64ZM120.31 19V11.544H122.054V14.488H125.462V11.544H127.206V19H125.462V15.944H122.054V19H120.31ZM129.291 19V11.544H131.035V14.488H134.443V11.544H136.187V19H134.443V15.944H131.035V19H129.291ZM137.919 19L139.535 16.52C139.034 16.3493 138.629 16.04 138.319 15.592C138.021 15.144 137.871 14.6533 137.871 14.12C137.871 13.3947 138.117 12.7867 138.607 12.296C139.098 11.7947 139.733 11.544 140.511 11.544H144.527V19H142.815V16.712H141.311L139.935 19H137.919ZM140.895 15.272H142.815V12.952H140.895C140.522 12.952 140.218 13.0693 139.983 13.304C139.759 13.528 139.647 13.8 139.647 14.12C139.647 14.44 139.759 14.712 139.983 14.936C140.218 15.16 140.522 15.272 140.895 15.272Z" fill="#070A1C" style="fill:#070A1C;fill:color(display-p3 0.0275 0.0392 0.1098);fill-opacity:1;"/>
</svg>
