<svg width="79" height="30" viewBox="0 0 79 30" fill="none" xmlns="http://www.w3.org/2000/svg">
<path d="M10.4849 15.25C10.4849 13.2569 11.2766 11.3454 12.686 9.93601C14.0954 8.52664 16.0069 7.73486 18 7.73486C19.9932 7.73486 21.9047 8.52664 23.3141 9.93601C24.7234 11.3454 25.5152 13.2569 25.5152 15.25V20.0316C25.5152 20.8282 25.5152 21.2246 25.3969 21.5431C25.3027 21.7954 25.1555 22.0246 24.965 22.215C24.7746 22.4055 24.5454 22.5527 24.2931 22.6469C23.9746 22.7652 23.5772 22.7652 22.7816 22.7652H18C16.0069 22.7652 14.0954 21.9734 12.686 20.5641C11.2766 19.1547 10.4849 17.2432 10.4849 15.25Z" stroke="#070A1C" style="stroke:#070A1C;stroke:color(display-p3 0.0275 0.0392 0.1098);stroke-opacity:1;" stroke-width="1.66667"/>
<path d="M15.1816 14.3105H20.818M17.9998 18.0681H20.818" stroke="#070A1C" style="stroke:#070A1C;stroke:color(display-p3 0.0275 0.0392 0.1098);stroke-opacity:1;" stroke-width="1.66667" stroke-linecap="round" stroke-linejoin="round"/>
<rect x="17.875" y="1.125" width="14.25" height="14.25" rx="7.125" fill="#FF4C4C" style="fill:#FF4C4C;fill:color(display-p3 1.0000 0.2980 0.2980);fill-opacity:1;"/>
<rect x="17.875" y="1.125" width="14.25" height="14.25" rx="7.125" stroke="white" style="stroke:white;stroke-opacity:1;" stroke-width="2.25"/>
<path d="M22.795 11.313V10.233L24.595 8.379C24.949 8.013 25.216 7.725 25.396 7.515C25.582 7.299 25.708 7.119 25.774 6.975C25.846 6.831 25.882 6.69 25.882 6.552C25.882 6.306 25.801 6.114 25.639 5.976C25.483 5.832 25.285 5.76 25.045 5.76C24.799 5.76 24.58 5.832 24.388 5.976C24.196 6.114 24.055 6.327 23.965 6.615L22.75 6.219C22.822 5.871 22.972 5.568 23.2 5.31C23.428 5.052 23.704 4.854 24.028 4.716C24.352 4.572 24.691 4.5 25.045 4.5C25.489 4.5 25.879 4.578 26.215 4.734C26.551 4.89 26.812 5.109 26.998 5.391C27.184 5.673 27.277 6.003 27.277 6.381C27.277 6.621 27.235 6.858 27.151 7.092C27.067 7.32 26.938 7.554 26.764 7.794C26.596 8.028 26.377 8.283 26.107 8.559L24.568 10.143H27.34V11.313H22.795Z" fill="white" style="fill:white;fill-opacity:1;"/>
<path d="M42.6139 20.25V16.378C42.0166 16.7193 41.2539 16.89 40.3259 16.89C39.3019 16.89 38.4859 16.5593 37.8779 15.898C37.2699 15.2367 36.9659 14.4207 36.9659 13.45V9.05H38.8059V12.97C38.8059 13.738 38.9819 14.3087 39.3339 14.682C39.6966 15.0553 40.1979 15.242 40.8379 15.242C41.1046 15.242 41.3073 15.2367 41.4459 15.226C41.5953 15.2153 41.7819 15.1727 42.0059 15.098C42.2299 15.0127 42.4326 14.8953 42.6139 14.746V9.05H44.4539V20.25H42.6139ZM49.7181 20.442C48.5554 20.442 47.6541 20.074 47.0141 19.338C46.3741 18.602 46.0541 17.6633 46.0541 16.522C46.0541 15.3913 46.3901 14.458 47.0621 13.722C47.7341 12.9753 48.6354 12.602 49.7661 12.602C50.2674 12.602 50.7261 12.7087 51.1421 12.922C51.5581 13.1353 51.8781 13.4287 52.1021 13.802V12.794H53.8461V20.25H52.1021V19.242C51.8887 19.6047 51.5527 19.898 51.0941 20.122C50.6461 20.3353 50.1874 20.442 49.7181 20.442ZM49.9741 18.89C50.6887 18.89 51.2327 18.666 51.6061 18.218C51.9901 17.77 52.1821 17.2047 52.1821 16.522C52.1821 15.8393 51.9901 15.274 51.6061 14.826C51.2327 14.378 50.6887 14.154 49.9741 14.154C49.3021 14.154 48.7687 14.378 48.3741 14.826C47.9901 15.2633 47.7981 15.8287 47.7981 16.522C47.7981 17.2153 47.9901 17.786 48.3741 18.234C48.7687 18.6713 49.3021 18.89 49.9741 18.89ZM61.3148 12.794V14.41H59.1548V20.25H57.4108V14.41H55.2828V12.794H61.3148ZM67.8032 15.45L64.4912 19.626V20.25H62.7472V12.794H64.4912V17.674L67.8032 13.466V12.794H69.5472V20.25H67.8032V15.45Z" fill="#070A1C" style="fill:#070A1C;fill:color(display-p3 0.0275 0.0392 0.1098);fill-opacity:1;"/>
</svg>
