<svg width="147" height="28" viewBox="0 0 147 28" fill="none" xmlns="http://www.w3.org/2000/svg">
<path d="M9.6665 9.00008C9.6665 8.11603 10.0177 7.26818 10.6428 6.64306C11.2679 6.01794 12.1158 5.66675 12.9998 5.66675H22.9998C23.8839 5.66675 24.7317 6.01794 25.3569 6.64306C25.982 7.26818 26.3332 8.11603 26.3332 9.00008V19.0001C26.3332 19.8841 25.982 20.732 25.3569 21.3571C24.7317 21.9822 23.8839 22.3334 22.9998 22.3334H12.9998C12.1158 22.3334 11.2679 21.9822 10.6428 21.3571C10.0177 20.732 9.6665 19.8841 9.6665 19.0001V9.00008Z" stroke="#070A1C" style="stroke:#070A1C;stroke:color(display-p3 0.0275 0.0392 0.1098);stroke-opacity:1;" stroke-width="1.66667" stroke-linecap="round" stroke-linejoin="round"/>
<path d="M15.0833 13.1667C16.2339 13.1667 17.1667 12.2339 17.1667 11.0833C17.1667 9.93274 16.2339 9 15.0833 9C13.9327 9 13 9.93274 13 11.0833C13 12.2339 13.9327 13.1667 15.0833 13.1667Z" stroke="#070A1C" style="stroke:#070A1C;stroke:color(display-p3 0.0275 0.0392 0.1098);stroke-opacity:1;" stroke-width="1.66667" stroke-linecap="round" stroke-linejoin="round"/>
<path d="M20.105 14.5176L13 22.3334H23.1108C23.9655 22.3334 24.7851 21.9939 25.3895 21.3896C25.9938 20.7852 26.3333 19.9656 26.3333 19.1109V19.0001C26.3333 18.6118 26.1875 18.4626 25.925 18.1751L22.5667 14.5126C22.4101 14.3418 22.2198 14.2056 22.0076 14.1126C21.7955 14.0195 21.5664 13.9717 21.3347 13.9722C21.1031 13.9726 20.8741 14.0214 20.6624 14.1153C20.4507 14.2092 20.2608 14.3462 20.105 14.5176Z" stroke="#070A1C" style="stroke:#070A1C;stroke:color(display-p3 0.0275 0.0392 0.1098);stroke-opacity:1;" stroke-width="1.66667" stroke-linecap="round" stroke-linejoin="round"/>
<path d="M37.6306 19V7.8H39.3906L42.9746 16.376L46.5426 7.8H48.3026V19H46.5426V11.592L43.6626 19H42.2706L39.3906 11.512V19H37.6306ZM56.7088 18.088C56.0048 18.824 55.0501 19.192 53.8448 19.192C52.6394 19.192 51.6794 18.824 50.9648 18.088C50.2608 17.3413 49.9088 16.4027 49.9088 15.272C49.9088 14.1413 50.2608 13.208 50.9648 12.472C51.6794 11.7253 52.6394 11.352 53.8448 11.352C55.0501 11.352 56.0048 11.7253 56.7088 12.472C57.4234 13.208 57.7808 14.1413 57.7808 15.272C57.7808 16.4027 57.4234 17.3413 56.7088 18.088ZM52.2288 16.984C52.6234 17.4213 53.1621 17.64 53.8448 17.64C54.5274 17.64 55.0608 17.4213 55.4448 16.984C55.8394 16.5467 56.0368 15.976 56.0368 15.272C56.0368 14.568 55.8394 13.9973 55.4448 13.56C55.0608 13.1227 54.5274 12.904 53.8448 12.904C53.1621 12.904 52.6234 13.1227 52.2288 13.56C51.8448 13.9973 51.6528 14.568 51.6528 15.272C51.6528 15.976 51.8448 16.5467 52.2288 16.984ZM59.7571 10.04C59.5545 10.232 59.3145 10.328 59.0371 10.328C58.7598 10.328 58.5198 10.232 58.3171 10.04C58.1251 9.83733 58.0291 9.59733 58.0291 9.32C58.0291 9.032 58.1251 8.792 58.3171 8.6C58.5198 8.39733 58.7598 8.296 59.0371 8.296C59.3145 8.296 59.5545 8.39733 59.7571 8.6C59.9598 8.792 60.0611 9.032 60.0611 9.32C60.0611 9.59733 59.9598 9.83733 59.7571 10.04ZM61.2931 10.328C61.0265 10.328 60.7918 10.2267 60.5891 10.024C60.3865 9.82133 60.2851 9.58667 60.2851 9.32C60.2851 9.032 60.3811 8.792 60.5731 8.6C60.7758 8.39733 61.0158 8.296 61.2931 8.296C61.5811 8.296 61.8211 8.39733 62.0131 8.6C62.2158 8.792 62.3171 9.032 62.3171 9.32C62.3171 9.59733 62.2158 9.83733 62.0131 10.04C61.8211 10.232 61.5811 10.328 61.2931 10.328ZM59.2931 19V11.544H61.0371V19H59.2931ZM73.6935 19H71.9495V13H68.7015V19H66.9575V11.544H73.6935V19ZM80.8383 11.544H82.5823V19.032C82.5823 20.1733 82.2569 21.0587 81.6063 21.688C80.9769 22.264 80.1343 22.552 79.0783 22.552C77.9796 22.552 77.1263 22.296 76.5183 21.784C75.9849 21.3147 75.7076 20.6693 75.6863 19.848H77.4463C77.4889 20.2747 77.6276 20.5893 77.8623 20.792C78.1076 21.0053 78.5023 21.112 79.0463 21.112C79.6009 21.112 80.0383 20.9307 80.3583 20.568C80.6783 20.216 80.8383 19.6613 80.8383 18.904V17.96C80.3583 18.7813 79.5583 19.192 78.4383 19.192C77.5529 19.192 76.8703 18.9093 76.3903 18.344C75.9209 17.768 75.6863 17.016 75.6863 16.088V11.544H77.4303V15.72C77.4303 17.0107 77.9689 17.656 79.0463 17.656C79.6329 17.656 80.0756 17.448 80.3743 17.032C80.6836 16.616 80.8383 16.072 80.8383 15.4V11.544ZM88.3968 19.208C87.0314 19.208 86.0021 18.7227 85.3088 17.752C84.6154 16.7707 84.2688 15.4907 84.2688 13.912C84.2688 11.8533 84.7328 10.3227 85.6608 9.32C86.5888 8.30667 88.0128 7.8 89.9328 7.8H91.4528V9.48H89.4688C88.3168 9.48 87.4581 9.77867 86.8928 10.376C86.3381 10.9627 86.0128 11.88 85.9168 13.128C86.1088 12.5627 86.4661 12.1253 86.9888 11.816C87.5114 11.5067 88.0608 11.352 88.6368 11.352C89.7568 11.352 90.6314 11.7307 91.2608 12.488C91.9008 13.2347 92.2208 14.1627 92.2208 15.272C92.2208 16.36 91.8581 17.288 91.1328 18.056C90.4181 18.824 89.5061 19.208 88.3968 19.208ZM88.3008 17.656C88.9728 17.656 89.5008 17.432 89.8848 16.984C90.2794 16.5253 90.4768 15.96 90.4768 15.288C90.4768 14.616 90.2794 14.056 89.8848 13.608C89.5008 13.1493 88.9728 12.92 88.3008 12.92C87.5968 12.92 87.0528 13.1387 86.6688 13.576C86.2848 14.0133 86.0928 14.584 86.0928 15.288C86.0928 15.992 86.2848 16.5627 86.6688 17C87.0528 17.4373 87.5968 17.656 88.3008 17.656ZM92.9469 17.432H93.2349C94.0135 17.432 94.4029 16.8933 94.4029 15.816V11.544H100.243V19H98.4989V13.16H96.1469V15.736C96.1469 16.7707 95.9229 17.5867 95.4749 18.184C95.0269 18.7813 94.3975 19.08 93.5869 19.08H92.9469V17.432ZM104.126 10.104C103.88 10.3493 103.571 10.472 103.198 10.472C102.824 10.472 102.515 10.3493 102.27 10.104C102.024 9.848 101.902 9.53867 101.902 9.176C101.902 8.81333 102.024 8.50933 102.27 8.264C102.515 8.008 102.824 7.88 103.198 7.88C103.571 7.88 103.88 8.008 104.126 8.264C104.371 8.50933 104.494 8.81333 104.494 9.176C104.494 9.53867 104.371 9.848 104.126 10.104ZM102.318 19V11.544H104.062V19H102.318ZM112.798 19H110.654L107.886 15.592V19H106.142V11.544H107.886V14.664H108.046C108.366 14.664 108.649 14.4987 108.894 14.168L110.206 12.376C110.473 12.0133 110.718 11.7733 110.942 11.656C111.177 11.528 111.491 11.464 111.886 11.464H112.478V13.032H112.222C111.881 13.032 111.603 13.1813 111.39 13.48L110.782 14.328C110.569 14.6373 110.382 14.84 110.222 14.936C110.062 15.0213 109.865 15.064 109.63 15.064H109.518L112.798 19ZM116.633 19.192C115.47 19.192 114.569 18.824 113.929 18.088C113.289 17.352 112.969 16.4133 112.969 15.272C112.969 14.1413 113.305 13.208 113.977 12.472C114.649 11.7253 115.55 11.352 116.681 11.352C117.182 11.352 117.641 11.4587 118.057 11.672C118.473 11.8853 118.793 12.1787 119.017 12.552V11.544H120.761V19H119.017V17.992C118.803 18.3547 118.467 18.648 118.009 18.872C117.561 19.0853 117.102 19.192 116.633 19.192ZM116.889 17.64C117.603 17.64 118.147 17.416 118.521 16.968C118.905 16.52 119.097 15.9547 119.097 15.272C119.097 14.5893 118.905 14.024 118.521 13.576C118.147 13.128 117.603 12.904 116.889 12.904C116.217 12.904 115.683 13.128 115.289 13.576C114.905 14.0133 114.713 14.5787 114.713 15.272C114.713 15.9653 114.905 16.536 115.289 16.984C115.683 17.4213 116.217 17.64 116.889 17.64ZM129.493 17.352H130.357V20.92H128.613V19H122.837V11.544H124.581V17.544H127.749V11.544H129.493V17.352ZM133.689 10.104C133.443 10.3493 133.134 10.472 132.761 10.472C132.387 10.472 132.078 10.3493 131.833 10.104C131.587 9.848 131.465 9.53867 131.465 9.176C131.465 8.81333 131.587 8.50933 131.833 8.264C132.078 8.008 132.387 7.88 132.761 7.88C133.134 7.88 133.443 8.008 133.689 8.264C133.934 8.50933 134.057 8.81333 134.057 9.176C134.057 9.53867 133.934 9.848 133.689 10.104ZM131.881 19V11.544H133.625V19H131.881ZM136.169 10.04C135.966 10.232 135.726 10.328 135.449 10.328C135.172 10.328 134.932 10.232 134.729 10.04C134.537 9.83733 134.441 9.59733 134.441 9.32C134.441 9.032 134.537 8.792 134.729 8.6C134.932 8.39733 135.172 8.296 135.449 8.296C135.726 8.296 135.966 8.39733 136.169 8.6C136.372 8.792 136.473 9.032 136.473 9.32C136.473 9.59733 136.372 9.83733 136.169 10.04ZM137.705 10.328C137.438 10.328 137.204 10.2267 137.001 10.024C136.798 9.82133 136.697 9.58667 136.697 9.32C136.697 9.032 136.793 8.792 136.985 8.6C137.188 8.39733 137.428 8.296 137.705 8.296C137.993 8.296 138.233 8.39733 138.425 8.6C138.628 8.792 138.729 9.032 138.729 9.32C138.729 9.59733 138.628 9.83733 138.425 10.04C138.233 10.232 137.993 10.328 137.705 10.328ZM135.705 19V11.544H137.449V19H135.705Z" fill="#070A1C" style="fill:#070A1C;fill:color(display-p3 0.0275 0.0392 0.1098);fill-opacity:1;"/>
</svg>
