<svg width="85" height="28" viewBox="0 0 85 28" fill="none" xmlns="http://www.w3.org/2000/svg">
<path d="M10.579 11.498C10.5789 10.7728 10.7591 10.059 11.1033 9.42075C11.4475 8.78249 11.945 8.2398 12.551 7.84149C13.1569 7.44318 13.8524 7.20175 14.5748 7.1389C15.2973 7.07605 16.024 7.19376 16.6896 7.48144C17.3553 7.76913 17.939 8.21776 18.3883 8.78699C18.8375 9.35622 19.1382 10.0282 19.2634 10.7425C19.3885 11.4568 19.3341 12.1909 19.1052 12.879C18.8762 13.567 18.4797 14.1874 17.9515 14.6842C18.9474 15.1677 19.8121 15.8841 20.4722 16.7728C21.1324 17.6615 21.5687 18.6962 21.744 19.7892C21.7633 19.9109 21.7584 20.0351 21.7297 20.1549C21.701 20.2746 21.6489 20.3876 21.5766 20.4872C21.5042 20.5869 21.4129 20.6713 21.3079 20.7356C21.2029 20.8 21.0863 20.8431 20.9646 20.8624C20.843 20.8816 20.7188 20.8768 20.599 20.8481C20.4792 20.8193 20.3663 20.7673 20.2667 20.6949C20.167 20.6225 20.0826 20.5313 20.0182 20.4263C19.9539 20.3213 19.9108 20.2046 19.8915 20.083C19.704 18.9084 19.1039 17.8391 18.199 17.0671C17.294 16.2951 16.1435 15.8711 14.954 15.8711C13.7645 15.8711 12.614 16.2951 11.7091 17.0671C10.8041 17.8391 10.204 18.9084 10.0165 20.083C9.99714 20.2046 9.95401 20.3212 9.88956 20.4262C9.82512 20.5312 9.74063 20.6224 9.64092 20.6947C9.54122 20.767 9.42824 20.819 9.30845 20.8477C9.18866 20.8763 9.0644 20.8811 8.94276 20.8617C8.82113 20.8424 8.7045 20.7992 8.59953 20.7348C8.49457 20.6703 8.40332 20.5858 8.33101 20.4861C8.25869 20.3864 8.20673 20.2735 8.17808 20.1537C8.14942 20.0339 8.14464 19.9096 8.16401 19.788C8.33873 18.695 8.77476 17.6604 9.43503 16.772C10.0953 15.8837 10.9603 15.1679 11.9565 14.6855C11.5215 14.2763 11.1749 13.7824 10.938 13.2342C10.7011 12.6861 10.5789 12.0952 10.579 11.498ZM21.829 9.62298C22.5553 9.62348 23.2658 9.8348 23.8743 10.2313C24.4828 10.6278 24.9631 11.1924 25.2569 11.8565C25.5508 12.5207 25.6455 13.2559 25.5296 13.9729C25.4137 14.6898 25.0921 15.3577 24.604 15.8955C25.3653 16.2726 26.0417 16.801 26.5919 17.4483C27.1421 18.0957 27.5545 18.8484 27.804 19.6605C27.8536 19.8181 27.8605 19.986 27.8242 20.1471C27.7879 20.3083 27.7096 20.4569 27.5973 20.578C27.4849 20.6992 27.3425 20.7884 27.1845 20.8367C27.0266 20.8849 26.8586 20.8906 26.6978 20.853C26.5369 20.8158 26.3888 20.7368 26.2683 20.624C26.1478 20.5111 26.0592 20.3685 26.0115 20.2105C25.7872 19.4859 25.3788 18.8319 24.8263 18.3122C24.2738 17.7926 23.596 17.425 22.859 17.2455C22.6543 17.1961 22.4722 17.0792 22.3421 16.9136C22.2119 16.7481 22.1412 16.5436 22.1415 16.333V15.893C22.1414 15.7184 22.19 15.5473 22.2819 15.3989C22.3738 15.2505 22.5052 15.1307 22.6615 15.053C23.0405 14.8652 23.3448 14.5548 23.5251 14.1722C23.7053 13.7896 23.751 13.3573 23.6545 12.9455C23.5581 12.5337 23.3253 12.1666 22.9939 11.9038C22.6625 11.641 22.252 11.498 21.829 11.498C21.5804 11.498 21.3419 11.3992 21.1661 11.2234C20.9903 11.0476 20.8915 10.8091 20.8915 10.5605C20.8915 10.3118 20.9903 10.0734 21.1661 9.89756C21.3419 9.72175 21.5804 9.62298 21.829 9.62298ZM14.954 8.99798C14.6211 8.99045 14.29 9.04951 13.9802 9.17169C13.6704 9.29387 13.3882 9.47671 13.15 9.70948C12.9119 9.94225 12.7227 10.2202 12.5934 10.5272C12.4642 10.8341 12.3976 11.1637 12.3975 11.4967C12.3974 11.8297 12.4639 12.1594 12.5929 12.4664C12.722 12.7733 12.9111 13.0514 13.1492 13.2843C13.3872 13.5172 13.6693 13.7002 13.9791 13.8225C14.2888 13.9449 14.6198 14.0041 14.9528 13.9967C15.606 13.9823 16.2276 13.7127 16.6845 13.2457C17.1414 12.7787 17.3973 12.1513 17.3975 11.498C17.3977 10.8446 17.142 10.2171 16.6854 9.74989C16.2287 9.28264 15.6072 9.01275 14.954 8.99798Z" fill="#070A1C" style="fill:#070A1C;fill:color(display-p3 0.0275 0.0392 0.1098);fill-opacity:1;"/>
<path d="M45.6197 17.352H46.4837V20.92H44.7397V19H38.6597V20.92H36.8197V17.352H37.4437C37.8064 17.352 38.0784 17.1493 38.2597 16.744C38.4517 16.328 38.5477 15.608 38.5477 14.584V7.8H45.6197V17.352ZM39.8277 17.352H43.7637V9.448H40.4357V14.552C40.4357 15.6933 40.233 16.6267 39.8277 17.352ZM52.1684 11.352C53.2351 11.352 54.0938 11.7147 54.7444 12.44C55.3951 13.1547 55.7204 14.0987 55.7204 15.272C55.7204 16.424 55.3791 17.368 54.6964 18.104C54.0138 18.8293 53.1338 19.192 52.0564 19.192C51.5658 19.192 51.1018 19.0853 50.6644 18.872C50.2271 18.648 49.8964 18.3547 49.6724 17.992V22.36H47.9284V11.544H49.6724V12.552C49.8964 12.1893 50.2378 11.9013 50.6964 11.688C51.1551 11.464 51.6458 11.352 52.1684 11.352ZM51.8004 17.64C52.4404 17.64 52.9631 17.4213 53.3684 16.984C53.7738 16.536 53.9764 15.9653 53.9764 15.272C53.9764 14.5787 53.7738 14.0133 53.3684 13.576C52.9631 13.128 52.4404 12.904 51.8004 12.904C51.1391 12.904 50.6058 13.1227 50.2004 13.56C49.7951 13.9973 49.5924 14.568 49.5924 15.272C49.5924 15.976 49.7951 16.5467 50.2004 16.984C50.6058 17.4213 51.1391 17.64 51.8004 17.64ZM62.3092 11.544H64.0532V19.032C64.0532 20.1733 63.7279 21.0587 63.0772 21.688C62.4479 22.264 61.6052 22.552 60.5492 22.552C59.4505 22.552 58.5972 22.296 57.9892 21.784C57.4559 21.3147 57.1785 20.6693 57.1572 19.848H58.9172C58.9599 20.2747 59.0985 20.5893 59.3332 20.792C59.5785 21.0053 59.9732 21.112 60.5172 21.112C61.0719 21.112 61.5092 20.9307 61.8292 20.568C62.1492 20.216 62.3092 19.6613 62.3092 18.904V17.96C61.8292 18.7813 61.0292 19.192 59.9092 19.192C59.0239 19.192 58.3412 18.9093 57.8612 18.344C57.3919 17.768 57.1572 17.016 57.1572 16.088V11.544H58.9012V15.72C58.9012 17.0107 59.4399 17.656 60.5172 17.656C61.1039 17.656 61.5465 17.448 61.8452 17.032C62.1545 16.616 62.3092 16.072 62.3092 15.4V11.544ZM67.3877 16.696C67.3877 17.0267 67.521 17.288 67.7877 17.48C68.065 17.672 68.4597 17.768 68.9717 17.768C69.889 17.768 70.3477 17.4373 70.3477 16.776C70.3477 16.52 70.241 16.312 70.0277 16.152C69.825 15.9813 69.5317 15.896 69.1477 15.896H68.0437V14.616H69.0517C69.3824 14.616 69.649 14.536 69.8517 14.376C70.065 14.2053 70.1717 13.9707 70.1717 13.672C70.1717 13.4053 70.049 13.1813 69.8037 13C69.569 12.8187 69.2597 12.728 68.8757 12.728C68.4064 12.728 68.0597 12.8293 67.8357 13.032C67.6117 13.224 67.4997 13.48 67.4997 13.8H65.7717C65.7717 13.064 66.0544 12.472 66.6197 12.024C67.185 11.576 67.9317 11.352 68.8597 11.352C69.7664 11.352 70.4917 11.544 71.0357 11.928C71.5904 12.312 71.8677 12.808 71.8677 13.416C71.8677 13.9173 71.7184 14.3173 71.4197 14.616C71.1317 14.904 70.7317 15.08 70.2197 15.144C70.753 15.208 71.1904 15.4 71.5317 15.72C71.873 16.0293 72.0437 16.4507 72.0437 16.984C72.0437 17.6773 71.7344 18.2213 71.1157 18.616C70.5077 19 69.7504 19.192 68.8437 19.192C67.8517 19.192 67.073 18.968 66.5077 18.52C65.9424 18.0613 65.6597 17.4533 65.6597 16.696H67.3877ZM75.4439 10.104C75.1986 10.3493 74.8893 10.472 74.5159 10.472C74.1426 10.472 73.8333 10.3493 73.5879 10.104C73.3426 9.848 73.2199 9.53867 73.2199 9.176C73.2199 8.81333 73.3426 8.50933 73.5879 8.264C73.8333 8.008 74.1426 7.88 74.5159 7.88C74.8893 7.88 75.1986 8.008 75.4439 8.264C75.6893 8.50933 75.8119 8.81333 75.8119 9.176C75.8119 9.53867 75.6893 9.848 75.4439 10.104ZM73.6359 19V11.544H75.3799V19H73.6359Z" fill="#070A1C" style="fill:#070A1C;fill:color(display-p3 0.0275 0.0392 0.1098);fill-opacity:1;"/>
</svg>
