<svg width="23" height="18" viewBox="0 0 23 18" fill="none" xmlns="http://www.w3.org/2000/svg">
<path d="M0.000488281 4.12915H6.82402V7.83702H1.95007C0.870837 7.83702 0.000488281 6.99432 0.000488281 5.94937V4.12915Z" fill="#543C52" style="fill:#543C52;fill:color(display-p3 0.3294 0.2353 0.3216);fill-opacity:1;"/>
<path d="M4.87415 15.2698H0.000200748L0.000200748 11.5619H6.82373L6.82373 13.3821C6.82373 14.4271 5.95338 15.2698 4.87415 15.2698Z" fill="#543C52" style="fill:#543C52;fill:color(display-p3 0.3294 0.2353 0.3216);fill-opacity:1;"/>
<path d="M6.92817 7.63477C6.89336 7.63477 6.85854 7.63477 6.82373 7.63477V11.3595C6.85854 11.3595 6.89336 11.3595 6.92817 11.3595C10.044 11.3595 12.568 13.8202 12.568 16.8202C12.568 19.8202 12.568 16.8876 12.568 16.9213H16.415C16.415 16.8876 16.415 16.8539 16.415 16.8202C16.415 11.764 12.1677 7.63477 6.92817 7.63477Z" fill="#543C52" style="fill:#543C52;fill:color(display-p3 0.3294 0.2353 0.3216);fill-opacity:1;"/>
<path d="M8.94738 0C10.1311 0 11.071 0.926966 11.071 2.05618C11.071 3.20225 10.1136 4.11236 8.94738 4.11236H6.82373V2.05618C6.82373 0.910112 7.78111 0 8.94738 0Z" fill="#543C52" style="fill:#543C52;fill:color(display-p3 0.3294 0.2353 0.3216);fill-opacity:1;"/>
<path d="M12.6725 5.61225H12.7595C13.8213 5.61225 15.0921 5.47742 16.3802 5.25831C17.6509 5.03921 18.9042 4.73584 19.8964 4.39876C19.9312 4.39876 19.9486 4.38191 19.9834 4.36506C19.8616 3.50551 19.4264 2.71337 18.7475 2.12348C18.0686 1.55045 17.1983 1.23022 16.2931 1.23022C14.4654 1.23022 12.951 2.51112 12.6377 4.17966C12.6029 4.38191 12.5854 4.60101 12.5854 4.82011C12.5854 5.03921 12.5854 4.92124 12.5854 4.95494C12.5854 5.17404 12.6203 5.39315 12.6725 5.59539V5.61225Z" fill="#543C52" style="fill:#543C52;fill:color(display-p3 0.3294 0.2353 0.3216);fill-opacity:1;"/>
<path d="M22.6988 3.74156C22.6118 3.26965 21.4978 3.01685 19.8615 3.01685C19.9659 3.21909 20.053 3.42134 20.14 3.64044C20.14 3.67415 20.1574 3.70786 20.1748 3.74156C20.9407 3.74156 21.4455 3.82583 21.724 3.9101C21.4803 4.07864 21.0452 4.3146 20.3141 4.58426L20.0704 4.66853L19.9833 4.70224C19.0086 5.03932 17.8249 5.32583 16.589 5.54494C16.5368 5.54494 16.4671 5.56179 16.4149 5.57864C16.3453 5.57864 16.2757 5.5955 16.206 5.61235C15.005 5.8146 13.8213 5.91572 12.8117 5.93258H12.7421H12.4113C11.6454 5.93258 11.1406 5.84831 10.8621 5.76404C11.1058 5.5955 11.541 5.35954 12.2721 5.08988C12.2721 5.05617 12.2721 5.02246 12.2721 4.98876C12.2721 4.93819 12.2721 4.88763 12.2721 4.83707C12.2721 4.66853 12.2721 4.48314 12.3069 4.3146C10.7577 4.85392 9.80027 5.44381 9.88731 5.93258C9.97434 6.43819 11.2625 6.691 13.0902 6.64044C13.1598 6.64044 13.212 6.64044 13.2817 6.64044C14.152 6.60673 15.1268 6.50561 16.119 6.35392C16.1886 6.35392 16.2583 6.33707 16.3279 6.32022C16.3975 6.32022 16.4671 6.30336 16.5368 6.28651C16.6064 6.28651 16.676 6.26965 16.7457 6.2528C16.8153 6.2528 16.8849 6.21909 16.9545 6.21909C17.9467 6.0337 18.9041 5.79774 19.7222 5.54494C19.7745 5.52808 19.8441 5.51123 19.8963 5.49437C21.637 4.93819 22.7511 4.28089 22.664 3.75842L22.6988 3.74156Z" fill="#543C52" style="fill:#543C52;fill:color(display-p3 0.3294 0.2353 0.3216);fill-opacity:1;"/>
<path d="M16.6065 6.57312C15.4576 6.77537 14.3087 6.89335 13.2817 6.92706C13.978 7.85402 15.0921 8.4102 16.2757 8.4102C17.9642 8.4102 19.3916 7.3147 19.8442 5.8147C18.8694 6.11807 17.7553 6.37088 16.6065 6.57312Z" fill="#543C52" style="fill:#543C52;fill:color(display-p3 0.3294 0.2353 0.3216);fill-opacity:1;"/>
</svg>
