<svg width="117" height="16" viewBox="0 0 117 16" fill="none" xmlns="http://www.w3.org/2000/svg">
<path d="M0.0348134 0.337079H4.33434L6.35354 10.7528L8.12905 3.18539C8.63385 0.960674 9.73049 0 11.419 0C13.1074 0 14.1867 0.94382 14.7089 3.18539L16.4844 10.7528L18.5036 0.337079H22.8031L20.0006 13.0787C19.6002 14.8989 18.3469 15.927 16.6411 15.927C14.9352 15.927 13.7341 14.9326 13.3337 13.264L11.4016 5.03933L9.46939 13.264C9.06903 14.9326 7.69388 15.927 6.16207 15.927C4.63025 15.927 3.20288 14.9157 2.80252 13.0787L0 0.337079H0.0348134Z" fill="#543C52" style="fill:#543C52;fill:color(display-p3 0.3294 0.2353 0.3216);fill-opacity:1;"/>
<path d="M23.7256 7.95505C23.7256 3.42134 27.2592 0.0168457 32.0113 0.0168457C36.7634 0.0168457 40.297 3.42134 40.297 7.95505C40.297 12.4888 36.7634 15.8932 32.0113 15.8932C27.2592 15.8932 23.7256 12.4888 23.7256 7.95505ZM35.8931 7.95505C35.8931 5.69662 34.222 3.96067 32.0287 3.96067C29.8354 3.96067 28.1644 5.69662 28.1644 7.95505C28.1644 10.2135 29.8354 11.9494 32.0287 11.9494C34.222 11.9494 35.8931 10.2135 35.8931 7.95505Z" fill="#543C52" style="fill:#543C52;fill:color(display-p3 0.3294 0.2353 0.3216);fill-opacity:1;"/>
<path d="M42.8735 15.5563V0.337158H49.4708C53.1959 0.337158 56.0332 2.02255 56.0332 5.39334C56.0332 8.76412 54.8669 9.05064 53.0218 9.60682C53.8051 10.0956 54.3273 10.9888 55.0236 12.354L56.625 15.5563H51.9426L50.4804 12.6911C49.9408 11.6461 49.3315 11.2754 47.939 11.2754H47.1556V15.5563H42.8735ZM47.1731 4.163V7.56749C47.1557 7.56749 49.4534 7.56749 49.4534 7.56749C50.7067 7.56749 51.5944 6.89334 51.5944 5.81469C51.5944 4.73603 50.7067 4.163 49.5056 4.163H47.1731Z" fill="#543C52" style="fill:#543C52;fill:color(display-p3 0.3294 0.2353 0.3216);fill-opacity:1;"/>
<path d="M63.7268 11.7136H70.6721V15.5394H63.1523C60.5065 15.5394 59.4272 14.1911 59.4272 12.0506V0.337158H63.7268V11.7136Z" fill="#543C52" style="fill:#543C52;fill:color(display-p3 0.3294 0.2353 0.3216);fill-opacity:1;"/>
<path d="M78.9926 15.5563H72.7783V0.337158H78.9926C84.1451 0.337158 87.5568 3.38772 87.5568 8.0057C87.5568 12.6237 84.0232 15.5563 78.9926 15.5563ZM78.9926 4.163H77.0778V11.8315H78.9926C81.4992 11.8315 83.1355 10.2978 83.1355 8.0057C83.1355 5.71356 81.4992 4.17985 78.9926 4.17985V4.163Z" fill="#543C52" style="fill:#543C52;fill:color(display-p3 0.3294 0.2353 0.3216);fill-opacity:1;"/>
<path d="M101.169 0.337158V15.5563H96.8696V0.337158H101.169Z" fill="#543C52" style="fill:#543C52;fill:color(display-p3 0.3294 0.2353 0.3216);fill-opacity:1;"/>
<path d="M116.592 4.163H112.153V15.5394H107.853V4.163H103.415V0.337158H116.609V4.163H116.592Z" fill="#543C52" style="fill:#543C52;fill:color(display-p3 0.3294 0.2353 0.3216);fill-opacity:1;"/>
</svg>
