<svg width="123" height="40" viewBox="0 0 123 40" fill="none" xmlns="http://www.w3.org/2000/svg">
<rect width="123" height="40" rx="20" fill="#543C52" style="fill:#543C52;fill:color(display-p3 0.3294 0.2353 0.3216);fill-opacity:1;"/>
<path d="M18.66 16.642V25H17.05V15.2H24.302V25H22.692V16.642H18.66ZM31.7076 24.202C31.0916 24.846 30.2562 25.168 29.2016 25.168C28.1469 25.168 27.3069 24.846 26.6816 24.202C26.0656 23.5487 25.7576 22.7273 25.7576 21.738C25.7576 20.7487 26.0656 19.932 26.6816 19.288C27.3069 18.6347 28.1469 18.308 29.2016 18.308C30.2562 18.308 31.0916 18.6347 31.7076 19.288C32.3329 19.932 32.6456 20.7487 32.6456 21.738C32.6456 22.7273 32.3329 23.5487 31.7076 24.202ZM27.7876 23.236C28.1329 23.6187 28.6042 23.81 29.2016 23.81C29.7989 23.81 30.2656 23.6187 30.6016 23.236C30.9469 22.8533 31.1196 22.354 31.1196 21.738C31.1196 21.122 30.9469 20.6227 30.6016 20.24C30.2656 19.8573 29.7989 19.666 29.2016 19.666C28.6042 19.666 28.1329 19.8573 27.7876 20.24C27.4516 20.6227 27.2836 21.122 27.2836 21.738C27.2836 22.354 27.4516 22.8533 27.7876 23.236ZM34.0249 18.476H37.0209C37.4596 18.476 37.8282 18.532 38.1269 18.644C38.4349 18.756 38.6589 18.91 38.7989 19.106C38.9389 19.2927 39.0369 19.4747 39.0929 19.652C39.1489 19.82 39.1769 20.002 39.1769 20.198C39.1769 20.5807 39.0276 20.9073 38.7289 21.178C38.4302 21.4487 38.0756 21.598 37.6649 21.626C38.1129 21.6447 38.4956 21.794 38.8129 22.074C39.1396 22.3447 39.3029 22.718 39.3029 23.194C39.3029 23.3807 39.2656 23.5673 39.1909 23.754C39.1256 23.9407 39.0136 24.1367 38.8549 24.342C38.6962 24.538 38.4489 24.6967 38.1129 24.818C37.7862 24.9393 37.3896 25 36.9229 25H34.0249V18.476ZM36.8949 21.15C37.1189 21.15 37.3009 21.0753 37.4409 20.926C37.5809 20.7673 37.6509 20.576 37.6509 20.352C37.6509 20.1187 37.5809 19.9273 37.4409 19.778C37.3009 19.6193 37.1189 19.54 36.8949 19.54H35.5089V21.15H36.8949ZM35.5089 22.214V23.936H36.9509C37.1842 23.936 37.3802 23.852 37.5389 23.684C37.6976 23.516 37.7769 23.3153 37.7769 23.082C37.7769 22.8487 37.6976 22.648 37.5389 22.48C37.3802 22.3027 37.1842 22.214 36.9509 22.214H35.5089ZM42.3452 17.216C42.1305 17.4307 41.8598 17.538 41.5332 17.538C41.2065 17.538 40.9358 17.4307 40.7212 17.216C40.5065 16.992 40.3992 16.7213 40.3992 16.404C40.3992 16.0867 40.5065 15.8207 40.7212 15.606C40.9358 15.382 41.2065 15.27 41.5332 15.27C41.8598 15.27 42.1305 15.382 42.3452 15.606C42.5598 15.8207 42.6672 16.0867 42.6672 16.404C42.6672 16.7213 42.5598 16.992 42.3452 17.216ZM40.7632 25V18.476H42.2892V25H40.7632ZM49.9615 23.558H50.7175V26.68H49.1915V25H45.0755V26.68H43.4655V23.558H44.1375C44.5015 23.3247 44.6835 22.8393 44.6835 22.102V18.476H49.9615V23.558ZM45.7615 23.74H48.4355V19.736H46.2095V22.032C46.2095 22.6947 46.0602 23.264 45.7615 23.74ZM57.2934 24.202C56.6774 24.846 55.8421 25.168 54.7874 25.168C53.7328 25.168 52.8928 24.846 52.2674 24.202C51.6514 23.5487 51.3434 22.7273 51.3434 21.738C51.3434 20.7487 51.6514 19.932 52.2674 19.288C52.8928 18.6347 53.7328 18.308 54.7874 18.308C55.8421 18.308 56.6774 18.6347 57.2934 19.288C57.9188 19.932 58.2314 20.7487 58.2314 21.738C58.2314 22.7273 57.9188 23.5487 57.2934 24.202ZM53.3734 23.236C53.7188 23.6187 54.1901 23.81 54.7874 23.81C55.3848 23.81 55.8514 23.6187 56.1874 23.236C56.5328 22.8533 56.7054 22.354 56.7054 21.738C56.7054 21.122 56.5328 20.6227 56.1874 20.24C55.8514 19.8573 55.3848 19.666 54.7874 19.666C54.1901 19.666 53.7188 19.8573 53.3734 20.24C53.0374 20.6227 52.8694 21.122 52.8694 21.738C52.8694 22.354 53.0374 22.8533 53.3734 23.236ZM59.6108 25V18.476H61.8928L63.6848 22.942L65.4768 18.476H67.7588V25H66.3028V19.974L64.2028 25H63.1668L61.0668 19.974V25H59.6108ZM69.0703 23.628H69.3223C70.0036 23.628 70.3443 23.1567 70.3443 22.214V18.476H75.4543V25H73.9283V19.89H71.8703V22.144C71.8703 23.0493 71.6743 23.7633 71.2823 24.286C70.8903 24.8087 70.3396 25.07 69.6303 25.07H69.0703V23.628ZM83.2336 21.402C83.2336 21.57 83.2196 21.85 83.1916 22.242H78.3476C78.3662 22.7553 78.5342 23.152 78.8516 23.432C79.1689 23.7027 79.6076 23.838 80.1676 23.838C80.8862 23.838 81.3716 23.5907 81.6236 23.096H83.1636C83.0609 23.7027 82.7296 24.202 82.1696 24.594C81.6189 24.9767 80.9516 25.168 80.1676 25.168C79.1409 25.168 78.3289 24.86 77.7316 24.244C77.1342 23.628 76.8356 22.7927 76.8356 21.738C76.8356 20.6927 77.1296 19.862 77.7176 19.246C78.3149 18.6207 79.1129 18.308 80.1116 18.308C81.0449 18.308 81.7962 18.5973 82.3656 19.176C82.9442 19.7453 83.2336 20.4873 83.2336 21.402ZM78.3476 21.08H81.7356C81.7262 20.576 81.5769 20.1887 81.2876 19.918C81.0076 19.6473 80.6062 19.512 80.0836 19.512C79.5516 19.512 79.1316 19.6567 78.8236 19.946C78.5156 20.2353 78.3569 20.6133 78.3476 21.08ZM84.6244 25V18.476H86.1504V21.052H89.1324V18.476H90.6584V25H89.1324V22.326H86.1504V25H84.6244ZM92.5384 25V18.476H94.0644V21.052H97.0464V18.476H98.5724V25H97.0464V22.326H94.0644V25H92.5384ZM100.144 25L101.558 22.83C101.12 22.6807 100.765 22.41 100.494 22.018C100.233 21.626 100.102 21.1967 100.102 20.73C100.102 20.0953 100.317 19.5633 100.746 19.134C101.176 18.6953 101.731 18.476 102.412 18.476H105.926V25H104.428V22.998H103.112L101.908 25H100.144ZM102.748 21.738H104.428V19.708H102.748C102.422 19.708 102.156 19.8107 101.95 20.016C101.754 20.212 101.656 20.45 101.656 20.73C101.656 21.01 101.754 21.248 101.95 21.444C102.156 21.64 102.422 21.738 102.748 21.738Z" fill="white" style="fill:white;fill-opacity:1;"/>
</svg>
