<svg width="45" height="12" viewBox="0 0 45 12" fill="none" xmlns="http://www.w3.org/2000/svg">
<path d="M5.64894 11.2V7.32795C5.0516 7.66928 4.28894 7.83995 3.36094 7.83995C2.33694 7.83995 1.52094 7.50928 0.912937 6.84795C0.304937 6.18662 0.000937164 5.37062 0.000937164 4.39995V-4.95911e-05H1.84094V3.91995C1.84094 4.68795 2.01694 5.25862 2.36894 5.63195C2.7316 6.00528 3.23294 6.19195 3.87294 6.19195C4.1396 6.19195 4.34227 6.18662 4.48094 6.17595C4.63027 6.16528 4.81694 6.12262 5.04094 6.04795C5.26494 5.96262 5.4676 5.84528 5.64894 5.69595V-4.95911e-05H7.48894V11.2H5.64894ZM14.7051 6.39995L11.3931 10.576V11.2H9.64906V3.74395H11.3931V8.62395L14.7051 4.41595V3.74395H16.4491V11.2H14.7051V6.39995ZM23.9279 3.74395V5.35995H21.7679V11.2H20.0239V5.35995H17.8959V3.74395H23.9279ZM28.1518 11.392C26.9891 11.392 26.0878 11.024 25.4478 10.288C24.8078 9.55195 24.4878 8.61328 24.4878 7.47195C24.4878 6.34128 24.8238 5.40795 25.4958 4.67195C26.1678 3.92528 27.0691 3.55195 28.1998 3.55195C28.7011 3.55195 29.1598 3.65862 29.5758 3.87195C29.9918 4.08528 30.3118 4.37862 30.5358 4.75195V3.74395H32.2798V11.2H30.5358V10.192C30.3225 10.5546 29.9865 10.848 29.5278 11.072C29.0798 11.2853 28.6211 11.392 28.1518 11.392ZM28.4078 9.83995C29.1225 9.83995 29.6665 9.61595 30.0398 9.16795C30.4238 8.71995 30.6158 8.15462 30.6158 7.47195C30.6158 6.78928 30.4238 6.22395 30.0398 5.77595C29.6665 5.32795 29.1225 5.10395 28.4078 5.10395C27.7358 5.10395 27.2025 5.32795 26.8078 5.77595C26.4238 6.21328 26.2318 6.77862 26.2318 7.47195C26.2318 8.16528 26.4238 8.73595 26.8078 9.18395C27.2025 9.62128 27.7358 9.83995 28.4078 9.83995ZM38.5166 11.2V8.60795C37.9939 8.90662 37.3752 9.05595 36.6606 9.05595C34.8046 9.05595 33.8766 8.21862 33.8766 6.54395V3.74395H35.6206V6.31995C35.6206 7.17328 36.1006 7.59995 37.0606 7.59995C37.2739 7.59995 37.4392 7.59462 37.5566 7.58395C37.6739 7.57328 37.8232 7.53062 38.0046 7.45595C38.1966 7.38128 38.3672 7.26928 38.5166 7.11995V3.74395H40.2606V11.2H38.5166ZM44.1452 2.30395C43.8999 2.54928 43.5905 2.67195 43.2172 2.67195C42.8439 2.67195 42.5345 2.54928 42.2892 2.30395C42.0439 2.04795 41.9212 1.73862 41.9212 1.37595C41.9212 1.01328 42.0439 0.709284 42.2892 0.463951C42.5345 0.207951 42.8439 0.0799503 43.2172 0.0799503C43.5905 0.0799503 43.8999 0.207951 44.1452 0.463951C44.3905 0.709284 44.5132 1.01328 44.5132 1.37595C44.5132 1.73862 44.3905 2.04795 44.1452 2.30395ZM42.3372 11.2V3.74395H44.0812V11.2H42.3372Z" fill="#81818D" style="fill:#81818D;fill:color(display-p3 0.5059 0.5059 0.5529);fill-opacity:1;"/>
</svg>
