<svg width="92" height="14" viewBox="0 0 92 14" fill="none" xmlns="http://www.w3.org/2000/svg">
<path d="M8.79969 9.55195H9.66369V13.12H7.91969V11.2H1.83969V13.12H-0.000312477V9.55195H0.623688C0.986354 9.55195 1.25835 9.34928 1.43969 8.94395C1.63169 8.52795 1.72769 7.80795 1.72769 6.78395V-4.95911e-05H8.79969V9.55195ZM3.00769 9.55195H6.94369V1.64795H3.61569V6.75195C3.61569 7.89328 3.41302 8.82662 3.00769 9.55195ZM16.3244 6.39995L13.0124 10.576V11.2H11.2684V3.74395H13.0124V8.62395L16.3244 4.41595V3.74395H18.0684V11.2H16.3244V6.39995ZM20.3153 3.74395H23.7393C24.2406 3.74395 24.662 3.80795 25.0033 3.93595C25.3553 4.06395 25.6113 4.23995 25.7713 4.46395C25.9313 4.67728 26.0433 4.88528 26.1073 5.08795C26.1713 5.27995 26.2033 5.48795 26.2033 5.71195C26.2033 6.14928 26.0326 6.52262 25.6913 6.83195C25.35 7.14128 24.9446 7.31195 24.4753 7.34395C24.9873 7.36528 25.4246 7.53595 25.7873 7.85595C26.1606 8.16528 26.3473 8.59195 26.3473 9.13595C26.3473 9.34928 26.3046 9.56262 26.2193 9.77595C26.1446 9.98928 26.0166 10.2133 25.8353 10.448C25.654 10.672 25.3713 10.8533 24.9873 10.992C24.614 11.1306 24.1606 11.2 23.6273 11.2H20.3153V3.74395ZM23.5953 6.79995C23.8513 6.79995 24.0593 6.71462 24.2193 6.54395C24.3793 6.36262 24.4593 6.14395 24.4593 5.88795C24.4593 5.62128 24.3793 5.40262 24.2193 5.23195C24.0593 5.05062 23.8513 4.95995 23.5953 4.95995H22.0113V6.79995H23.5953ZM22.0113 8.01595V9.98395H23.6593C23.926 9.98395 24.15 9.88795 24.3313 9.69595C24.5126 9.50395 24.6033 9.27462 24.6033 9.00795C24.6033 8.74128 24.5126 8.51195 24.3313 8.31995C24.15 8.11728 23.926 8.01595 23.6593 8.01595H22.0113ZM33.1682 6.39995L29.8562 10.576V11.2H28.1122V3.74395H29.8562V8.62395L33.1682 4.41595V3.74395H34.9122V11.2H33.1682V6.39995ZM42.5511 3.74395V5.35995H40.3911V11.2H38.6471V5.35995H36.5191V3.74395H42.5511ZM49.1994 6.39995L45.8874 10.576V11.2H44.1434V3.74395H45.8874V8.62395L49.1994 4.41595V3.74395H50.9434V11.2H49.1994V6.39995ZM56.3423 11.392C55.201 11.392 54.2943 11.0346 53.6223 10.32C52.961 9.59462 52.6303 8.64528 52.6303 7.47195C52.6303 6.29862 52.961 5.35462 53.6223 4.63995C54.2943 3.91462 55.201 3.55195 56.3423 3.55195C57.3663 3.55195 58.1876 3.81328 58.8063 4.33595C59.4356 4.84795 59.793 5.53595 59.8783 6.39995H58.1343C57.9423 5.53595 57.345 5.10395 56.3423 5.10395C55.7236 5.10395 55.2383 5.31195 54.8863 5.72795C54.545 6.13328 54.3743 6.71462 54.3743 7.47195C54.3743 8.22928 54.545 8.81595 54.8863 9.23195C55.2383 9.63728 55.7236 9.83995 56.3423 9.83995C57.3343 9.83995 57.9316 9.43462 58.1343 8.62395H59.8783C59.793 9.46662 59.4356 10.1386 58.8063 10.64C58.1876 11.1413 57.3663 11.392 56.3423 11.392ZM61.5653 3.74395H63.3093V6.14395H65.0213C65.8746 6.14395 66.552 6.38928 67.0533 6.87995C67.5653 7.35995 67.8213 7.95728 67.8213 8.67195C67.8213 9.36528 67.5546 9.96262 67.0213 10.464C66.4986 10.9546 65.832 11.2 65.0213 11.2H61.5653V3.74395ZM63.3093 7.51995V9.82395H64.8133C65.1973 9.82395 65.4906 9.72262 65.6933 9.51995C65.896 9.30662 65.9973 9.02395 65.9973 8.67195C65.9973 8.31995 65.896 8.04262 65.6933 7.83995C65.4906 7.62662 65.1973 7.51995 64.8133 7.51995H63.3093ZM73.3466 3.74395H76.7706C77.2719 3.74395 77.6932 3.80795 78.0346 3.93595C78.3866 4.06395 78.6426 4.23995 78.8026 4.46395C78.9626 4.67728 79.0746 4.88528 79.1386 5.08795C79.2026 5.27995 79.2346 5.48795 79.2346 5.71195C79.2346 6.14928 79.0639 6.52262 78.7226 6.83195C78.3812 7.14128 77.9759 7.31195 77.5066 7.34395C78.0186 7.36528 78.4559 7.53595 78.8186 7.85595C79.1919 8.16528 79.3786 8.59195 79.3786 9.13595C79.3786 9.34928 79.3359 9.56262 79.2506 9.77595C79.1759 9.98928 79.0479 10.2133 78.8666 10.448C78.6852 10.672 78.4026 10.8533 78.0186 10.992C77.6452 11.1306 77.1919 11.2 76.6586 11.2H73.3466V3.74395ZM76.6266 6.79995C76.8826 6.79995 77.0906 6.71462 77.2506 6.54395C77.4106 6.36262 77.4906 6.14395 77.4906 5.88795C77.4906 5.62128 77.4106 5.40262 77.2506 5.23195C77.0906 5.05062 76.8826 4.95995 76.6266 4.95995H75.0426V6.79995H76.6266ZM75.0426 8.01595V9.98395H76.6906C76.9572 9.98395 77.1812 9.88795 77.3626 9.69595C77.5439 9.50395 77.6346 9.27462 77.6346 9.00795C77.6346 8.74128 77.5439 8.51195 77.3626 8.31995C77.1812 8.11728 76.9572 8.01595 76.6906 8.01595H75.0426ZM84.2954 11.392C83.1541 11.392 82.2474 11.0346 81.5754 10.32C80.9141 9.59462 80.5834 8.64528 80.5834 7.47195C80.5834 6.29862 80.9141 5.35462 81.5754 4.63995C82.2474 3.91462 83.1541 3.55195 84.2954 3.55195C85.3194 3.55195 86.1408 3.81328 86.7594 4.33595C87.3888 4.84795 87.7461 5.53595 87.8314 6.39995H86.0874C85.8954 5.53595 85.2981 5.10395 84.2954 5.10395C83.6768 5.10395 83.1914 5.31195 82.8394 5.72795C82.4981 6.13328 82.3274 6.71462 82.3274 7.47195C82.3274 8.22928 82.4981 8.81595 82.8394 9.23195C83.1914 9.63728 83.6768 9.83995 84.2954 9.83995C85.2874 9.83995 85.8848 9.43462 86.0874 8.62395H87.8314C87.7461 9.46662 87.3888 10.1386 86.7594 10.64C86.1408 11.1413 85.3194 11.392 84.2954 11.392ZM91.3264 2.30395C91.0811 2.54928 90.7718 2.67195 90.3984 2.67195C90.0251 2.67195 89.7158 2.54928 89.4704 2.30395C89.2251 2.04795 89.1024 1.73862 89.1024 1.37595C89.1024 1.01328 89.2251 0.709284 89.4704 0.463951C89.7158 0.207951 90.0251 0.0799503 90.3984 0.0799503C90.7718 0.0799503 91.0811 0.207951 91.3264 0.463951C91.5718 0.709284 91.6944 1.01328 91.6944 1.37595C91.6944 1.73862 91.5718 2.04795 91.3264 2.30395ZM89.5184 11.2V3.74395H91.2624V11.2H89.5184Z" fill="#543C52" style="fill:#543C52;fill:color(display-p3 0.3294 0.2353 0.3216);fill-opacity:1;"/>
</svg>
