<svg width="165" height="20" viewBox="0 0 165 20" fill="none" xmlns="http://www.w3.org/2000/svg">
<path d="M16.4883 11.0801H11.0796V16.4887C11.0796 16.7756 10.9656 17.0508 10.7628 17.2536C10.5599 17.4565 10.2848 17.5705 9.99788 17.5705C9.71099 17.5705 9.43585 17.4565 9.23299 17.2536C9.03012 17.0508 8.91615 16.7756 8.91615 16.4887V11.0801H3.50751C3.22062 11.0801 2.94548 10.9661 2.74261 10.7633C2.53975 10.5604 2.42578 10.2853 2.42578 9.99837C2.42578 9.71148 2.53975 9.43634 2.74261 9.23348C2.94548 9.03061 3.22062 8.91664 3.50751 8.91664H8.91615V3.508C8.91615 3.22111 9.03012 2.94596 9.23299 2.7431C9.43585 2.54024 9.71099 2.42627 9.99788 2.42627C10.2848 2.42627 10.5599 2.54024 10.7628 2.7431C10.9656 2.94596 11.0796 3.22111 11.0796 3.508V8.91664H16.4883C16.7751 8.91664 17.0503 9.03061 17.2532 9.23348C17.456 9.43634 17.57 9.71148 17.57 9.99837C17.57 10.2853 17.456 10.5604 17.2532 10.7633C17.0503 10.9661 16.7751 11.0801 16.4883 11.0801Z" fill="#543C52" style="fill:#543C52;fill:color(display-p3 0.3294 0.2353 0.3216);fill-opacity:1;"/>
<path d="M37.5653 13.352H38.4293V16.92H36.6853V15H30.6053V16.92H28.7653V13.352H29.3893C29.752 13.352 30.024 13.1493 30.2053 12.744C30.3973 12.328 30.4933 11.608 30.4933 10.584V3.8H37.5653V13.352ZM31.7733 13.352H35.7093V5.448H32.3813V10.552C32.3813 11.6933 32.1786 12.6267 31.7733 13.352ZM46.2741 14.088C45.5701 14.824 44.6154 15.192 43.4101 15.192C42.2047 15.192 41.2447 14.824 40.5301 14.088C39.8261 13.3413 39.4741 12.4027 39.4741 11.272C39.4741 10.1413 39.8261 9.208 40.5301 8.472C41.2447 7.72533 42.2047 7.352 43.4101 7.352C44.6154 7.352 45.5701 7.72533 46.2741 8.472C46.9887 9.208 47.3461 10.1413 47.3461 11.272C47.3461 12.4027 46.9887 13.3413 46.2741 14.088ZM41.7941 12.984C42.1887 13.4213 42.7274 13.64 43.4101 13.64C44.0927 13.64 44.6261 13.4213 45.0101 12.984C45.4047 12.5467 45.6021 11.976 45.6021 11.272C45.6021 10.568 45.4047 9.99733 45.0101 9.56C44.6261 9.12267 44.0927 8.904 43.4101 8.904C42.7274 8.904 42.1887 9.12267 41.7941 9.56C41.4101 9.99733 41.2181 10.568 41.2181 11.272C41.2181 11.976 41.4101 12.5467 41.7941 12.984ZM55.3299 13.352H56.1939V16.92H54.4499V15H49.7459V16.92H47.9059V13.352H48.6739C49.0899 13.0853 49.2979 12.5307 49.2979 11.688V7.544H55.3299V13.352ZM50.5299 13.56H53.5859V8.984H51.0419V11.608C51.0419 12.3653 50.8713 13.016 50.5299 13.56ZM60.9037 15.192C59.741 15.192 58.8397 14.824 58.1997 14.088C57.5597 13.352 57.2397 12.4133 57.2397 11.272C57.2397 10.1413 57.5757 9.208 58.2477 8.472C58.9197 7.72533 59.821 7.352 60.9517 7.352C61.453 7.352 61.9117 7.45867 62.3277 7.672C62.7437 7.88533 63.0637 8.17867 63.2877 8.552V7.544H65.0317V15H63.2877V13.992C63.0744 14.3547 62.7384 14.648 62.2797 14.872C61.8317 15.0853 61.373 15.192 60.9037 15.192ZM61.1597 13.64C61.8744 13.64 62.4184 13.416 62.7917 12.968C63.1757 12.52 63.3677 11.9547 63.3677 11.272C63.3677 10.5893 63.1757 10.024 62.7917 9.576C62.4184 9.128 61.8744 8.904 61.1597 8.904C60.4877 8.904 59.9544 9.128 59.5597 9.576C59.1757 10.0133 58.9837 10.5787 58.9837 11.272C58.9837 11.9653 59.1757 12.536 59.5597 12.984C59.9544 13.4213 60.4877 13.64 61.1597 13.64ZM72.6444 6.456C72.1324 6.872 71.4498 7.08 70.5964 7.08C69.7431 7.08 69.0551 6.872 68.5324 6.456C68.0204 6.02933 67.7378 5.45333 67.6844 4.728H69.1564C69.1991 5.45333 69.6791 5.816 70.5964 5.816C71.5138 5.816 71.9938 5.45333 72.0364 4.728H73.5084C73.4551 5.45333 73.1671 6.02933 72.6444 6.456ZM72.3244 10.2L69.0124 14.376V15H67.2684V7.544H69.0124V12.424L72.3244 8.216V7.544H74.0684V15H72.3244V10.2ZM81.7073 7.544V9.16H79.5473V15H77.8033V9.16H75.6753V7.544H81.7073ZM89.7392 10.888C89.7392 11.08 89.7232 11.4 89.6912 11.848H84.1552C84.1765 12.4347 84.3685 12.888 84.7312 13.208C85.0939 13.5173 85.5952 13.672 86.2352 13.672C87.0565 13.672 87.6112 13.3893 87.8992 12.824H89.6592C89.5419 13.5173 89.1632 14.088 88.5232 14.536C87.8939 14.9733 87.1312 15.192 86.2352 15.192C85.0619 15.192 84.1339 14.84 83.4512 14.136C82.7685 13.432 82.4272 12.4773 82.4272 11.272C82.4272 10.0773 82.7632 9.128 83.4352 8.424C84.1179 7.70933 85.0299 7.352 86.1712 7.352C87.2379 7.352 88.0965 7.68267 88.7472 8.344C89.4085 8.99467 89.7392 9.84267 89.7392 10.888ZM84.1552 10.52H88.0272C88.0165 9.944 87.8459 9.50133 87.5152 9.192C87.1952 8.88267 86.7365 8.728 86.1392 8.728C85.5312 8.728 85.0512 8.89333 84.6992 9.224C84.3472 9.55467 84.1659 9.98667 84.1552 10.52ZM100.497 7.544H102.241V15.032C102.241 16.1733 101.915 17.0587 101.265 17.688C100.635 18.264 99.7927 18.552 98.7367 18.552C97.638 18.552 96.7847 18.296 96.1767 17.784C95.6434 17.3147 95.366 16.6693 95.3447 15.848H97.1047C97.1474 16.2747 97.286 16.5893 97.5207 16.792C97.766 17.0053 98.1607 17.112 98.7047 17.112C99.2594 17.112 99.6967 16.9307 100.017 16.568C100.337 16.216 100.497 15.6613 100.497 14.904V13.96C100.017 14.7813 99.2167 15.192 98.0967 15.192C97.2114 15.192 96.5287 14.9093 96.0487 14.344C95.5794 13.768 95.3447 13.016 95.3447 12.088V7.544H97.0887V11.72C97.0887 13.0107 97.6274 13.656 98.7047 13.656C99.2914 13.656 99.734 13.448 100.033 13.032C100.342 12.616 100.497 12.072 100.497 11.4V7.544ZM108.647 15V12.408C108.125 12.7067 107.506 12.856 106.791 12.856C104.935 12.856 104.007 12.0187 104.007 10.344V7.544H105.751V10.12C105.751 10.9733 106.231 11.4 107.191 11.4C107.405 11.4 107.57 11.3947 107.687 11.384C107.805 11.3733 107.954 11.3307 108.135 11.256C108.327 11.1813 108.498 11.0693 108.647 10.92V7.544H110.391V15H108.647ZM115.732 15.192C114.569 15.192 113.668 14.824 113.028 14.088C112.388 13.352 112.068 12.4133 112.068 11.272C112.068 10.1413 112.404 9.208 113.076 8.472C113.748 7.72533 114.649 7.352 115.78 7.352C116.281 7.352 116.74 7.45867 117.156 7.672C117.572 7.88533 117.892 8.17867 118.116 8.552V7.544H119.86V15H118.116V13.992C117.902 14.3547 117.566 14.648 117.108 14.872C116.66 15.0853 116.201 15.192 115.732 15.192ZM115.988 13.64C116.702 13.64 117.246 13.416 117.62 12.968C118.004 12.52 118.196 11.9547 118.196 11.272C118.196 10.5893 118.004 10.024 117.62 9.576C117.246 9.128 116.702 8.904 115.988 8.904C115.316 8.904 114.782 9.128 114.388 9.576C114.004 10.0133 113.812 10.5787 113.812 11.272C113.812 11.9653 114.004 12.536 114.388 12.984C114.782 13.4213 115.316 13.64 115.988 13.64ZM125.249 15.192C124.107 15.192 123.201 14.8347 122.529 14.12C121.867 13.3947 121.537 12.4453 121.537 11.272C121.537 10.0987 121.867 9.15467 122.529 8.44C123.201 7.71467 124.107 7.352 125.249 7.352C126.273 7.352 127.094 7.61333 127.713 8.136C128.342 8.648 128.699 9.336 128.785 10.2H127.041C126.849 9.336 126.251 8.904 125.249 8.904C124.63 8.904 124.145 9.112 123.793 9.528C123.451 9.93333 123.281 10.5147 123.281 11.272C123.281 12.0293 123.451 12.616 123.793 13.032C124.145 13.4373 124.63 13.64 125.249 13.64C126.241 13.64 126.838 13.2347 127.041 12.424H128.785C128.699 13.2667 128.342 13.9387 127.713 14.44C127.094 14.9413 126.273 15.192 125.249 15.192ZM130.472 15V7.544H132.216V10.488H135.624V7.544H137.368V15H135.624V11.944H132.216V15H130.472ZM144.668 10.2L141.356 14.376V15H139.612V7.544H141.356V12.424L144.668 8.216V7.544H146.412V15H144.668V10.2ZM155.315 15H153.171L150.403 11.592V15H148.659V7.544H150.403V10.664H150.563C150.883 10.664 151.166 10.4987 151.411 10.168L152.723 8.376C152.99 8.01333 153.235 7.77333 153.459 7.656C153.694 7.528 154.008 7.464 154.403 7.464H154.995V9.032H154.739C154.398 9.032 154.12 9.18133 153.907 9.48L153.299 10.328C153.086 10.6373 152.899 10.84 152.739 10.936C152.579 11.0213 152.382 11.064 152.147 11.064H152.035L155.315 15ZM159.31 15.192C158.147 15.192 157.246 14.824 156.606 14.088C155.966 13.352 155.646 12.4133 155.646 11.272C155.646 10.1413 155.982 9.208 156.654 8.472C157.326 7.72533 158.227 7.352 159.358 7.352C159.859 7.352 160.318 7.45867 160.734 7.672C161.15 7.88533 161.47 8.17867 161.694 8.552V7.544H163.438V15H161.694V13.992C161.481 14.3547 161.145 14.648 160.686 14.872C160.238 15.0853 159.779 15.192 159.31 15.192ZM159.566 13.64C160.281 13.64 160.825 13.416 161.198 12.968C161.582 12.52 161.774 11.9547 161.774 11.272C161.774 10.5893 161.582 10.024 161.198 9.576C160.825 9.128 160.281 8.904 159.566 8.904C158.894 8.904 158.361 9.128 157.966 9.576C157.582 10.0133 157.39 10.5787 157.39 11.272C157.39 11.9653 157.582 12.536 157.966 12.984C158.361 13.4213 158.894 13.64 159.566 13.64Z" fill="#543C52" style="fill:#543C52;fill:color(display-p3 0.3294 0.2353 0.3216);fill-opacity:1;"/>
</svg>
