<svg width="319" height="23" viewBox="0 0 319 23" fill="none" xmlns="http://www.w3.org/2000/svg">
<path d="M2.57901 8.9981C2.57893 8.27294 2.75909 7.55913 3.1033 6.92087C3.44751 6.28261 3.94498 5.73992 4.55095 5.34162C5.15693 4.94331 5.85241 4.70187 6.57484 4.63902C7.29727 4.57617 8.02399 4.69388 8.68965 4.98157C9.3553 5.26925 9.93901 5.71788 10.3883 6.28711C10.8375 6.85634 11.1382 7.52831 11.2634 8.24259C11.3885 8.95688 11.3341 9.69106 11.1052 10.3791C10.8762 11.0672 10.4797 11.6875 9.95151 12.1843C10.9474 12.6678 11.8121 13.3843 12.4722 14.2729C13.1324 15.1616 13.5687 16.1963 13.744 17.2893C13.7633 17.411 13.7584 17.5352 13.7297 17.655C13.701 17.7747 13.6489 17.8877 13.5766 17.9873C13.5042 18.087 13.4129 18.1714 13.3079 18.2358C13.2029 18.3001 13.0863 18.3432 12.9646 18.3625C12.843 18.3818 12.7188 18.3769 12.599 18.3482C12.4792 18.3194 12.3663 18.2674 12.2667 18.195C12.167 18.1227 12.0826 18.0314 12.0182 17.9264C11.9539 17.8214 11.9108 17.7047 11.8915 17.5831C11.704 16.4085 11.1039 15.3392 10.199 14.5672C9.29402 13.7953 8.1435 13.3712 6.95401 13.3712C5.76453 13.3712 4.61401 13.7953 3.70906 14.5672C2.8041 15.3392 2.204 16.4085 2.01651 17.5831C1.99714 17.7047 1.95401 17.8214 1.88956 17.9263C1.82512 18.0313 1.74063 18.1225 1.64092 18.1949C1.54122 18.2672 1.42824 18.3191 1.30845 18.3478C1.18866 18.3764 1.0644 18.3812 0.942764 18.3618C0.821128 18.3425 0.704497 18.2993 0.599532 18.2349C0.494566 18.1705 0.403322 18.086 0.331009 17.9863C0.258695 17.8865 0.206728 17.7736 0.178075 17.6538C0.149422 17.534 0.144645 17.4097 0.164015 17.2881C0.33873 16.1951 0.774757 15.1605 1.43503 14.2721C2.09531 13.3838 2.96031 12.668 3.95651 12.1856C3.52152 11.7764 3.17489 11.2826 2.93799 10.7344C2.70108 10.1862 2.57892 9.59529 2.57901 8.9981ZM13.829 7.1231C14.5553 7.12361 15.2658 7.33493 15.8743 7.73141C16.4828 8.12789 16.9631 8.69249 17.2569 9.35666C17.5508 10.0208 17.6455 10.756 17.5296 11.473C17.4137 12.1899 17.0921 12.8578 16.604 13.3956C17.3653 13.7727 18.0417 14.3011 18.5919 14.9484C19.1421 15.5958 19.5545 16.3485 19.804 17.1606C19.8536 17.3182 19.8605 17.4861 19.8242 17.6472C19.7879 17.8084 19.7096 17.9571 19.5973 18.0782C19.4849 18.1993 19.3425 18.2885 19.1845 18.3368C19.0266 18.3851 18.8586 18.3907 18.6978 18.3531C18.5369 18.3159 18.3888 18.2369 18.2683 18.1241C18.1478 18.0113 18.0592 17.8686 18.0115 17.7106C17.7872 16.986 17.3788 16.332 16.8263 15.8124C16.2738 15.2927 15.596 14.9252 14.859 14.7456C14.6543 14.6962 14.4722 14.5793 14.3421 14.4138C14.2119 14.2482 14.1412 14.0437 14.1415 13.8331V13.3931C14.1414 13.2186 14.19 13.0475 14.2819 12.899C14.3738 12.7506 14.5052 12.6308 14.6615 12.5531C15.0405 12.3653 15.3448 12.0549 15.5251 11.6723C15.7053 11.2897 15.751 10.8574 15.6545 10.4456C15.5581 10.0338 15.3253 9.66668 14.9939 9.40391C14.6625 9.14113 14.252 8.99812 13.829 8.9981C13.5804 8.9981 13.3419 8.89933 13.1661 8.72351C12.9903 8.5477 12.8915 8.30924 12.8915 8.0606C12.8915 7.81196 12.9903 7.5735 13.1661 7.39769C13.3419 7.22187 13.5804 7.1231 13.829 7.1231ZM6.95401 6.4981C6.62109 6.49057 6.29002 6.54963 5.98023 6.67181C5.67045 6.79399 5.3882 6.97684 5.15005 7.2096C4.9119 7.44237 4.72265 7.72037 4.59342 8.02728C4.46419 8.33419 4.39758 8.66383 4.3975 8.99683C4.39741 9.32984 4.46386 9.65951 4.59294 9.96649C4.72202 10.2735 4.91112 10.5516 5.14915 10.7844C5.38719 11.0173 5.66935 11.2003 5.97907 11.3226C6.28879 11.445 6.61984 11.5042 6.95276 11.4968C7.60597 11.4824 8.22756 11.2128 8.68448 10.7458C9.1414 10.2788 9.39733 9.65145 9.3975 8.99808C9.39766 8.34472 9.14204 7.71726 8.68535 7.25001C8.22867 6.78277 7.60721 6.51287 6.95401 6.4981Z" fill="#81818D" style="fill:#81818D;fill:color(display-p3 0.5059 0.5059 0.5529);fill-opacity:1;"/>
<path d="M34.4409 10.86L40.4209 18H37.5409L32.2609 11.34V18H29.9609V4H32.2609V9.86H32.6609C33.1543 9.86 33.5543 9.6 33.8609 9.08L35.9409 5.9C36.4076 5.18 36.8276 4.66667 37.2009 4.36C37.5743 4.05333 38.0409 3.9 38.6009 3.9H39.7809V5.98H39.1209C38.8676 5.98 38.6343 6.05333 38.4209 6.2C38.2209 6.34667 37.9809 6.63333 37.7009 7.06L35.6609 10.24C35.3809 10.6533 35.0276 10.86 34.6009 10.86H34.4409ZM49.8289 16.86C48.9489 17.78 47.7556 18.24 46.2489 18.24C44.7422 18.24 43.5422 17.78 42.6489 16.86C41.7689 15.9267 41.3289 14.7533 41.3289 13.34C41.3289 11.9267 41.7689 10.76 42.6489 9.84C43.5422 8.90667 44.7422 8.44 46.2489 8.44C47.7556 8.44 48.9489 8.90667 49.8289 9.84C50.7222 10.76 51.1689 11.9267 51.1689 13.34C51.1689 14.7533 50.7222 15.9267 49.8289 16.86ZM44.2289 15.48C44.7222 16.0267 45.3956 16.3 46.2489 16.3C47.1022 16.3 47.7689 16.0267 48.2489 15.48C48.7422 14.9333 48.9889 14.22 48.9889 13.34C48.9889 12.46 48.7422 11.7467 48.2489 11.2C47.7689 10.6533 47.1022 10.38 46.2489 10.38C45.3956 10.38 44.7222 10.6533 44.2289 11.2C43.7489 11.7467 43.5089 12.46 43.5089 13.34C43.5089 14.22 43.7489 14.9333 44.2289 15.48ZM53.2594 18V8.68H55.4394V12.36H59.6994V8.68H61.8794V18H59.6994V14.18H55.4394V18H53.2594ZM71.4252 8.68V10.7H68.7252V18H66.5452V10.7H63.8852V8.68H71.4252ZM76.905 18.24C75.4517 18.24 74.325 17.78 73.525 16.86C72.725 15.94 72.325 14.7667 72.325 13.34C72.325 11.9267 72.745 10.76 73.585 9.84C74.425 8.90667 75.5517 8.44 76.965 8.44C77.5917 8.44 78.165 8.57333 78.685 8.84C79.205 9.10667 79.605 9.47333 79.885 9.94V8.68H82.065V18H79.885V16.74C79.6183 17.1933 79.1983 17.56 78.625 17.84C78.065 18.1067 77.4917 18.24 76.905 18.24ZM77.225 16.3C78.1183 16.3 78.7983 16.02 79.265 15.46C79.745 14.9 79.985 14.1933 79.985 13.34C79.985 12.4867 79.745 11.78 79.265 11.22C78.7983 10.66 78.1183 10.38 77.225 10.38C76.385 10.38 75.7183 10.66 75.225 11.22C74.745 11.7667 74.505 12.4733 74.505 13.34C74.505 14.2067 74.745 14.92 75.225 15.48C75.7183 16.0267 76.385 16.3 77.225 16.3ZM93.1809 18H90.5009L87.0409 13.74V18H84.8609V8.68H87.0409V12.58H87.2409C87.6409 12.58 87.9943 12.3733 88.3009 11.96L89.9409 9.72C90.2743 9.26667 90.5809 8.96667 90.8609 8.82C91.1543 8.66 91.5476 8.58 92.0409 8.58H92.7809V10.54H92.4609C92.0343 10.54 91.6876 10.7267 91.4209 11.1L90.6609 12.16C90.3943 12.5467 90.1609 12.8 89.9609 12.92C89.7609 13.0267 89.5143 13.08 89.2209 13.08H89.0809L93.1809 18ZM101.64 8.68V10.7H98.94V18H96.76V10.7H94.1V8.68H101.64ZM109.95 12L105.81 17.22V18H103.63V8.68H105.81V14.78L109.95 9.52V8.68H112.13V18H109.95V12Z" fill="#81818D" style="fill:#81818D;fill:color(display-p3 0.5059 0.5059 0.5529);fill-opacity:1;"/>
</svg>
