<svg width="61" height="40" viewBox="0 0 61 40" fill="none" xmlns="http://www.w3.org/2000/svg">
<rect width="61" height="40" rx="20" fill="#543C52" style="fill:#543C52;fill:color(display-p3 0.3294 0.2353 0.3216);fill-opacity:1;"/>
<path d="M23.98 23.558H24.736V26.68H23.21V25H17.89V26.68H16.28V23.558H16.826C17.1433 23.558 17.3813 23.3807 17.54 23.026C17.708 22.662 17.792 22.032 17.792 21.136V15.2H23.98V23.558ZM18.912 23.558H22.356V16.642H19.444V21.108C19.444 22.1067 19.2667 22.9233 18.912 23.558ZM28.7722 25.168C27.7548 25.168 26.9662 24.846 26.4062 24.202C25.8462 23.558 25.5662 22.7367 25.5662 21.738C25.5662 20.7487 25.8602 19.932 26.4482 19.288C27.0362 18.6347 27.8248 18.308 28.8142 18.308C29.2528 18.308 29.6542 18.4013 30.0182 18.588C30.3822 18.7747 30.6622 19.0313 30.8582 19.358V18.476H32.3842V25H30.8582V24.118C30.6715 24.4353 30.3775 24.692 29.9762 24.888C29.5842 25.0747 29.1828 25.168 28.7722 25.168ZM28.9962 23.81C29.6215 23.81 30.0975 23.614 30.4242 23.222C30.7602 22.83 30.9282 22.3353 30.9282 21.738C30.9282 21.1407 30.7602 20.646 30.4242 20.254C30.0975 19.862 29.6215 19.666 28.9962 19.666C28.4082 19.666 27.9415 19.862 27.5962 20.254C27.2602 20.6367 27.0922 21.1313 27.0922 21.738C27.0922 22.3447 27.2602 22.844 27.5962 23.236C27.9415 23.6187 28.4082 23.81 28.9962 23.81ZM33.6973 23.628H33.9493C34.6306 23.628 34.9713 23.1567 34.9713 22.214V18.476H40.0813V25H38.5553V19.89H36.4973V22.144C36.4973 23.0493 36.3013 23.7633 35.9093 24.286C35.5173 24.8087 34.9666 25.07 34.2573 25.07H33.6973V23.628ZM43.5346 17.216C43.3199 17.4307 43.0493 17.538 42.7226 17.538C42.3959 17.538 42.1253 17.4307 41.9106 17.216C41.6959 16.992 41.5886 16.7213 41.5886 16.404C41.5886 16.0867 41.6959 15.8207 41.9106 15.606C42.1253 15.382 42.3959 15.27 42.7226 15.27C43.0493 15.27 43.3199 15.382 43.5346 15.606C43.7493 15.8207 43.8566 16.0867 43.8566 16.404C43.8566 16.7213 43.7493 16.992 43.5346 17.216ZM41.9526 25V18.476H43.4786V25H41.9526Z" fill="white" style="fill:white;fill-opacity:1;"/>
</svg>
