<svg width="351" height="40" viewBox="0 0 351 40" fill="none" xmlns="http://www.w3.org/2000/svg">
<rect width="351" height="40" rx="20" fill="#543C52" style="fill:#543C52;fill:color(display-p3 0.3294 0.2353 0.3216);fill-opacity:1;"/>
<path d="M103.49 21.0801H98.0816V26.4887C98.0816 26.7756 97.9676 27.0508 97.7647 27.2536C97.5619 27.4565 97.2867 27.5705 96.9998 27.5705C96.7129 27.5705 96.4378 27.4565 96.2349 27.2536C96.0321 27.0508 95.9181 26.7756 95.9181 26.4887V21.0801H90.5095C90.2226 21.0801 89.9474 20.9661 89.7446 20.7633C89.5417 20.5604 89.4277 20.2853 89.4277 19.9984C89.4277 19.7115 89.5417 19.4363 89.7446 19.2335C89.9474 19.0306 90.2226 18.9166 90.5095 18.9166H95.9181V13.508C95.9181 13.2211 96.0321 12.946 96.2349 12.7431C96.4378 12.5402 96.7129 12.4263 96.9998 12.4263C97.2867 12.4263 97.5619 12.5402 97.7647 12.7431C97.9676 12.946 98.0816 13.2211 98.0816 13.508V18.9166H103.49C103.777 18.9166 104.052 19.0306 104.255 19.2335C104.458 19.4363 104.572 19.7115 104.572 19.9984C104.572 20.2853 104.458 20.5604 104.255 20.7633C104.052 20.9661 103.777 21.0801 103.49 21.0801Z" fill="white" style="fill:white;fill-opacity:1;"/>
<path d="M120.586 25.238C119.018 25.238 117.777 24.762 116.862 23.81C115.947 22.858 115.49 21.6213 115.49 20.1C115.49 18.5787 115.947 17.342 116.862 16.39C117.777 15.438 119.018 14.962 120.586 14.962C121.902 14.962 122.985 15.298 123.834 15.97C124.683 16.6327 125.183 17.496 125.332 18.56H123.568C123.409 17.888 123.073 17.3607 122.56 16.978C122.056 16.5953 121.403 16.404 120.6 16.404C119.527 16.404 118.687 16.74 118.08 17.412C117.483 18.0747 117.184 18.9707 117.184 20.1C117.184 21.2293 117.483 22.13 118.08 22.802C118.687 23.4647 119.527 23.796 120.6 23.796C121.403 23.796 122.056 23.6047 122.56 23.222C123.073 22.8393 123.409 22.312 123.568 21.64H125.332C125.183 22.704 124.683 23.572 123.834 24.244C122.985 24.9067 121.902 25.238 120.586 25.238ZM131.374 18.476V19.89H129.484V25H127.958V19.89H126.096V18.476H131.374ZM132.683 18.476H135.679C136.118 18.476 136.486 18.532 136.785 18.644C137.093 18.756 137.317 18.91 137.457 19.106C137.597 19.2927 137.695 19.4747 137.751 19.652C137.807 19.82 137.835 20.002 137.835 20.198C137.835 20.5807 137.686 20.9073 137.387 21.178C137.088 21.4487 136.734 21.598 136.323 21.626C136.771 21.6447 137.154 21.794 137.471 22.074C137.798 22.3447 137.961 22.718 137.961 23.194C137.961 23.3807 137.924 23.5673 137.849 23.754C137.784 23.9407 137.672 24.1367 137.513 24.342C137.354 24.538 137.107 24.6967 136.771 24.818C136.444 24.9393 136.048 25 135.581 25H132.683V18.476ZM135.553 21.15C135.777 21.15 135.959 21.0753 136.099 20.926C136.239 20.7673 136.309 20.576 136.309 20.352C136.309 20.1187 136.239 19.9273 136.099 19.778C135.959 19.6193 135.777 19.54 135.553 19.54H134.167V21.15H135.553ZM134.167 22.214V23.936H135.609C135.842 23.936 136.038 23.852 136.197 23.684C136.356 23.516 136.435 23.3153 136.435 23.082C136.435 22.8487 136.356 22.648 136.197 22.48C136.038 22.3027 135.842 22.214 135.609 22.214H134.167ZM144.881 24.202C144.265 24.846 143.43 25.168 142.375 25.168C141.321 25.168 140.481 24.846 139.855 24.202C139.239 23.5487 138.931 22.7273 138.931 21.738C138.931 20.7487 139.239 19.932 139.855 19.288C140.481 18.6347 141.321 18.308 142.375 18.308C143.43 18.308 144.265 18.6347 144.881 19.288C145.507 19.932 145.819 20.7487 145.819 21.738C145.819 22.7273 145.507 23.5487 144.881 24.202ZM140.961 23.236C141.307 23.6187 141.778 23.81 142.375 23.81C142.973 23.81 143.439 23.6187 143.775 23.236C144.121 22.8533 144.293 22.354 144.293 21.738C144.293 21.122 144.121 20.6227 143.775 20.24C143.439 19.8573 142.973 19.666 142.375 19.666C141.778 19.666 141.307 19.8573 140.961 20.24C140.625 20.6227 140.457 21.122 140.457 21.738C140.457 22.354 140.625 22.8533 140.961 23.236ZM150.909 18.308C151.842 18.308 152.593 18.6253 153.163 19.26C153.732 19.8853 154.017 20.7113 154.017 21.738C154.017 22.746 153.718 23.572 153.121 24.216C152.523 24.8507 151.753 25.168 150.811 25.168C150.381 25.168 149.975 25.0747 149.593 24.888C149.21 24.692 148.921 24.4353 148.725 24.118V27.94H147.199V18.476H148.725V19.358C148.921 19.0407 149.219 18.7887 149.621 18.602C150.022 18.406 150.451 18.308 150.909 18.308ZM150.587 23.81C151.147 23.81 151.604 23.6187 151.959 23.236C152.313 22.844 152.491 22.3447 152.491 21.738C152.491 21.1313 152.313 20.6367 151.959 20.254C151.604 19.862 151.147 19.666 150.587 19.666C150.008 19.666 149.541 19.8573 149.187 20.24C148.832 20.6227 148.655 21.122 148.655 21.738C148.655 22.354 148.832 22.8533 149.187 23.236C149.541 23.6187 150.008 23.81 150.587 23.81ZM159.824 20.8L156.926 24.454V25H155.4V18.476H156.926V22.746L159.824 19.064V18.476H161.35V25H159.824V20.8ZM167.95 18.476V19.89H166.06V25H164.534V19.89H162.672V18.476H167.95ZM173.683 20.8L170.785 24.454V25H169.259V18.476H170.785V22.746L173.683 19.064V18.476H175.209V25H173.683V20.8ZM184.511 18.476V19.89H182.033V25H180.507V18.476H184.511ZM189.397 18.308C190.33 18.308 191.082 18.6253 191.651 19.26C192.22 19.8853 192.505 20.7113 192.505 21.738C192.505 22.746 192.206 23.572 191.609 24.216C191.012 24.8507 190.242 25.168 189.299 25.168C188.87 25.168 188.464 25.0747 188.081 24.888C187.698 24.692 187.409 24.4353 187.213 24.118V27.94H185.687V18.476H187.213V19.358C187.409 19.0407 187.708 18.7887 188.109 18.602C188.51 18.406 188.94 18.308 189.397 18.308ZM189.075 23.81C189.635 23.81 190.092 23.6187 190.447 23.236C190.802 22.844 190.979 22.3447 190.979 21.738C190.979 21.1313 190.802 20.6367 190.447 20.254C190.092 19.862 189.635 19.666 189.075 19.666C188.496 19.666 188.03 19.8573 187.675 20.24C187.32 20.6227 187.143 21.122 187.143 21.738C187.143 22.354 187.32 22.8533 187.675 23.236C188.03 23.6187 188.496 23.81 189.075 23.81ZM198.326 18.476H199.852V25.028C199.852 26.0267 199.567 26.8013 198.998 27.352C198.447 27.856 197.71 28.108 196.786 28.108C195.825 28.108 195.078 27.884 194.546 27.436C194.079 27.0253 193.837 26.4607 193.818 25.742H195.358C195.395 26.1153 195.517 26.3907 195.722 26.568C195.937 26.7547 196.282 26.848 196.758 26.848C197.243 26.848 197.626 26.6893 197.906 26.372C198.186 26.064 198.326 25.5787 198.326 24.916V24.09C197.906 24.8087 197.206 25.168 196.226 25.168C195.451 25.168 194.854 24.9207 194.434 24.426C194.023 23.922 193.818 23.264 193.818 22.452V18.476H195.344V22.13C195.344 23.2593 195.815 23.824 196.758 23.824C197.271 23.824 197.659 23.642 197.92 23.278C198.191 22.914 198.326 22.438 198.326 21.85V18.476ZM207.628 25H206.102V19.75H203.26V25H201.734V18.476H207.628V25ZM214.957 24.202C214.341 24.846 213.506 25.168 212.451 25.168C211.397 25.168 210.557 24.846 209.931 24.202C209.315 23.5487 209.007 22.7273 209.007 21.738C209.007 20.7487 209.315 19.932 209.931 19.288C210.557 18.6347 211.397 18.308 212.451 18.308C213.506 18.308 214.341 18.6347 214.957 19.288C215.583 19.932 215.895 20.7487 215.895 21.738C215.895 22.7273 215.583 23.5487 214.957 24.202ZM211.037 23.236C211.383 23.6187 211.854 23.81 212.451 23.81C213.049 23.81 213.515 23.6187 213.851 23.236C214.197 22.8533 214.369 22.354 214.369 21.738C214.369 21.122 214.197 20.6227 213.851 20.24C213.515 19.8573 213.049 19.666 212.451 19.666C211.854 19.666 211.383 19.8573 211.037 20.24C210.701 20.6227 210.533 21.122 210.533 21.738C210.533 22.354 210.701 22.8533 211.037 23.236ZM217.275 18.476H220.271C220.709 18.476 221.078 18.532 221.377 18.644C221.685 18.756 221.909 18.91 222.049 19.106C222.189 19.2927 222.287 19.4747 222.343 19.652C222.399 19.82 222.427 20.002 222.427 20.198C222.427 20.5807 222.277 20.9073 221.979 21.178C221.68 21.4487 221.325 21.598 220.915 21.626C221.363 21.6447 221.745 21.794 222.063 22.074C222.389 22.3447 222.553 22.718 222.553 23.194C222.553 23.3807 222.515 23.5673 222.441 23.754C222.375 23.9407 222.263 24.1367 222.105 24.342C221.946 24.538 221.699 24.6967 221.363 24.818C221.036 24.9393 220.639 25 220.173 25H217.275V18.476ZM220.145 21.15C220.369 21.15 220.551 21.0753 220.691 20.926C220.831 20.7673 220.901 20.576 220.901 20.352C220.901 20.1187 220.831 19.9273 220.691 19.778C220.551 19.6193 220.369 19.54 220.145 19.54H218.759V21.15H220.145ZM218.759 22.214V23.936H220.201C220.434 23.936 220.63 23.852 220.789 23.684C220.947 23.516 221.027 23.3153 221.027 23.082C221.027 22.8487 220.947 22.648 220.789 22.48C220.63 22.3027 220.434 22.214 220.201 22.214H218.759ZM228.437 20.8L225.539 24.454V25H224.013V18.476H225.539V22.746L228.437 19.064V18.476H229.963V25H228.437V20.8ZM236.549 17.524C236.101 17.888 235.504 18.07 234.757 18.07C234.01 18.07 233.408 17.888 232.951 17.524C232.503 17.1507 232.256 16.6467 232.209 16.012H233.497C233.534 16.6467 233.954 16.964 234.757 16.964C235.56 16.964 235.98 16.6467 236.017 16.012H237.305C237.258 16.6467 237.006 17.1507 236.549 17.524ZM236.269 20.8L233.371 24.454V25H231.845V18.476H233.371V22.746L236.269 19.064V18.476H237.795V25H236.269V20.8ZM246.733 25V22.732C246.276 22.9933 245.734 23.124 245.109 23.124C243.485 23.124 242.673 22.3913 242.673 20.926V18.476H244.199V20.73C244.199 21.4767 244.619 21.85 245.459 21.85C245.646 21.85 245.79 21.8453 245.893 21.836C245.996 21.8267 246.126 21.7893 246.285 21.724C246.453 21.6587 246.602 21.5607 246.733 21.43V18.476H248.259V25H246.733ZM252.848 25.168C251.831 25.168 251.042 24.846 250.482 24.202C249.922 23.558 249.642 22.7367 249.642 21.738C249.642 20.7487 249.936 19.932 250.524 19.288C251.112 18.6347 251.901 18.308 252.89 18.308C253.329 18.308 253.73 18.4013 254.094 18.588C254.458 18.7747 254.738 19.0313 254.934 19.358V18.476H256.46V25H254.934V24.118C254.747 24.4353 254.453 24.692 254.052 24.888C253.66 25.0747 253.259 25.168 252.848 25.168ZM253.072 23.81C253.697 23.81 254.173 23.614 254.5 23.222C254.836 22.83 255.004 22.3353 255.004 21.738C255.004 21.1407 254.836 20.646 254.5 20.254C254.173 19.862 253.697 19.666 253.072 19.666C252.484 19.666 252.017 19.862 251.672 20.254C251.336 20.6367 251.168 21.1313 251.168 21.738C251.168 22.3447 251.336 22.844 251.672 23.236C252.017 23.6187 252.484 23.81 253.072 23.81ZM263.051 18.476V19.89H261.161V25H259.635V19.89H257.773V18.476H263.051Z" fill="white" style="fill:white;fill-opacity:1;"/>
</svg>
