<svg width="128" height="20" viewBox="0 0 128 20" fill="none" xmlns="http://www.w3.org/2000/svg">
<path d="M3.33203 5.83333H16.6654M8.33203 9.16667V14.1667M11.6654 9.16667V14.1667M4.16536 5.83333L4.9987 15.8333C4.9987 16.2754 5.17429 16.6993 5.48685 17.0118C5.79941 17.3244 6.22334 17.5 6.66536 17.5H13.332C13.7741 17.5 14.198 17.3244 14.5105 17.0118C14.8231 16.6993 14.9987 16.2754 14.9987 15.8333L15.832 5.83333M7.4987 5.83333V3.33333C7.4987 3.11232 7.5865 2.90036 7.74278 2.74408C7.89906 2.5878 8.11102 2.5 8.33203 2.5H11.6654C11.8864 2.5 12.0983 2.5878 12.2546 2.74408C12.4109 2.90036 12.4987 3.11232 12.4987 3.33333V5.83333" stroke="#070A1C" style="stroke:#070A1C;stroke:color(display-p3 0.0275 0.0392 0.1098);stroke-opacity:1;" stroke-width="1.66667" stroke-linecap="round" stroke-linejoin="round"/>
<path d="M36.5304 9.24C37.181 9.304 37.725 9.57067 38.1624 10.04C38.6104 10.4987 38.8344 11.112 38.8344 11.88C38.8344 12.8507 38.5144 13.6133 37.8744 14.168C37.245 14.7227 36.3757 15 35.2664 15H31.3144V3.8H35.0584C36.1784 3.8 37.0584 4.06133 37.6984 4.584C38.3384 5.096 38.6584 5.80533 38.6584 6.712C38.6584 8.12 37.949 8.96267 36.5304 9.24ZM34.9784 5.416H33.1544V8.488H34.9784C35.5544 8.488 36.0024 8.35467 36.3224 8.088C36.653 7.81067 36.8184 7.432 36.8184 6.952C36.8184 6.46133 36.6584 6.08267 36.3384 5.816C36.0184 5.54933 35.565 5.416 34.9784 5.416ZM35.2344 13.384C35.789 13.384 36.221 13.2347 36.5304 12.936C36.8397 12.6373 36.9944 12.2213 36.9944 11.688C36.9944 11.2187 36.8344 10.84 36.5144 10.552C36.1944 10.2533 35.773 10.104 35.2504 10.104H33.1544V13.384H35.2344ZM45.4898 10.2L42.1778 14.376V15H40.4338V7.544H42.1778V12.424L45.4898 8.216V7.544H47.2338V15H45.4898V10.2ZM55.9446 13.352H56.8086V16.92H55.0646V15H50.3606V16.92H48.5206V13.352H49.2886C49.7046 13.0853 49.9126 12.5307 49.9126 11.688V7.544H55.9446V13.352ZM51.1446 13.56H54.2006V8.984H51.6566V11.608C51.6566 12.3653 51.486 13.016 51.1446 13.56ZM61.3584 15.192C60.1957 15.192 59.2944 14.824 58.6544 14.088C58.0144 13.352 57.6944 12.4133 57.6944 11.272C57.6944 10.1413 58.0304 9.208 58.7024 8.472C59.3744 7.72533 60.2757 7.352 61.4064 7.352C61.9077 7.352 62.3664 7.45867 62.7824 7.672C63.1984 7.88533 63.5184 8.17867 63.7424 8.552V7.544H65.4864V15H63.7424V13.992C63.529 14.3547 63.193 14.648 62.7344 14.872C62.2864 15.0853 61.8277 15.192 61.3584 15.192ZM61.6144 13.64C62.329 13.64 62.873 13.416 63.2464 12.968C63.6304 12.52 63.8224 11.9547 63.8224 11.272C63.8224 10.5893 63.6304 10.024 63.2464 9.576C62.873 9.128 62.329 8.904 61.6144 8.904C60.9424 8.904 60.409 9.128 60.0144 9.576C59.6304 10.0133 59.4384 10.5787 59.4384 11.272C59.4384 11.9653 59.6304 12.536 60.0144 12.984C60.409 13.4213 60.9424 13.64 61.6144 13.64ZM66.9231 13.432H67.2111C67.9898 13.432 68.3791 12.8933 68.3791 11.816V7.544H74.2191V15H72.4751V9.16H70.1231V11.736C70.1231 12.7707 69.8991 13.5867 69.4511 14.184C69.0031 14.7813 68.3738 15.08 67.5631 15.08H66.9231V13.432ZM81.3498 10.2L78.0378 14.376V15H76.2938V7.544H78.0378V12.424L81.3498 8.216V7.544H83.0938V15H81.3498V10.2ZM90.5726 7.544V9.16H88.4126V15H86.6686V9.16H84.5406V7.544H90.5726ZM97.061 10.2L93.749 14.376V15H92.005V7.544H93.749V12.424L97.061 8.216V7.544H98.805V15H97.061V10.2ZM108.892 15V12.408C108.369 12.7067 107.751 12.856 107.036 12.856C105.18 12.856 104.252 12.0187 104.252 10.344V7.544H105.996V10.12C105.996 10.9733 106.476 11.4 107.436 11.4C107.649 11.4 107.815 11.3947 107.932 11.384C108.049 11.3733 108.199 11.3307 108.38 11.256C108.572 11.1813 108.743 11.0693 108.892 10.92V7.544H110.636V15H108.892ZM115.816 15.192C114.654 15.192 113.752 14.824 113.112 14.088C112.472 13.352 112.152 12.4133 112.152 11.272C112.152 10.1413 112.488 9.208 113.16 8.472C113.832 7.72533 114.734 7.352 115.864 7.352C116.366 7.352 116.824 7.45867 117.24 7.672C117.656 7.88533 117.976 8.17867 118.2 8.552V7.544H119.944V15H118.2V13.992C117.987 14.3547 117.651 14.648 117.192 14.872C116.744 15.0853 116.286 15.192 115.816 15.192ZM116.072 13.64C116.787 13.64 117.331 13.416 117.704 12.968C118.088 12.52 118.28 11.9547 118.28 11.272C118.28 10.5893 118.088 10.024 117.704 9.576C117.331 9.128 116.787 8.904 116.072 8.904C115.4 8.904 114.867 9.128 114.472 9.576C114.088 10.0133 113.896 10.5787 113.896 11.272C113.896 11.9653 114.088 12.536 114.472 12.984C114.867 13.4213 115.4 13.64 116.072 13.64ZM127.413 7.544V9.16H125.253V15H123.509V9.16H121.381V7.544H127.413Z" fill="#070A1C" style="fill:#070A1C;fill:color(display-p3 0.0275 0.0392 0.1098);fill-opacity:1;"/>
</svg>
