<svg width="159" height="20" viewBox="0 0 159 20" fill="none" xmlns="http://www.w3.org/2000/svg">
<path d="M4.16667 15.8333H5.35417L13.5 7.6875L12.3125 6.5L4.16667 14.6458V15.8333ZM2.5 17.5V13.9583L13.5 2.97917C13.6667 2.82639 13.8508 2.70833 14.0525 2.625C14.2542 2.54167 14.4658 2.5 14.6875 2.5C14.9092 2.5 15.1244 2.54167 15.3333 2.625C15.5422 2.70833 15.7228 2.83333 15.875 3L17.0208 4.16667C17.1875 4.31944 17.3092 4.5 17.3858 4.70833C17.4625 4.91667 17.5006 5.125 17.5 5.33333C17.5 5.55556 17.4619 5.7675 17.3858 5.96917C17.3097 6.17083 17.1881 6.35472 17.0208 6.52083L6.04167 17.5H2.5ZM12.8958 7.10417L12.3125 6.5L13.5 7.6875L12.8958 7.10417Z" fill="#070A1C" style="fill:#070A1C;fill:color(display-p3 0.0275 0.0392 0.1098);fill-opacity:1;"/>
<path d="M35.5436 3.8C36.6636 3.8 37.581 4.168 38.2956 4.904C39.021 5.64 39.3836 6.57867 39.3836 7.72C39.3836 8.86133 39.021 9.8 38.2956 10.536C37.581 11.272 36.6636 11.64 35.5436 11.64H33.2556V15H31.4156V3.8H35.5436ZM35.4316 9.992C36.0396 9.992 36.541 9.77867 36.9356 9.352C37.341 8.91467 37.5436 8.37067 37.5436 7.72C37.5436 7.06933 37.341 6.53067 36.9356 6.104C36.541 5.66667 36.0396 5.448 35.4316 5.448H33.2556V9.992H35.4316ZM47.2557 10.888C47.2557 11.08 47.2397 11.4 47.2077 11.848H41.6717C41.6931 12.4347 41.8851 12.888 42.2477 13.208C42.6104 13.5173 43.1117 13.672 43.7517 13.672C44.5731 13.672 45.1277 13.3893 45.4157 12.824H47.1757C47.0584 13.5173 46.6797 14.088 46.0397 14.536C45.4104 14.9733 44.6477 15.192 43.7517 15.192C42.5784 15.192 41.6504 14.84 40.9677 14.136C40.2851 13.432 39.9437 12.4773 39.9437 11.272C39.9437 10.0773 40.2797 9.128 40.9517 8.424C41.6344 7.70933 42.5464 7.352 43.6877 7.352C44.7544 7.352 45.6131 7.68267 46.2637 8.344C46.9251 8.99467 47.2557 9.84267 47.2557 10.888ZM41.6717 10.52H45.5437C45.5331 9.944 45.3624 9.50133 45.0317 9.192C44.7117 8.88267 44.2531 8.728 43.6557 8.728C43.0477 8.728 42.5677 8.89333 42.2157 9.224C41.8637 9.55467 41.6824 9.98667 41.6717 10.52ZM55.0927 13.352H55.9567V16.92H54.2127V15H49.5087V16.92H47.6687V13.352H48.4367C48.8527 13.0853 49.0607 12.5307 49.0607 11.688V7.544H55.0927V13.352ZM50.2927 13.56H53.3487V8.984H50.8047V11.608C50.8047 12.3653 50.6341 13.016 50.2927 13.56ZM60.5065 15.192C59.3438 15.192 58.4425 14.824 57.8025 14.088C57.1625 13.352 56.8425 12.4133 56.8425 11.272C56.8425 10.1413 57.1785 9.208 57.8505 8.472C58.5225 7.72533 59.4238 7.352 60.5545 7.352C61.0558 7.352 61.5145 7.45867 61.9305 7.672C62.3465 7.88533 62.6665 8.17867 62.8905 8.552V7.544H64.6345V15H62.8905V13.992C62.6772 14.3547 62.3412 14.648 61.8825 14.872C61.4345 15.0853 60.9758 15.192 60.5065 15.192ZM60.7625 13.64C61.4772 13.64 62.0212 13.416 62.3945 12.968C62.7785 12.52 62.9705 11.9547 62.9705 11.272C62.9705 10.5893 62.7785 10.024 62.3945 9.576C62.0212 9.128 61.4772 8.904 60.7625 8.904C60.0905 8.904 59.5572 9.128 59.1625 9.576C58.7785 10.0133 58.5865 10.5787 58.5865 11.272C58.5865 11.9653 58.7785 12.536 59.1625 12.984C59.5572 13.4213 60.0905 13.64 60.7625 13.64ZM71.2872 7.544V9.16H68.4552V15H66.7112V7.544H71.2872ZM77.6389 7.544H79.3829V15.032C79.3829 16.1733 79.0575 17.0587 78.4069 17.688C77.7775 18.264 76.9349 18.552 75.8789 18.552C74.7802 18.552 73.9269 18.296 73.3189 17.784C72.7855 17.3147 72.5082 16.6693 72.4869 15.848H74.2469C74.2895 16.2747 74.4282 16.5893 74.6629 16.792C74.9082 17.0053 75.3029 17.112 75.8469 17.112C76.4015 17.112 76.8389 16.9307 77.1589 16.568C77.4789 16.216 77.6389 15.6613 77.6389 14.904V13.96C77.1589 14.7813 76.3589 15.192 75.2389 15.192C74.3535 15.192 73.6709 14.9093 73.1909 14.344C72.7215 13.768 72.4869 13.016 72.4869 12.088V7.544H74.2309V11.72C74.2309 13.0107 74.7695 13.656 75.8469 13.656C76.4335 13.656 76.8762 13.448 77.1749 13.032C77.4842 12.616 77.6389 12.072 77.6389 11.4V7.544ZM81.4694 7.544H84.8934C85.3947 7.544 85.816 7.608 86.1574 7.736C86.5094 7.864 86.7654 8.04 86.9254 8.264C87.0854 8.47733 87.1974 8.68533 87.2614 8.888C87.3254 9.08 87.3574 9.288 87.3574 9.512C87.3574 9.94933 87.1867 10.3227 86.8454 10.632C86.504 10.9413 86.0987 11.112 85.6294 11.144C86.1414 11.1653 86.5787 11.336 86.9414 11.656C87.3147 11.9653 87.5014 12.392 87.5014 12.936C87.5014 13.1493 87.4587 13.3627 87.3734 13.576C87.2987 13.7893 87.1707 14.0133 86.9894 14.248C86.808 14.472 86.5254 14.6533 86.1414 14.792C85.768 14.9307 85.3147 15 84.7814 15H81.4694V7.544ZM84.7494 10.6C85.0054 10.6 85.2134 10.5147 85.3734 10.344C85.5334 10.1627 85.6134 9.944 85.6134 9.688C85.6134 9.42133 85.5334 9.20267 85.3734 9.032C85.2134 8.85067 85.0054 8.76 84.7494 8.76H83.1654V10.6H84.7494ZM83.1654 11.816V13.784H84.8134C85.08 13.784 85.304 13.688 85.4854 13.496C85.6667 13.304 85.7574 13.0747 85.7574 12.808C85.7574 12.5413 85.6667 12.312 85.4854 12.12C85.304 11.9173 85.08 11.816 84.8134 11.816H83.1654ZM92.2102 15.192C91.0476 15.192 90.1462 14.824 89.5062 14.088C88.8662 13.352 88.5462 12.4133 88.5462 11.272C88.5462 10.1413 88.8822 9.208 89.5542 8.472C90.2262 7.72533 91.1276 7.352 92.2582 7.352C92.7596 7.352 93.2182 7.45867 93.6342 7.672C94.0502 7.88533 94.3702 8.17867 94.5942 8.552V7.544H96.3382V15H94.5942V13.992C94.3809 14.3547 94.0449 14.648 93.5862 14.872C93.1382 15.0853 92.6796 15.192 92.2102 15.192ZM92.4662 13.64C93.1809 13.64 93.7249 13.416 94.0982 12.968C94.4822 12.52 94.6742 11.9547 94.6742 11.272C94.6742 10.5893 94.4822 10.024 94.0982 9.576C93.7249 9.128 93.1809 8.904 92.4662 8.904C91.7942 8.904 91.2609 9.128 90.8662 9.576C90.4822 10.0133 90.2902 10.5787 90.2902 11.272C90.2902 11.9653 90.4822 12.536 90.8662 12.984C91.2609 13.4213 91.7942 13.64 92.4662 13.64ZM103.807 7.544V9.16H101.647V15H99.903V9.16H97.775V7.544H103.807ZM110.295 10.2L106.983 14.376V15H105.239V7.544H106.983V12.424L110.295 8.216V7.544H112.039V15H110.295V10.2ZM122.542 7.544V9.16H119.71V15H117.966V7.544H122.542ZM128.062 7.352C129.129 7.352 129.987 7.71467 130.638 8.44C131.289 9.15467 131.614 10.0987 131.614 11.272C131.614 12.424 131.273 13.368 130.59 14.104C129.907 14.8293 129.027 15.192 127.95 15.192C127.459 15.192 126.995 15.0853 126.558 14.872C126.121 14.648 125.79 14.3547 125.566 13.992V18.36H123.822V7.544H125.566V8.552C125.79 8.18933 126.131 7.90133 126.59 7.688C127.049 7.464 127.539 7.352 128.062 7.352ZM127.694 13.64C128.334 13.64 128.857 13.4213 129.262 12.984C129.667 12.536 129.87 11.9653 129.87 11.272C129.87 10.5787 129.667 10.0133 129.262 9.576C128.857 9.128 128.334 8.904 127.694 8.904C127.033 8.904 126.499 9.12267 126.094 9.56C125.689 9.99733 125.486 10.568 125.486 11.272C125.486 11.976 125.689 12.5467 126.094 12.984C126.499 13.4213 127.033 13.64 127.694 13.64ZM138.203 7.544H139.947V15.032C139.947 16.1733 139.621 17.0587 138.971 17.688C138.341 18.264 137.499 18.552 136.443 18.552C135.344 18.552 134.491 18.296 133.883 17.784C133.349 17.3147 133.072 16.6693 133.051 15.848H134.811C134.853 16.2747 134.992 16.5893 135.227 16.792C135.472 17.0053 135.867 17.112 136.411 17.112C136.965 17.112 137.403 16.9307 137.723 16.568C138.043 16.216 138.203 15.6613 138.203 14.904V13.96C137.723 14.7813 136.923 15.192 135.803 15.192C134.917 15.192 134.235 14.9093 133.755 14.344C133.285 13.768 133.051 13.016 133.051 12.088V7.544H134.795V11.72C134.795 13.0107 135.333 13.656 136.411 13.656C136.997 13.656 137.44 13.448 137.739 13.032C138.048 12.616 138.203 12.072 138.203 11.4V7.544ZM148.769 15H147.025V9H143.777V15H142.033V7.544H148.769V15ZM155.914 7.544H157.658V15.032C157.658 16.1733 157.333 17.0587 156.682 17.688C156.053 18.264 155.21 18.552 154.154 18.552C153.055 18.552 152.202 18.296 151.594 17.784C151.061 17.3147 150.783 16.6693 150.762 15.848H152.522C152.565 16.2747 152.703 16.5893 152.938 16.792C153.183 17.0053 153.578 17.112 154.122 17.112C154.677 17.112 155.114 16.9307 155.434 16.568C155.754 16.216 155.914 15.6613 155.914 14.904V13.96C155.434 14.7813 154.634 15.192 153.514 15.192C152.629 15.192 151.946 14.9093 151.466 14.344C150.997 13.768 150.762 13.016 150.762 12.088V7.544H152.506V11.72C152.506 13.0107 153.045 13.656 154.122 13.656C154.709 13.656 155.151 13.448 155.45 13.032C155.759 12.616 155.914 12.072 155.914 11.4V7.544Z" fill="#070A1C" style="fill:#070A1C;fill:color(display-p3 0.0275 0.0392 0.1098);fill-opacity:1;"/>
</svg>
