<svg width="146" height="20" viewBox="0 0 146 20" fill="none" xmlns="http://www.w3.org/2000/svg">
<path d="M3.125 2.22754H8.125C8.36303 2.22754 8.59145 2.32192 8.75977 2.49023C8.92808 2.65855 9.02246 2.88697 9.02246 3.125C9.02246 3.36303 8.92808 3.59145 8.75977 3.75977C8.59145 3.92808 8.36303 4.02246 8.125 4.02246H4.02246V15.9775H8.125C8.36303 15.9775 8.59145 16.0719 8.75977 16.2402C8.92808 16.4085 9.02246 16.637 9.02246 16.875C9.02246 17.113 8.92808 17.3415 8.75977 17.5098C8.59145 17.6781 8.36303 17.7725 8.125 17.7725H3.125C2.88697 17.7725 2.65855 17.6781 2.49023 17.5098C2.32192 17.3415 2.22754 17.113 2.22754 16.875V3.125C2.22754 2.88697 2.32192 2.65855 2.49023 2.49023C2.65855 2.32192 2.88697 2.22754 3.125 2.22754ZM13.749 5.97656C13.9875 5.97656 14.2161 6.07162 14.3848 6.24023L17.5098 9.36523C17.5933 9.44855 17.6598 9.5473 17.7051 9.65625C17.7503 9.76537 17.7735 9.88285 17.7734 10.001C17.7734 10.1189 17.7503 10.2358 17.7051 10.3447C17.6597 10.4537 17.5934 10.5534 17.5098 10.6367H17.5088L14.3838 13.7617C14.2152 13.9302 13.9864 14.0254 13.748 14.0254C13.5097 14.0253 13.2808 13.9302 13.1123 13.7617C12.9438 13.5932 12.8497 13.3643 12.8496 13.126C12.8496 12.8877 12.9439 12.6588 13.1123 12.4902L14.6377 10.9658L14.7061 10.8975H8.125C7.88697 10.8975 7.65855 10.8031 7.49023 10.6348C7.32192 10.4665 7.22754 10.238 7.22754 10C7.22754 9.76197 7.32192 9.53355 7.49023 9.36523C7.65855 9.19692 7.88697 9.10254 8.125 9.10254H14.7061L14.6377 9.03418L13.1133 7.51172C12.9447 7.34315 12.8497 7.11437 12.8496 6.87598C12.8496 6.63761 12.9448 6.40883 13.1133 6.24023C13.2819 6.07166 13.5106 5.97661 13.749 5.97656Z" fill="#070A1C" stroke="#070A1C" style="fill:#070A1C;fill:color(display-p3 0.0275 0.0392 0.1098);fill-opacity:1;stroke:#070A1C;stroke:color(display-p3 0.0275 0.0392 0.1098);stroke-opacity:1;" stroke-width="0.08"/>
<path d="M33.0644 5.448V15H31.2244V3.8H39.5124V15H37.6724V5.448H33.0644ZM47.9119 14.088C47.2079 14.824 46.2532 15.192 45.0479 15.192C43.8425 15.192 42.8825 14.824 42.1679 14.088C41.4639 13.3413 41.1119 12.4027 41.1119 11.272C41.1119 10.1413 41.4639 9.208 42.1679 8.472C42.8825 7.72533 43.8425 7.352 45.0479 7.352C46.2532 7.352 47.2079 7.72533 47.9119 8.472C48.6265 9.208 48.9839 10.1413 48.9839 11.272C48.9839 12.4027 48.6265 13.3413 47.9119 14.088ZM43.4319 12.984C43.8265 13.4213 44.3652 13.64 45.0479 13.64C45.7305 13.64 46.2639 13.4213 46.6479 12.984C47.0425 12.5467 47.2399 11.976 47.2399 11.272C47.2399 10.568 47.0425 9.99733 46.6479 9.56C46.2639 9.12267 45.7305 8.904 45.0479 8.904C44.3652 8.904 43.8265 9.12267 43.4319 9.56C43.0479 9.99733 42.8559 10.568 42.8559 11.272C42.8559 11.976 43.0479 12.5467 43.4319 12.984ZM57.1523 15H55.0083L52.2403 11.592V15H50.4963V7.544H52.2403V10.664H52.4003C52.7203 10.664 53.0029 10.4987 53.2483 10.168L54.5603 8.376C54.8269 8.01333 55.0723 7.77333 55.2963 7.656C55.5309 7.528 55.8456 7.464 56.2403 7.464H56.8323V9.032H56.5763C56.2349 9.032 55.9576 9.18133 55.7443 9.48L55.1363 10.328C54.9229 10.6373 54.7363 10.84 54.5763 10.936C54.4163 11.0213 54.2189 11.064 53.9843 11.064H53.8723L57.1523 15ZM63.8923 10.2L60.5803 14.376V15H58.8363V7.544H60.5803V12.424L63.8923 8.216V7.544H65.6363V15H63.8923V10.2ZM67.7231 15V7.544H69.4671V10.488H72.8751V7.544H74.6191V15H72.8751V11.944H69.4671V15H67.7231ZM81.7758 7.544H83.5198V15.032C83.5198 16.1733 83.1944 17.0587 82.5438 17.688C81.9144 18.264 81.0718 18.552 80.0158 18.552C78.9171 18.552 78.0638 18.296 77.4558 17.784C76.9224 17.3147 76.6451 16.6693 76.6238 15.848H78.3838C78.4264 16.2747 78.5651 16.5893 78.7998 16.792C79.0451 17.0053 79.4398 17.112 79.9838 17.112C80.5384 17.112 80.9758 16.9307 81.2958 16.568C81.6158 16.216 81.7758 15.6613 81.7758 14.904V13.96C81.2958 14.7813 80.4958 15.192 79.3758 15.192C78.4904 15.192 77.8078 14.9093 77.3278 14.344C76.8584 13.768 76.6238 13.016 76.6238 12.088V7.544H78.3678V11.72C78.3678 13.0107 78.9064 13.656 79.9838 13.656C80.5704 13.656 81.0131 13.448 81.3118 13.032C81.6211 12.616 81.7758 12.072 81.7758 11.4V7.544ZM90.9983 7.544V9.16H88.8383V15H87.0943V9.16H84.9663V7.544H90.9983ZM97.4866 10.2L94.1746 14.376V15H92.4306V7.544H94.1746V12.424L97.4866 8.216V7.544H99.2306V15H97.4866V10.2ZM109.733 7.544V9.16H106.901V15H105.157V7.544H109.733ZM115.253 7.352C116.32 7.352 117.178 7.71467 117.829 8.44C118.48 9.15467 118.805 10.0987 118.805 11.272C118.805 12.424 118.464 13.368 117.781 14.104C117.098 14.8293 116.218 15.192 115.141 15.192C114.65 15.192 114.186 15.0853 113.749 14.872C113.312 14.648 112.981 14.3547 112.757 13.992V18.36H111.013V7.544H112.757V8.552C112.981 8.18933 113.322 7.90133 113.781 7.688C114.24 7.464 114.73 7.352 115.253 7.352ZM114.885 13.64C115.525 13.64 116.048 13.4213 116.453 12.984C116.858 12.536 117.061 11.9653 117.061 11.272C117.061 10.5787 116.858 10.0133 116.453 9.576C116.048 9.128 115.525 8.904 114.885 8.904C114.224 8.904 113.69 9.12267 113.285 9.56C112.88 9.99733 112.677 10.568 112.677 11.272C112.677 11.976 112.88 12.5467 113.285 12.984C113.69 13.4213 114.224 13.64 114.885 13.64ZM125.394 7.544H127.138V15.032C127.138 16.1733 126.813 17.0587 126.162 17.688C125.533 18.264 124.69 18.552 123.634 18.552C122.535 18.552 121.682 18.296 121.074 17.784C120.541 17.3147 120.263 16.6693 120.242 15.848H122.002C122.045 16.2747 122.183 16.5893 122.418 16.792C122.663 17.0053 123.058 17.112 123.602 17.112C124.157 17.112 124.594 16.9307 124.914 16.568C125.234 16.216 125.394 15.6613 125.394 14.904V13.96C124.914 14.7813 124.114 15.192 122.994 15.192C122.109 15.192 121.426 14.9093 120.946 14.344C120.477 13.768 120.242 13.016 120.242 12.088V7.544H121.986V11.72C121.986 13.0107 122.525 13.656 123.602 13.656C124.189 13.656 124.631 13.448 124.93 13.032C125.239 12.616 125.394 12.072 125.394 11.4V7.544ZM135.96 15H134.216V9H130.968V15H129.224V7.544H135.96V15ZM143.105 7.544H144.849V15.032C144.849 16.1733 144.524 17.0587 143.873 17.688C143.244 18.264 142.401 18.552 141.345 18.552C140.246 18.552 139.393 18.296 138.785 17.784C138.252 17.3147 137.974 16.6693 137.953 15.848H139.713C139.756 16.2747 139.894 16.5893 140.129 16.792C140.374 17.0053 140.769 17.112 141.313 17.112C141.868 17.112 142.305 16.9307 142.625 16.568C142.945 16.216 143.105 15.6613 143.105 14.904V13.96C142.625 14.7813 141.825 15.192 140.705 15.192C139.82 15.192 139.137 14.9093 138.657 14.344C138.188 13.768 137.953 13.016 137.953 12.088V7.544H139.697V11.72C139.697 13.0107 140.236 13.656 141.313 13.656C141.9 13.656 142.342 13.448 142.641 13.032C142.95 12.616 143.105 12.072 143.105 11.4V7.544Z" fill="#070A1C" style="fill:#070A1C;fill:color(display-p3 0.0275 0.0392 0.1098);fill-opacity:1;"/>
</svg>
