<svg width="74" height="20" viewBox="0 0 74 20" fill="none" xmlns="http://www.w3.org/2000/svg">
<path d="M1.66797 5.00008C1.66797 4.11603 2.01916 3.26818 2.64428 2.64306C3.2694 2.01794 4.11725 1.66675 5.0013 1.66675H15.0013C15.8854 1.66675 16.7332 2.01794 17.3583 2.64306C17.9834 3.26818 18.3346 4.11603 18.3346 5.00008V15.0001C18.3346 15.8841 17.9834 16.732 17.3583 17.3571C16.7332 17.9822 15.8854 18.3334 15.0013 18.3334H5.0013C4.11725 18.3334 3.2694 17.9822 2.64428 17.3571C2.01916 16.732 1.66797 15.8841 1.66797 15.0001V5.00008Z" stroke="#070A1C" style="stroke:#070A1C;stroke:color(display-p3 0.0275 0.0392 0.1098);stroke-opacity:1;" stroke-width="1.66667" stroke-linecap="round" stroke-linejoin="round"/>
<path d="M7.08333 9.16667C8.23393 9.16667 9.16667 8.23393 9.16667 7.08333C9.16667 5.93274 8.23393 5 7.08333 5C5.93274 5 5 5.93274 5 7.08333C5 8.23393 5.93274 9.16667 7.08333 9.16667Z" stroke="#070A1C" style="stroke:#070A1C;stroke:color(display-p3 0.0275 0.0392 0.1098);stroke-opacity:1;" stroke-width="1.66667" stroke-linecap="round" stroke-linejoin="round"/>
<path d="M12.105 10.5176L5 18.3334H15.1108C15.9655 18.3334 16.7851 17.9939 17.3895 17.3896C17.9938 16.7852 18.3333 15.9656 18.3333 15.1109V15.0001C18.3333 14.6118 18.1875 14.4626 17.925 14.1751L14.5667 10.5126C14.4101 10.3418 14.2198 10.2056 14.0076 10.1126C13.7955 10.0195 13.5664 9.9717 13.3347 9.97217C13.1031 9.97264 12.8741 10.0214 12.6624 10.1153C12.4507 10.2092 12.2608 10.3462 12.105 10.5176Z" stroke="#070A1C" style="stroke:#070A1C;stroke:color(display-p3 0.0275 0.0392 0.1098);stroke-opacity:1;" stroke-width="1.66667" stroke-linecap="round" stroke-linejoin="round"/>
<path d="M31.6059 15V3.8H33.3659L36.9499 12.376L40.5179 3.8H42.2779V15H40.5179V7.592L37.6379 15H36.2459L33.3659 7.512V15H31.6059ZM51.1961 10.888C51.1961 11.08 51.1801 11.4 51.1481 11.848H45.6121C45.6334 12.4347 45.8254 12.888 46.1881 13.208C46.5507 13.5173 47.0521 13.672 47.6921 13.672C48.5134 13.672 49.0681 13.3893 49.3561 12.824H51.1161C50.9987 13.5173 50.6201 14.088 49.9801 14.536C49.3507 14.9733 48.5881 15.192 47.6921 15.192C46.5187 15.192 45.5907 14.84 44.9081 14.136C44.2254 13.432 43.8841 12.4773 43.8841 11.272C43.8841 10.0773 44.2201 9.128 44.8921 8.424C45.5747 7.70933 46.4867 7.352 47.6281 7.352C48.6947 7.352 49.5534 7.68267 50.2041 8.344C50.8654 8.99467 51.1961 9.84267 51.1961 10.888ZM45.6121 10.52H49.4841C49.4734 9.944 49.3027 9.50133 48.9721 9.192C48.6521 8.88267 48.1934 8.728 47.5961 8.728C46.9881 8.728 46.5081 8.89333 46.1561 9.224C45.8041 9.55467 45.6227 9.98667 45.6121 10.52ZM59.0331 13.352H59.8971V16.92H58.1531V15H53.4491V16.92H51.6091V13.352H52.3771C52.7931 13.0853 53.0011 12.5307 53.0011 11.688V7.544H59.0331V13.352ZM54.2331 13.56H57.2891V8.984H54.7451V11.608C54.7451 12.3653 54.5744 13.016 54.2331 13.56ZM63.2289 6.104C62.9836 6.34933 62.6743 6.472 62.3009 6.472C61.9276 6.472 61.6183 6.34933 61.3729 6.104C61.1276 5.848 61.0049 5.53867 61.0049 5.176C61.0049 4.81333 61.1276 4.50933 61.3729 4.264C61.6183 4.008 61.9276 3.88 62.3009 3.88C62.6743 3.88 62.9836 4.008 63.2289 4.264C63.4743 4.50933 63.5969 4.81333 63.5969 5.176C63.5969 5.53867 63.4743 5.848 63.2289 6.104ZM61.4209 15V7.544H63.1649V15H61.4209ZM68.3493 15.192C67.1866 15.192 66.2853 14.824 65.6453 14.088C65.0053 13.352 64.6853 12.4133 64.6853 11.272C64.6853 10.1413 65.0213 9.208 65.6933 8.472C66.3653 7.72533 67.2666 7.352 68.3973 7.352C68.8986 7.352 69.3573 7.45867 69.7733 7.672C70.1893 7.88533 70.5093 8.17867 70.7333 8.552V7.544H72.4773V15H70.7333V13.992C70.52 14.3547 70.184 14.648 69.7253 14.872C69.2773 15.0853 68.8186 15.192 68.3493 15.192ZM68.6053 13.64C69.32 13.64 69.864 13.416 70.2373 12.968C70.6213 12.52 70.8133 11.9547 70.8133 11.272C70.8133 10.5893 70.6213 10.024 70.2373 9.576C69.864 9.128 69.32 8.904 68.6053 8.904C67.9333 8.904 67.4 9.128 67.0053 9.576C66.6213 10.0133 66.4293 10.5787 66.4293 11.272C66.4293 11.9653 66.6213 12.536 67.0053 12.984C67.4 13.4213 67.9333 13.64 68.6053 13.64Z" fill="#070A1C" style="fill:#070A1C;fill:color(display-p3 0.0275 0.0392 0.1098);fill-opacity:1;"/>
</svg>
