<svg width="17" height="17" viewBox="0 0 17 17" fill="none" xmlns="http://www.w3.org/2000/svg">
<path d="M0.833984 8.34867C0.833984 6.35552 1.62576 4.44401 3.03513 3.03464C4.4445 1.62527 6.35601 0.833496 8.34916 0.833496C10.3423 0.833496 12.2538 1.62527 13.6632 3.03464C15.0726 4.44401 15.8643 6.35552 15.8643 8.34867V13.1302C15.8643 13.9268 15.8643 14.3232 15.746 14.6417C15.6519 14.894 15.5046 15.1232 15.3141 15.3137C15.1237 15.5041 14.8945 15.6514 14.6422 15.7455C14.3237 15.8639 13.9264 15.8639 13.1307 15.8639H8.34916C6.35601 15.8639 4.4445 15.0721 3.03513 13.6627C1.62576 12.2533 0.833984 10.3418 0.833984 8.34867Z" stroke="#81818D" style="stroke:#81818D;stroke:color(display-p3 0.5059 0.5059 0.5529);stroke-opacity:1;" stroke-width="1.66667"/>
<path d="M5.53125 7.40918H11.1676M8.34944 11.1668H11.1676" stroke="#81818D" style="stroke:#81818D;stroke:color(display-p3 0.5059 0.5059 0.5529);stroke-opacity:1;" stroke-width="1.66667" stroke-linecap="round" stroke-linejoin="round"/>
</svg>
