<svg width="90" height="40" viewBox="0 0 90 40" fill="none" xmlns="http://www.w3.org/2000/svg">
<rect width="90" height="40" rx="20" fill="#543C52" style="fill:#543C52;fill:color(display-p3 0.3294 0.2353 0.3216);fill-opacity:1;"/>
<path d="M18.17 21.864C18.17 22.4707 18.3427 22.9467 18.688 23.292C19.0333 23.628 19.4953 23.796 20.074 23.796C20.606 23.796 21.0213 23.642 21.32 23.334C21.6187 23.026 21.768 22.648 21.768 22.2C21.768 21.7147 21.6327 21.346 21.362 21.094C21.0913 20.8327 20.6387 20.702 20.004 20.702H19.276V19.274H20.018C20.578 19.274 20.9793 19.1387 21.222 18.868C21.474 18.5973 21.6 18.2613 21.6 17.86C21.6 17.4493 21.4553 17.104 21.166 16.824C20.8767 16.544 20.494 16.404 20.018 16.404C19.5047 16.404 19.08 16.5533 18.744 16.852C18.408 17.1507 18.24 17.566 18.24 18.098H16.63C16.63 17.174 16.938 16.4227 17.554 15.844C18.1793 15.256 18.982 14.962 19.962 14.962C20.886 14.962 21.656 15.2047 22.272 15.69C22.8973 16.166 23.21 16.8427 23.21 17.72C23.21 18.2707 23.0607 18.742 22.762 19.134C22.4727 19.526 22.104 19.7827 21.656 19.904C22.1507 19.9973 22.5613 20.2447 22.888 20.646C23.2147 21.0473 23.378 21.5607 23.378 22.186C23.378 23.1007 23.0793 23.838 22.482 24.398C21.8847 24.958 21.0913 25.238 20.102 25.238C19.0567 25.238 18.2027 24.9393 17.54 24.342C16.8867 23.7447 16.56 22.9187 16.56 21.864H18.17ZM28.033 25.182C26.8383 25.182 25.9377 24.7573 25.331 23.908C24.7243 23.0493 24.421 21.9293 24.421 20.548C24.421 18.7467 24.827 17.4073 25.639 16.53C26.451 15.6433 27.697 15.2 29.377 15.2H30.707V16.67H28.971C27.963 16.67 27.2117 16.9313 26.717 17.454C26.2317 17.9673 25.947 18.77 25.863 19.862C26.031 19.3673 26.3437 18.9847 26.801 18.714C27.2583 18.4433 27.739 18.308 28.243 18.308C29.223 18.308 29.9883 18.6393 30.539 19.302C31.099 19.9553 31.379 20.7673 31.379 21.738C31.379 22.69 31.0617 23.502 30.427 24.174C29.8017 24.846 29.0037 25.182 28.033 25.182ZM27.949 23.824C28.537 23.824 28.999 23.628 29.335 23.236C29.6803 22.8347 29.853 22.34 29.853 21.752C29.853 21.164 29.6803 20.674 29.335 20.282C28.999 19.8807 28.537 19.68 27.949 19.68C27.333 19.68 26.857 19.8713 26.521 20.254C26.185 20.6367 26.017 21.136 26.017 21.752C26.017 22.368 26.185 22.8673 26.521 23.25C26.857 23.6327 27.333 23.824 27.949 23.824ZM38.8118 21.402C38.8118 21.57 38.7978 21.85 38.7698 22.242H33.9258C33.9445 22.7553 34.1125 23.152 34.4298 23.432C34.7471 23.7027 35.1858 23.838 35.7458 23.838C36.4645 23.838 36.9498 23.5907 37.2018 23.096H38.7418C38.6391 23.7027 38.3078 24.202 37.7478 24.594C37.1971 24.9767 36.5298 25.168 35.7458 25.168C34.7191 25.168 33.9071 24.86 33.3098 24.244C32.7125 23.628 32.4138 22.7927 32.4138 21.738C32.4138 20.6927 32.7078 19.862 33.2958 19.246C33.8931 18.6207 34.6911 18.308 35.6898 18.308C36.6231 18.308 37.3745 18.5973 37.9438 19.176C38.5225 19.7453 38.8118 20.4873 38.8118 21.402ZM33.9258 21.08H37.3138C37.3045 20.576 37.1551 20.1887 36.8658 19.918C36.5858 19.6473 36.1845 19.512 35.6618 19.512C35.1298 19.512 34.7098 19.6567 34.4018 19.946C34.0938 20.2353 33.9351 20.6133 33.9258 21.08ZM43.9126 18.308C44.8459 18.308 45.5973 18.6253 46.1666 19.26C46.7359 19.8853 47.0206 20.7113 47.0206 21.738C47.0206 22.746 46.7219 23.572 46.1246 24.216C45.5273 24.8507 44.7573 25.168 43.8146 25.168C43.3853 25.168 42.9793 25.0747 42.5966 24.888C42.2139 24.692 41.9246 24.4353 41.7286 24.118V27.94H40.2026V18.476H41.7286V19.358C41.9246 19.0407 42.2233 18.7887 42.6246 18.602C43.0259 18.406 43.4553 18.308 43.9126 18.308ZM43.5906 23.81C44.1506 23.81 44.6079 23.6187 44.9626 23.236C45.3173 22.844 45.4946 22.3447 45.4946 21.738C45.4946 21.1313 45.3173 20.6367 44.9626 20.254C44.6079 19.862 44.1506 19.666 43.5906 19.666C43.0119 19.666 42.5453 19.8573 42.1906 20.24C41.8359 20.6227 41.6586 21.122 41.6586 21.738C41.6586 22.354 41.8359 22.8533 42.1906 23.236C42.5453 23.6187 43.0119 23.81 43.5906 23.81ZM54.3118 21.402C54.3118 21.57 54.2978 21.85 54.2698 22.242H49.4258C49.4444 22.7553 49.6124 23.152 49.9298 23.432C50.2471 23.7027 50.6858 23.838 51.2458 23.838C51.9644 23.838 52.4498 23.5907 52.7018 23.096H54.2418C54.1391 23.7027 53.8078 24.202 53.2478 24.594C52.6971 24.9767 52.0298 25.168 51.2458 25.168C50.2191 25.168 49.4071 24.86 48.8098 24.244C48.2124 23.628 47.9138 22.7927 47.9138 21.738C47.9138 20.6927 48.2078 19.862 48.7958 19.246C49.3931 18.6207 50.1911 18.308 51.1898 18.308C52.1231 18.308 52.8744 18.5973 53.4438 19.176C54.0224 19.7453 54.3118 20.4873 54.3118 21.402ZM49.4258 21.08H52.8138C52.8044 20.576 52.6551 20.1887 52.3658 19.918C52.0858 19.6473 51.6844 19.512 51.1618 19.512C50.6298 19.512 50.2098 19.6567 49.9018 19.946C49.5938 20.2353 49.4351 20.6133 49.4258 21.08ZM59.7066 18.476V19.89H57.2286V25H55.7026V18.476H59.7066ZM65.6002 18.476V19.89H63.7102V25H62.1842V19.89H60.3222V18.476H65.6002ZM71.3336 20.8L68.4356 24.454V25H66.9096V18.476H68.4356V22.746L71.3336 19.064V18.476H72.8596V25H71.3336V20.8Z" fill="white" style="fill:white;fill-opacity:1;"/>
</svg>
